<?xml version="1.0" standalone="no"?>
<!DOCTYPE svg PUBLIC "-//W3C//DTD SVG 20010904//EN"
 "http://www.w3.org/TR/2001/REC-SVG-20010904/DTD/svg10.dtd">
<svg version="1.0" xmlns="http://www.w3.org/2000/svg"
 width="1703.000000pt" height="886.000000pt" viewBox="0 0 1703.000000 886.000000"
 preserveAspectRatio="xMidYMid meet">

<g transform="translate(0.000000,886.000000) scale(0.100000,-0.100000)"
fill="#000000" stroke="none">
<path d="M5 4430 c0 -2439 1 -3437 2 -2218 2 1220 2 3216 0 4435 -1 1220 -2
222 -2 -2217z"/>
<path d="M15855 8681 c-85 -40 -135 -120 -135 -218 1 -135 100 -233 235 -233
137 0 235 98 235 235 0 99 -55 183 -142 219 -51 22 -143 20 -193 -3z m159 -23
c97 -29 163 -147 136 -241 -6 -23 -18 -50 -25 -61 -13 -17 -15 -17 -52 10 -21
16 -40 29 -42 31 -2 2 3 11 12 21 26 28 31 75 13 110 -22 43 -53 62 -101 62
-48 0 -79 -19 -101 -62 -18 -35 -13 -82 13 -110 9 -10 14 -19 12 -21 -2 -2
-21 -15 -42 -31 -37 -27 -39 -27 -52 -10 -58 80 -33 212 53 273 53 38 113 47
176 29z m-9 -123 c14 -13 25 -36 25 -50 0 -33 -42 -75 -75 -75 -33 0 -75 42
-75 75 0 33 42 75 75 75 14 0 37 -11 50 -25z m13 -179 c15 -8 35 -23 45 -34
18 -20 18 -21 -15 -38 -44 -24 -142 -24 -187 0 l-33 18 23 25 c13 14 33 29 44
33 32 14 93 11 123 -4z"/>
<path d="M2098 8614 c-60 -30 -108 -58 -108 -62 1 -12 27 -42 38 -42 14 0 22
-25 22 -76 0 -24 5 -44 10 -44 6 0 10 20 10 45 0 25 5 45 10 45 6 0 10 -28 10
-65 0 -59 -11 -85 -23 -52 -2 7 -10 0 -17 -15 -7 -16 -18 -28 -23 -28 -5 0
-16 -8 -23 -17 -31 -42 -24 -43 204 -43 120 0 221 3 225 6 9 9 -15 54 -29 54
-22 0 -34 35 -34 100 0 55 3 64 31 91 17 16 29 36 26 43 -6 14 -146 90 -154
83 -4 -5 41 -33 112 -71 28 -14 18 -15 -170 -16 l-200 0 33 20 c84 51 169 88
183 79 22 -14 33 -11 19 6 -19 23 -36 18 -152 -41z m215 -91 c-51 -2 -136 -2
-190 0 -54 1 -12 3 92 3 105 0 149 -2 98 -3z m-226 -19 c-3 -3 -12 -4 -19 -1
-8 3 -5 6 6 6 11 1 17 -2 13 -5z m62 -89 c0 -36 -5 -67 -14 -78 -13 -18 -14
-18 -24 2 -6 11 -11 45 -11 76 0 31 5 65 11 76 10 20 11 20 24 2 9 -11 14 -42
14 -78z m34 88 c-7 -2 -19 -2 -25 0 -7 3 -2 5 12 5 14 0 19 -2 13 -5z m43 -10
c18 -24 18 -134 0 -158 -13 -18 -14 -18 -25 3 -17 32 -12 172 7 172 2 0 11 -8
18 -17z m90 0 c18 -24 18 -134 0 -158 -13 -18 -14 -18 -25 3 -17 32 -12 172 7
172 2 0 11 -8 18 -17z m-136 -78 c0 -37 -4 -65 -10 -65 -6 0 -10 28 -10 65 0
37 4 65 10 65 6 0 10 -28 10 -65z m90 0 c0 -37 -4 -65 -10 -65 -6 0 -10 28
-10 65 0 37 4 65 10 65 6 0 10 -28 10 -65z m90 0 c0 -37 -4 -65 -10 -65 -6 0
-10 28 -10 65 0 37 4 65 10 65 6 0 10 -28 10 -65z m-273 -81 c-3 -3 -12 -4
-19 -1 -8 3 -5 6 6 6 11 1 17 -2 13 -5z m221 -31 c-54 -2 -142 -2 -195 0 -54
1 -10 3 97 3 107 0 151 -2 98 -3z m-15 -30 c-51 -2 -136 -2 -190 0 -54 1 -12
3 92 3 105 0 149 -2 98 -3z"/>
<path d="M850 8485 l0 -95 60 0 c47 0 60 3 60 15 0 11 -12 15 -45 15 -41 0
-45 2 -45 25 0 23 4 25 40 25 29 0 40 4 40 15 0 11 -11 15 -40 15 -36 0 -40 3
-40 25 0 23 4 25 45 25 33 0 45 4 45 15 0 12 -13 15 -60 15 l-60 0 0 -95z"/>
<path d="M1016 8532 l27 -48 -27 -47 c-26 -43 -26 -47 -9 -47 11 0 27 14 39
35 l20 36 20 -36 c10 -20 26 -35 36 -35 23 0 23 3 -7 50 -14 22 -25 43 -25 47
0 5 11 25 25 45 30 44 30 48 6 48 -11 0 -22 -9 -26 -19 -3 -11 -12 -24 -20
-31 -10 -9 -17 -5 -31 19 -10 17 -27 31 -37 31 -16 0 -16 -5 9 -48z"/>
<path d="M1170 8485 c0 -78 3 -95 15 -95 10 0 15 10 15 34 0 31 2 34 40 39 51
7 70 22 70 58 0 38 -33 59 -92 59 l-48 0 0 -95z m108 41 c5 -23 -14 -36 -50
-36 -25 0 -28 4 -28 31 0 29 2 30 37 27 28 -2 39 -8 41 -22z"/>
<path d="M1340 8485 l0 -95 60 0 c47 0 60 3 60 15 0 11 -12 15 -45 15 -41 0
-45 2 -45 25 0 23 4 25 40 25 29 0 40 4 40 15 0 11 -11 15 -40 15 -36 0 -40 3
-40 25 0 23 4 25 45 25 33 0 45 4 45 15 0 12 -13 15 -60 15 l-60 0 0 -95z"/>
<path d="M1490 8485 c0 -76 3 -95 15 -95 11 0 15 16 17 67 l3 68 42 -68 c60
-96 73 -91 73 28 0 78 -3 95 -15 95 -12 0 -15 -14 -15 -67 l-1 -68 -42 67
c-26 42 -49 68 -59 68 -16 0 -18 -11 -18 -95z"/>
<path d="M1698 8569 c-11 -6 -18 -22 -18 -40 0 -25 7 -32 48 -52 26 -12 47
-29 47 -37 0 -21 -56 -26 -67 -6 -11 20 -38 21 -38 2 0 -41 93 -61 123 -28 32
35 22 62 -33 85 -34 14 -50 27 -50 39 0 23 58 26 66 3 8 -19 34 -20 34 -1 0
35 -73 58 -112 35z"/>
<path d="M1840 8485 l0 -95 66 0 c48 0 65 3 62 13 -3 6 -25 13 -51 15 -42 3
-47 6 -47 28 0 21 4 24 40 24 29 0 40 4 40 15 0 11 -11 15 -40 15 -36 0 -40 3
-40 25 0 23 4 25 45 25 33 0 45 4 45 15 0 12 -13 15 -60 15 l-60 0 0 -95z"/>
<path d="M2452 8568 c3 -7 17 -14 31 -16 27 -3 27 -4 27 -83 0 -64 3 -79 15
-79 12 0 15 16 15 80 l0 80 30 0 c20 0 30 5 30 15 0 12 -15 15 -76 15 -56 0
-75 -3 -72 -12z"/>
<path d="M2630 8485 c0 -78 3 -95 15 -95 10 0 15 11 15 35 0 28 4 35 19 35 11
0 28 -15 40 -35 11 -19 27 -35 36 -35 19 0 19 3 -5 42 -18 30 -18 34 -3 50 21
23 20 68 -3 85 -10 7 -39 13 -66 13 l-48 0 0 -95z m95 35 c0 -21 -5 -26 -32
-28 -31 -3 -33 -1 -33 28 0 29 2 31 33 28 27 -2 32 -7 32 -28z"/>
<path d="M2839 8553 c-32 -83 -59 -156 -59 -159 0 -2 7 -4 16 -4 9 0 18 9 21
20 4 16 14 20 44 20 28 0 41 -5 49 -20 14 -25 45 -28 35 -2 -4 9 -20 52 -37
95 -32 82 -51 96 -69 50z m45 -70 c6 -20 4 -23 -18 -23 -29 0 -31 6 -15 47 11
30 19 24 33 -24z"/>
<path d="M3002 8573 c-18 -7 -42 -57 -42 -88 0 -33 24 -81 45 -89 45 -17 105
8 105 45 0 25 -26 25 -33 -1 -4 -14 -14 -20 -35 -20 -33 0 -42 14 -42 65 0 51
9 65 42 65 21 0 31 -6 35 -20 7 -26 33 -26 33 -1 0 37 -63 62 -108 44z"/>
<path d="M3140 8485 c0 -88 1 -95 20 -95 16 0 20 7 20 34 0 50 15 52 47 6 15
-22 36 -40 46 -40 23 0 22 3 -17 57 l-35 48 35 42 c31 38 33 43 15 43 -11 0
-35 -19 -55 -42 l-36 -43 0 43 c0 35 -3 42 -20 42 -19 0 -20 -7 -20 -95z"/>
<path d="M3310 8485 l0 -95 66 0 c48 0 65 3 62 13 -3 6 -25 13 -51 15 -42 3
-47 6 -47 28 0 21 4 24 40 24 29 0 40 4 40 15 0 11 -11 15 -40 15 -36 0 -40 3
-40 25 0 23 4 25 45 25 33 0 45 4 45 15 0 12 -13 15 -60 15 l-60 0 0 -95z"/>
<path d="M3460 8485 c0 -78 3 -95 15 -95 10 0 15 11 15 35 0 30 3 35 23 35 17
0 28 -10 40 -35 9 -19 23 -35 32 -35 20 0 19 8 -4 46 -18 29 -18 31 0 53 24
30 24 46 -1 71 -15 15 -33 20 -70 20 l-50 0 0 -95z m95 35 c0 -21 -5 -26 -32
-28 -31 -3 -33 -1 -33 28 0 29 2 31 33 28 27 -2 32 -7 32 -28z"/>
<path d="M15364 8569 c-10 -17 13 -36 27 -22 12 12 4 33 -11 33 -5 0 -12 -5
-16 -11z"/>
<path d="M12935 8545 c-52 -51 -19 -165 47 -165 29 0 68 26 68 46 0 19 -26 18
-34 -1 -8 -22 -53 -19 -66 4 -25 47 -4 111 36 111 13 0 27 -7 30 -15 8 -19 34
-20 34 -1 0 20 -39 46 -68 46 -12 0 -34 -11 -47 -25z"/>
<path d="M13810 8567 c0 -2 -15 -45 -34 -96 -30 -81 -32 -91 -16 -91 10 0 20
9 23 20 4 15 14 20 42 20 28 0 38 -5 42 -20 3 -11 14 -20 24 -20 17 0 16 8
-15 93 -21 59 -39 93 -50 95 -9 2 -16 1 -16 -1z m34 -94 c6 -20 4 -23 -18 -23
-30 0 -29 -2 -15 40 12 34 19 30 33 -17z"/>
<path d="M14930 8475 l0 -95 55 0 c42 0 55 3 55 15 0 11 -11 15 -40 15 l-40 0
0 80 c0 64 -3 80 -15 80 -12 0 -15 -17 -15 -95z"/>
<path d="M12445 8540 c-4 -6 -14 -9 -23 -8 -22 4 -44 -41 -37 -77 3 -16 6 -36
7 -42 1 -12 7 -14 41 -17 6 -1 15 -9 19 -18 7 -18 38 -25 38 -9 0 5 9 11 20
14 16 4 18 10 12 27 -4 12 -12 22 -17 23 -15 2 -55 39 -55 50 0 5 7 15 17 22
9 7 14 19 10 29 -7 18 -23 21 -32 6z"/>
<path d="M13470 8536 c0 -8 -6 -16 -12 -19 -10 -4 -10 -7 0 -18 6 -7 12 -34
12 -60 0 -33 5 -49 16 -53 25 -10 34 -7 34 9 0 8 -4 15 -10 15 -15 0 -12 87 3
94 10 5 10 7 0 12 -7 3 -13 12 -13 20 0 8 -7 14 -15 14 -8 0 -15 -6 -15 -14z"/>
<path d="M14650 8536 c0 -8 -6 -17 -12 -20 -10 -5 -10 -7 0 -12 6 -3 12 -23
12 -45 0 -50 15 -79 40 -79 23 0 27 25 5 34 -9 3 -15 19 -15 41 0 22 6 38 15
41 8 4 15 10 15 15 0 5 -7 9 -15 9 -8 0 -15 7 -15 15 0 8 -7 15 -15 15 -8 0
-15 -6 -15 -14z"/>
<path d="M13090 8449 c0 -55 3 -69 15 -69 11 0 15 12 15 49 0 41 4 51 20 56
33 10 23 31 -15 32 l-35 1 0 -69z"/>
<path d="M13197 8508 c-9 -7 -20 -27 -23 -45 -5 -26 -1 -37 19 -57 29 -29 54
-33 83 -11 20 15 17 17 -31 19 -20 1 -31 7 -33 19 -3 14 4 17 37 17 34 0 41 3
41 19 0 22 -35 51 -60 51 -9 0 -24 -6 -33 -12z m63 -28 c0 -5 -11 -10 -25 -10
-14 0 -25 5 -25 10 0 6 11 10 25 10 14 0 25 -4 25 -10z"/>
<path d="M13338 8509 c-30 -17 -21 -30 17 -23 28 5 35 3 35 -10 0 -10 -9 -16
-24 -16 -42 0 -74 -48 -44 -66 7 -4 33 -9 58 -10 l45 -2 -3 57 c-4 73 -35 99
-84 70z m52 -84 c0 -16 -35 -21 -44 -6 -8 12 4 21 26 21 10 0 18 -7 18 -15z"/>
<path d="M13567 8508 c-9 -7 -20 -27 -23 -45 -5 -26 -1 -37 19 -57 29 -29 54
-33 83 -11 20 15 17 17 -31 19 -20 1 -31 7 -33 19 -3 14 4 17 37 17 33 0 41 4
41 18 0 41 -58 66 -93 40z m58 -28 c4 -6 -5 -10 -19 -10 -14 0 -26 5 -26 10 0
6 9 10 19 10 11 0 23 -4 26 -10z"/>
<path d="M13945 8500 c-25 -27 -22 -80 6 -102 26 -22 38 -22 67 -2 25 17 29
34 7 34 -8 0 -15 -5 -15 -11 0 -6 -10 -9 -22 -7 -17 2 -24 11 -26 32 -5 40 11
53 43 36 32 -17 44 -6 20 20 -23 26 -57 26 -80 0z"/>
<path d="M14080 8500 c-39 -39 -12 -120 40 -120 25 0 70 42 51 48 -7 2 -18 -1
-24 -7 -30 -30 -66 4 -52 49 7 22 34 27 52 9 6 -6 17 -9 24 -7 19 6 -26 48
-51 48 -11 0 -29 -9 -40 -20z"/>
<path d="M14222 8504 c-16 -11 -22 -25 -22 -54 0 -62 58 -92 100 -50 38 38 13
120 -38 120 -10 0 -28 -7 -40 -16z m63 -54 c0 -31 -3 -35 -25 -35 -19 0 -26 6
-28 23 -5 36 5 54 30 50 19 -2 23 -9 23 -38z"/>
<path d="M14350 8468 c0 -70 9 -82 64 -83 l46 -2 0 69 c0 54 -3 68 -15 68 -12
0 -15 -13 -15 -56 0 -52 -1 -55 -22 -52 -20 3 -23 10 -26 56 -2 37 -7 52 -18
52 -10 0 -14 -13 -14 -52z"/>
<path d="M14500 8448 c0 -54 3 -68 15 -68 12 0 15 13 15 56 0 52 1 55 23 52
19 -3 22 -10 25 -55 2 -38 7 -53 18 -53 10 0 14 13 14 51 0 73 -11 87 -65 87
l-45 -1 0 -69z"/>
<path d="M15080 8500 c-38 -38 -13 -120 38 -120 36 0 62 29 62 70 0 62 -58 92
-100 50z m65 -50 c0 -28 -4 -36 -22 -38 -14 -2 -23 3 -28 17 -10 34 4 63 28
59 18 -2 22 -10 22 -38z"/>
<path d="M15226 8501 c-40 -45 -5 -130 48 -117 20 5 24 3 20 -9 -4 -9 -19 -15
-40 -15 -35 0 -46 -13 -18 -24 29 -11 54 -6 74 14 16 16 20 33 20 93 l0 74
-44 1 c-30 0 -50 -5 -60 -17z m69 -51 c0 -31 -3 -35 -25 -35 -19 0 -26 6 -28
23 -5 36 5 54 30 50 19 -2 23 -9 23 -38z"/>
<path d="M15364 8498 c3 -13 6 -44 6 -70 0 -36 4 -48 15 -48 12 0 15 14 15 70
0 65 -2 70 -21 70 -17 0 -20 -4 -15 -22z"/>
<path d="M15430 8449 c0 -54 3 -69 14 -69 11 0 16 15 18 53 3 45 6 52 26 55
21 3 22 0 22 -52 0 -43 3 -56 15 -56 12 0 15 14 15 65 0 36 -3 66 -7 66 -5 1
-29 3 -55 4 l-48 2 0 -68z"/>
<path d="M12496 8481 c-10 -11 -13 -21 -7 -25 10 -7 24 10 27 32 3 16 0 15
-20 -7z"/>
<path d="M7030 7785 c-8 -2 -49 -9 -90 -15 -84 -14 -218 -58 -300 -100 -234
-119 -432 -346 -517 -595 -62 -180 -57 22 -60 -2499 -3 -1941 -1 -2297 10
-2287 16 13 35 -4 62 -59 10 -19 19 -36 20 -38 2 -2 17 4 34 12 19 10 41 36
56 66 29 56 48 63 69 23 11 -22 21 -28 47 -28 31 0 35 -4 52 -50 22 -61 23
-61 42 -45 8 7 25 10 38 7 17 -5 27 0 42 22 26 40 78 55 107 31 21 -17 23 -17
39 4 l17 21 56 -27 56 -28 13 33 c8 17 19 49 26 69 13 40 95 158 109 158 5 0
28 -14 52 -31 36 -26 48 -30 79 -24 20 4 52 16 72 27 36 20 36 21 48 116 13
105 20 119 59 124 22 3 29 12 46 66 24 75 47 83 65 22 6 -22 16 -40 22 -40 17
0 88 49 101 70 18 28 33 25 63 -14 15 -19 41 -44 59 -54 29 -17 34 -27 51
-107 11 -54 26 -97 40 -113 l21 -25 21 27 c24 30 41 33 59 9 12 -16 15 -14 30
25 17 43 31 51 52 30 9 -9 23 -4 59 18 37 23 51 39 63 74 14 42 19 46 62 54
40 8 50 6 77 -13 30 -22 32 -22 60 -5 25 15 34 16 57 5 26 -11 29 -10 52 19
19 24 30 30 47 26 14 -4 32 1 46 13 20 16 25 34 35 130 6 62 14 115 18 118 3
4 22 -1 40 -10 34 -16 35 -15 50 9 21 31 49 31 66 -2 28 -51 47 -51 100 1 l48
47 32 -18 32 -19 39 44 c33 37 43 42 65 37 15 -4 38 -20 53 -37 36 -41 55 -37
90 21 17 27 37 50 44 50 10 0 30 66 66 218 79 328 77 320 116 344 19 11 35 24
35 29 0 15 50 89 60 89 5 0 16 -14 25 -30 13 -24 22 -30 49 -30 35 0 36 -1 66
-84 10 -27 12 -27 28 -13 10 9 27 14 39 11 15 -4 26 2 41 24 27 37 75 49 109
27 21 -14 24 -14 29 0 8 21 37 19 85 -5 40 -21 59 -20 59 3 1 51 108 227 137
227 8 0 31 -12 53 -26 34 -22 46 -25 87 -19 78 10 91 27 104 125 17 134 15
128 52 132 30 3 34 8 52 63 29 87 53 95 74 24 6 -21 14 -39 17 -39 12 0 96 63
101 76 9 25 42 15 65 -20 12 -18 37 -42 55 -51 18 -10 34 -25 37 -34 2 -9 12
-47 22 -86 9 -38 24 -77 32 -85 8 -8 12 -9 8 -2 -9 15 6 16 21 1 8 -8 13 -8
17 0 11 17 53 13 61 -6 5 -14 10 -9 20 21 16 46 32 58 57 45 12 -6 25 -6 38 1
23 12 27 22 5 14 -11 -5 -13 0 -5 25 12 45 16 48 50 46 19 -1 30 3 30 11 0 19
38 40 85 49 34 6 37 8 19 15 -11 5 -47 11 -79 15 -44 6 -54 10 -41 17 10 6 26
8 36 5 11 -3 27 1 37 9 12 9 47 13 99 14 77 0 83 2 128 35 25 20 52 35 58 34
40 -5 36 5 -7 18 -27 8 -99 16 -160 18 -168 4 -261 18 -250 36 4 5 -3 9 -14 9
-31 0 -25 18 7 22 20 2 26 8 24 22 -2 11 1 15 7 11 6 -3 11 0 11 8 0 9 16 14
52 16 28 1 59 6 67 10 9 4 61 9 116 10 55 2 103 4 106 7 3 2 54 4 113 5 58 1
109 5 112 10 3 5 42 7 87 6 121 -5 170 18 106 50 -26 14 -91 17 -103 6 -13
-13 -70 -11 -98 3 -15 8 -56 14 -92 14 -36 0 -67 4 -70 9 -4 5 -24 12 -46 16
-22 4 -40 10 -40 14 0 4 -10 18 -22 31 -13 14 -22 29 -20 34 2 5 -6 6 -18 3
-11 -3 -17 -1 -14 4 3 6 1 16 -6 24 -17 21 15 33 95 36 45 1 84 9 108 21 40
20 84 24 163 13 37 -5 60 -3 85 8 19 9 67 21 108 27 41 6 78 13 83 16 5 4 60
6 121 5 62 -1 119 3 127 9 8 5 13 10 10 11 -3 0 -21 2 -40 4 -19 2 -57 7 -85
10 -67 8 -133 34 -140 55 -3 9 -23 23 -45 30 -21 7 -54 27 -72 45 -18 18 -36
31 -39 29 -4 -2 -9 3 -13 11 -3 9 0 15 10 15 14 0 14 2 0 15 -8 8 -28 15 -45
15 -17 0 -31 5 -31 11 0 8 20 10 65 7 36 -3 68 -2 70 3 3 4 43 8 88 8 45 0 93
3 107 6 109 28 143 31 270 25 40 -3 76 1 95 10 17 7 52 14 78 15 56 3 75 16
53 35 -18 14 -48 17 -276 30 -191 10 -213 13 -218 28 -2 7 -11 8 -28 2 -14 -6
-35 -10 -47 -9 -12 0 -45 -3 -73 -7 -47 -6 -52 -5 -57 17 -3 12 -4 26 -1 30 2
4 37 7 77 7 44 -1 86 5 108 15 25 10 40 12 47 5 7 -7 12 -3 17 12 4 11 17 25
30 30 20 8 75 92 75 115 0 2 -18 -2 -39 -11 -37 -15 -42 -14 -70 2 -17 10 -31
22 -31 27 0 5 -12 23 -26 39 -17 21 -22 34 -15 41 15 15 221 23 221 8 0 -6 5
-11 12 -11 6 0 19 -6 27 -14 30 -27 68 -30 87 -7 11 12 35 23 63 26 43 6 72
15 113 36 10 5 34 9 53 9 20 0 51 7 71 15 30 12 34 17 25 34 -6 10 -18 21 -27
25 -21 8 -84 6 -108 -3 -12 -4 -33 0 -55 11 -19 10 -48 18 -63 18 -15 0 -38 5
-52 11 -16 8 -34 8 -53 2 -15 -5 -38 -7 -49 -5 -18 3 -22 10 -22 48 -1 36 3
47 23 60 20 13 29 14 60 3 19 -7 35 -17 35 -22 0 -4 4 -5 10 -2 5 3 3 -10 -5
-30 -16 -37 -7 -46 20 -18 17 16 55 96 55 114 0 5 -6 8 -12 6 -8 -1 -12 6 -10
16 5 32 -59 49 -175 48 -106 -2 -136 6 -161 41 -7 10 -24 18 -38 18 -13 0 -24
4 -24 10 0 11 31 19 75 19 58 1 138 9 179 19 39 10 113 24 118 22 8 -2 143 51
152 60 6 6 3 17 -10 31 -24 27 -29 121 -9 163 14 27 13 30 -10 51 -33 32 -56
89 -48 126 6 30 6 30 67 28 33 -1 63 -6 66 -10 3 -4 17 -10 32 -14 22 -6 27
-3 30 17 3 22 -47 88 -67 88 -18 0 -76 53 -71 65 6 18 -18 38 -63 50 -21 6
-41 20 -48 35 -11 22 -10 26 10 33 12 5 36 6 53 2 44 -8 84 12 84 41 0 47 -79
60 -112 19 -15 -20 -23 -23 -33 -15 -8 6 -22 10 -32 8 -19 -3 -23 2 -23 27 0
8 9 15 20 15 12 0 35 7 51 16 17 8 37 13 44 11 7 -3 17 -1 23 5 6 6 41 10 79
9 46 0 84 6 119 20 45 18 50 23 46 45 -6 34 -18 39 -94 35 -83 -3 -100 5 -61
30 22 15 47 19 115 19 48 0 90 5 93 10 12 20 -6 49 -35 55 -42 9 -54 28 -30
47 13 12 20 13 24 5 3 -9 7 -8 15 3 6 8 15 22 21 30 12 16 31 50 52 89 10 19
10 25 0 29 -20 6 -14 39 11 54 12 8 72 20 132 27 61 7 128 15 150 18 22 3 52
4 68 4 15 -1 27 3 27 8 0 21 -33 41 -66 41 -24 0 -43 8 -60 25 -14 14 -32 25
-40 25 -10 0 -13 7 -8 24 5 22 1 26 -33 35 -21 6 -46 16 -55 23 -16 12 -15 15
7 43 23 28 31 30 107 36 46 3 -1298 6 -2987 6 -1688 0 -3077 -1 -3085 -2z
m5460 -1111 c0 -8 -4 -14 -10 -14 -5 0 -10 5 -10 11 0 5 -6 7 -12 3 -9 -5 -9
-3 1 9 15 18 31 14 31 -9z"/>
<path d="M1580 7205 c0 -138 1 -145 20 -145 19 0 20 7 20 145 0 138 -1 145
-20 145 -19 0 -20 -7 -20 -145z"/>
<path d="M1034 7313 c7 -21 56 -239 56 -247 0 -3 11 -6 23 -6 21 0 26 9 47 95
14 52 27 91 31 87 3 -4 16 -46 29 -94 20 -76 26 -88 44 -88 19 0 24 14 52 135
l31 135 -23 0 c-20 0 -24 -9 -40 -95 -10 -52 -20 -95 -24 -95 -3 0 -16 43 -29
95 -19 78 -26 95 -42 95 -19 0 -22 -9 -50 -125 -6 -27 -15 -54 -19 -58 -4 -5
-16 35 -26 87 -16 89 -19 96 -42 96 -18 0 -22 -4 -18 -17z"/>
<path d="M3160 7195 c0 -128 1 -135 20 -135 19 0 20 7 21 103 l0 102 40 -103
c31 -77 45 -102 57 -100 10 2 30 40 53 98 l38 95 0 -97 c1 -91 2 -98 21 -98
19 0 20 7 20 135 l0 135 -28 0 c-26 0 -30 -6 -62 -96 -19 -52 -37 -97 -41
-100 -4 -2 -23 41 -44 96 -36 95 -39 100 -66 100 l-29 0 0 -135z"/>
<path d="M2733 7289 c4 -15 0 -23 -14 -26 -24 -7 -25 -29 -1 -35 16 -5 19 -16
19 -72 1 -73 13 -96 49 -96 17 0 24 6 24 20 0 11 -7 20 -15 20 -12 0 -15 14
-15 65 0 51 3 65 15 65 8 0 15 7 15 15 0 8 -7 15 -15 15 -9 0 -15 9 -15 25 0
20 -5 25 -26 25 -22 0 -25 -4 -21 -21z"/>
<path d="M1415 7248 c-33 -19 -44 -41 -45 -85 0 -55 7 -71 41 -88 34 -18 60
-19 94 -3 36 16 34 43 -2 33 -52 -14 -93 -1 -93 31 0 11 16 14 65 14 59 0 65
2 65 20 0 68 -69 110 -125 78z m83 -56 c2 -8 -12 -12 -42 -12 -50 0 -58 11
-24 34 19 13 25 14 42 3 11 -8 22 -19 24 -25z"/>
<path d="M1713 7250 c-30 -12 -43 -41 -43 -93 0 -65 25 -92 85 -92 37 0 51 5
66 24 10 13 19 27 19 32 0 15 -40 10 -46 -5 -8 -21 -40 -26 -64 -9 -29 20 -25
89 6 110 18 12 24 11 47 -7 33 -26 57 -26 50 0 -11 42 -68 61 -120 40z"/>
<path d="M1914 7248 c-60 -28 -58 -149 3 -177 40 -18 73 -13 104 18 78 79 -8
207 -107 159z m90 -62 c21 -57 -28 -111 -73 -80 -15 11 -21 26 -21 54 0 69 72
89 94 26z"/>
<path d="M2090 7160 c0 -93 1 -100 20 -100 17 0 19 8 22 78 l3 77 35 0 35 0 3
-77 c3 -70 5 -78 22 -78 18 0 20 7 20 68 0 80 8 95 46 90 29 -3 29 -3 32 -80
3 -70 5 -78 22 -78 18 0 20 7 20 84 0 76 -2 86 -22 100 -28 20 -57 20 -85 1
-18 -13 -22 -13 -33 0 -14 17 -53 20 -81 5 -13 -7 -19 -7 -19 0 0 5 -9 10 -20
10 -19 0 -20 -7 -20 -100z"/>
<path d="M2464 7248 c-61 -29 -63 -142 -4 -173 35 -18 60 -19 95 -3 36 16 34
43 -2 33 -52 -14 -93 -1 -93 31 0 11 16 14 65 14 59 0 65 2 65 20 0 68 -65
108 -126 78z m84 -56 c2 -8 -12 -12 -42 -12 -50 0 -58 11 -24 34 19 13 25 14
42 3 11 -8 22 -19 24 -25z"/>
<path d="M2885 7248 c-33 -18 -45 -40 -45 -84 0 -56 7 -72 41 -89 40 -21 74
-18 106 9 24 21 28 32 28 76 0 44 -4 55 -28 76 -30 26 -69 30 -102 12z m85
-58 c17 -42 1 -84 -34 -88 -38 -5 -56 14 -56 59 0 67 66 88 90 29z"/>
<path d="M3509 7231 c-77 -78 9 -210 104 -159 35 18 46 40 46 88 0 48 -11 70
-46 88 -37 20 -73 14 -104 -17z m109 -69 c2 -32 -1 -43 -18 -55 -45 -31 -87 8
-75 70 13 71 87 60 93 -15z"/>
<path d="M3700 7160 c0 -100 0 -100 25 -100 23 0 24 3 27 78 3 77 3 77 32 80
38 5 46 -10 46 -90 0 -61 2 -68 20 -68 18 0 20 7 20 69 0 38 -4 81 -10 95 -11
31 -52 43 -88 26 -18 -8 -28 -8 -30 -1 -2 6 -12 11 -23 11 -17 0 -19 -8 -19
-100z"/>
<path d="M3939 7231 c-23 -24 -29 -38 -29 -74 0 -39 5 -49 32 -72 26 -22 39
-26 70 -22 43 6 71 24 62 39 -4 5 -18 6 -33 2 -40 -11 -64 -7 -78 12 -22 30
-15 34 52 34 l65 0 0 30 c0 41 -39 80 -80 80 -21 0 -41 -9 -61 -29z m93 -25
c15 -21 8 -26 -37 -26 -49 0 -57 11 -24 34 22 15 48 11 61 -8z"/>
<path d="M4100 7257 c0 -3 16 -48 35 -101 37 -103 36 -136 -5 -136 -13 0 -20
-7 -20 -20 0 -26 40 -27 63 -2 14 15 97 233 97 254 0 5 -10 8 -21 6 -17 -2
-26 -17 -42 -68 l-20 -65 -22 65 c-17 51 -26 66 -43 68 -12 2 -22 1 -22 -1z"/>
<path d="M1050 6735 c0 -128 1 -135 20 -135 19 0 20 7 21 103 l0 102 41 -103
c30 -76 45 -102 56 -100 9 2 31 41 53 98 l38 95 0 -97 c1 -91 2 -98 21 -98 19
0 20 7 20 135 l0 135 -27 0 c-26 0 -30 -6 -63 -96 -19 -53 -38 -97 -41 -100
-4 -2 -23 41 -44 96 -36 95 -39 100 -66 100 l-29 0 0 -135z"/>
<path d="M3180 6825 c0 -16 -6 -25 -15 -25 -8 0 -15 -7 -15 -15 0 -8 7 -15 15
-15 12 0 15 -14 15 -69 0 -77 13 -101 56 -101 30 0 34 35 4 43 -17 4 -20 14
-20 62 0 48 3 58 20 62 11 3 20 12 20 19 0 8 -9 14 -20 14 -15 0 -20 7 -20 25
0 18 -5 25 -20 25 -15 0 -20 -7 -20 -25z"/>
<path d="M12652 6793 c4 -49 33 -59 40 -13 3 23 0 34 -13 41 -28 14 -30 12
-27 -28z"/>
<path d="M1410 6787 c-32 -16 -39 -47 -11 -47 12 0 21 4 21 9 0 16 40 23 55
11 27 -22 17 -40 -19 -40 -50 0 -91 -37 -82 -74 9 -36 48 -53 87 -39 17 7 31
7 35 2 3 -5 13 -9 23 -9 16 0 17 9 13 83 -3 67 -8 85 -24 100 -24 20 -63 22
-98 4z m78 -119 c-2 -17 -11 -24 -32 -26 -32 -4 -51 15 -34 35 6 7 24 13 40
13 25 0 29 -4 26 -22z"/>
<path d="M1580 6700 c0 -100 0 -100 25 -100 23 0 24 3 27 78 l3 77 30 0 30 0
3 -77 c3 -75 4 -78 27 -78 24 0 25 3 25 59 0 88 -9 121 -37 134 -18 8 -33 8
-56 -1 -21 -8 -33 -9 -35 -2 -2 5 -12 10 -23 10 -17 0 -19 -8 -19 -100z"/>
<path d="M1813 6774 c-28 -29 -28 -29 -5 -32 12 -2 29 4 38 12 18 19 20 19 45
6 30 -16 24 -40 -11 -40 -62 0 -103 -41 -86 -85 10 -26 54 -40 87 -28 16 6 29
7 29 2 0 -5 10 -9 23 -9 21 0 22 2 17 85 -3 46 -10 89 -16 95 -6 7 -30 14 -52
17 -35 5 -44 2 -69 -23z m95 -106 c-4 -29 -64 -39 -75 -13 -7 21 12 35 50 35
24 0 28 -4 25 -22z"/>
<path d="M2023 6776 c-24 -21 -28 -32 -28 -76 0 -44 4 -55 28 -76 31 -26 66
-31 86 -11 10 10 12 6 9 -17 -4 -36 -35 -50 -71 -31 -26 13 -37 11 -37 -10 0
-15 43 -35 75 -35 13 0 37 11 52 24 27 24 28 27 31 140 4 111 3 116 -16 116
-11 0 -22 -6 -25 -12 -4 -10 -7 -10 -18 0 -20 19 -55 14 -86 -12z m92 -76 c0
-54 0 -55 -31 -58 -27 -3 -33 1 -42 27 -8 22 -8 40 0 62 9 26 15 30 42 27 31
-3 31 -4 31 -58z"/>
<path d="M2245 6777 c-20 -16 -28 -35 -32 -69 -5 -42 -3 -50 25 -78 36 -36 87
-40 123 -11 21 17 22 20 7 26 -9 4 -26 2 -37 -5 -25 -13 -55 0 -71 30 -10 19
-7 20 55 20 l65 0 0 34 c0 67 -82 99 -135 53z m93 -39 c3 -15 -4 -18 -43 -18
-43 0 -45 1 -35 21 14 26 73 24 78 -3z"/>
<path d="M2420 6700 c0 -100 0 -100 25 -100 23 0 24 3 27 78 l3 77 30 0 30 0
3 -77 c3 -75 4 -78 27 -78 23 0 24 3 27 78 l3 77 30 0 30 0 3 -77 c3 -76 3
-78 29 -78 l26 0 -5 80 c-3 58 -10 85 -23 100 -21 23 -62 26 -89 5 -16 -12
-20 -12 -33 1 -17 17 -47 18 -76 3 -16 -9 -22 -9 -25 0 -2 6 -12 11 -23 11
-17 0 -19 -8 -19 -100z"/>
<path d="M2795 6788 c-33 -19 -44 -41 -45 -85 0 -55 7 -71 41 -88 34 -18 60
-19 94 -3 36 16 34 43 -2 33 -52 -14 -93 -1 -93 31 0 11 16 14 65 14 59 0 65
2 65 20 0 68 -69 110 -125 78z m83 -56 c2 -8 -12 -12 -42 -12 -50 0 -58 11
-24 34 19 13 25 14 42 3 11 -8 22 -19 24 -25z"/>
<path d="M2960 6700 c0 -93 1 -100 20 -100 17 0 19 8 22 78 l3 77 35 0 35 0 3
-77 c3 -70 5 -78 22 -78 18 0 20 7 20 80 0 67 -3 83 -20 100 -22 22 -51 26
-81 10 -13 -7 -19 -7 -19 0 0 5 -9 10 -20 10 -19 0 -20 -7 -20 -100z"/>
<path d="M1500 6040 c0 -53 4 -90 10 -90 6 0 10 11 10 23 0 39 13 40 41 5 35
-42 47 -32 14 12 l-24 33 20 25 c28 36 14 41 -21 7 l-30 -29 0 52 c0 29 -4 52
-10 52 -6 0 -10 -37 -10 -90z"/>
<path d="M3030 6101 c0 -24 -3 -28 -23 -24 -32 6 -57 -21 -57 -62 0 -43 22
-65 65 -63 l35 1 0 89 c0 52 -4 88 -10 88 -5 0 -10 -13 -10 -29z m-5 -86 c0
-36 -2 -40 -25 -40 -20 0 -26 6 -28 28 -5 42 5 59 30 55 20 -3 23 -9 23 -43z"/>
<path d="M4710 6101 c0 -24 -3 -28 -23 -24 -32 6 -57 -21 -57 -62 0 -43 22
-65 65 -63 l35 1 0 89 c0 52 -4 88 -10 88 -5 0 -10 -13 -10 -29z m-5 -86 c0
-36 -2 -40 -25 -40 -20 0 -26 6 -28 28 -5 42 5 59 30 55 20 -3 23 -9 23 -43z"/>
<path d="M4960 6040 c0 -53 4 -90 10 -90 6 0 10 37 10 90 0 53 -4 90 -10 90
-6 0 -10 -37 -10 -90z"/>
<path d="M1030 6110 c0 -5 11 -10 25 -10 24 0 25 -2 25 -75 0 -43 4 -75 10
-75 6 0 10 32 10 75 l0 75 30 0 c17 0 30 5 30 10 0 6 -28 10 -65 10 -37 0 -65
-4 -65 -10z"/>
<path d="M3490 6110 c0 -5 5 -10 10 -10 6 0 10 5 10 10 0 6 -4 10 -10 10 -5 0
-10 -4 -10 -10z"/>
<path d="M3760 6110 c0 -5 5 -10 10 -10 6 0 10 5 10 10 0 6 -4 10 -10 10 -5 0
-10 -4 -10 -10z"/>
<path d="M4900 6110 c0 -5 5 -10 10 -10 6 0 10 5 10 10 0 6 -4 10 -10 10 -5 0
-10 -4 -10 -10z"/>
<path d="M3420 6096 c0 -8 -6 -17 -12 -20 -10 -5 -10 -7 0 -12 7 -3 12 -25 12
-55 0 -36 4 -51 15 -56 9 -3 19 -2 23 2 4 4 1 10 -5 12 -8 3 -13 22 -13 48 0
25 5 46 13 49 10 5 10 7 0 12 -7 3 -13 12 -13 20 0 8 -4 14 -10 14 -5 0 -10
-6 -10 -14z"/>
<path d="M1170 6013 c0 -35 4 -63 10 -63 6 0 10 23 10 51 0 42 3 52 20 56 30
8 24 20 -10 20 l-30 0 0 -64z"/>
<path d="M1260 6065 c-10 -12 -6 -13 24 -8 29 4 36 2 36 -11 0 -10 -8 -16 -24
-16 -14 0 -32 -7 -40 -16 -19 -18 -19 -20 -6 -45 8 -14 20 -18 50 -17 l40 1 0
52 c0 28 -5 56 -12 63 -16 16 -53 15 -68 -3z m58 -67 c-3 -25 -34 -36 -52 -18
-8 8 -6 15 8 26 29 21 48 18 44 -8z"/>
<path d="M1386 6058 c-9 -12 -16 -32 -16 -43 0 -31 28 -65 54 -65 23 0 46 17
46 34 0 6 -5 5 -12 -2 -35 -35 -77 1 -64 54 8 29 42 33 62 7 11 -15 13 -16 14
-2 1 41 -59 53 -84 17z"/>
<path d="M1730 6013 c0 -35 4 -63 10 -63 6 0 10 25 10 55 0 52 1 55 25 55 22
0 25 -5 27 -37 2 -56 3 -61 11 -69 4 -4 7 11 7 34 0 56 8 72 36 72 22 0 24 -4
24 -55 0 -32 4 -55 10 -55 7 0 10 22 8 56 -3 62 -20 84 -54 69 -11 -4 -23 -7
-29 -5 -5 2 -27 4 -47 5 l-38 2 0 -64z"/>
<path d="M1952 6068 c-19 -19 -14 -30 7 -17 20 13 51 6 51 -11 0 -5 -11 -10
-24 -10 -14 0 -32 -7 -40 -16 -19 -18 -19 -20 -6 -44 8 -14 20 -19 50 -17 l40
1 0 51 c0 55 -12 75 -45 75 -12 0 -26 -5 -33 -12z m56 -75 c-4 -20 -35 -30
-50 -15 -15 15 0 32 28 32 19 0 25 -5 22 -17z"/>
<path d="M2070 6013 c0 -76 18 -84 22 -10 3 45 6 52 26 55 23 4 23 3 26 -65 0
-17 5 -35 9 -39 4 -5 7 21 5 56 l-3 65 -42 0 -43 1 0 -63z"/>
<path d="M2212 6068 c-19 -19 -14 -30 7 -17 20 13 51 6 51 -11 0 -5 -11 -10
-24 -10 -27 0 -56 -23 -56 -44 0 -22 23 -34 63 -33 l37 1 0 51 c0 55 -12 75
-45 75 -12 0 -26 -5 -33 -12z m53 -74 c0 -22 -32 -31 -49 -14 -8 8 -6 15 9 26
24 18 40 13 40 -12z"/>
<path d="M2335 6057 c-19 -28 -19 -57 1 -86 13 -18 23 -22 45 -17 30 6 35 1
20 -23 -6 -10 -19 -12 -41 -7 -28 5 -31 4 -20 -9 7 -8 23 -15 36 -15 36 0 54
36 54 110 l0 66 -40 1 c-30 2 -43 -3 -55 -20z m70 -42 c0 -36 -3 -40 -27 -43
-30 -4 -44 23 -34 64 5 20 12 25 34 22 24 -3 27 -7 27 -43z"/>
<path d="M2478 6070 c-21 -13 -32 -63 -19 -89 13 -23 43 -35 71 -26 29 9 25
23 -5 17 -25 -4 -55 12 -55 29 0 5 20 9 45 9 49 0 56 10 29 48 -16 23 -39 27
-66 12z m60 -27 c2 -9 -8 -13 -33 -13 -33 0 -36 2 -25 15 15 18 51 16 58 -2z"/>
<path d="M2705 6066 c-17 -12 -16 -14 19 -12 23 0 41 -4 43 -11 3 -8 -4 -13
-17 -13 -32 0 -60 -18 -60 -39 0 -27 20 -39 63 -38 l37 1 0 47 c0 70 -39 99
-85 65z m65 -64 c0 -14 -23 -32 -42 -32 -11 0 -18 7 -18 20 0 16 7 20 30 20
17 0 30 -4 30 -8z"/>
<path d="M2820 6013 c0 -76 18 -85 22 -10 3 48 5 52 28 52 23 0 25 -4 28 -52
4 -69 22 -68 22 1 0 62 -11 75 -62 73 l-38 -1 0 -63z"/>
<path d="M3160 6060 c-37 -37 -14 -110 34 -110 50 0 76 79 38 113 -25 22 -48
21 -72 -3z m65 -45 c0 -36 -3 -40 -27 -43 -30 -4 -44 23 -34 64 5 20 12 25 34
22 24 -3 27 -7 27 -43z"/>
<path d="M3280 5988 c0 -52 4 -88 10 -88 6 0 10 13 10 30 0 27 2 29 28 24 45
-9 74 48 49 96 -10 20 -20 25 -55 26 l-42 1 0 -89z m82 46 c15 -33 0 -59 -33
-59 -19 0 -25 6 -27 28 -5 40 4 57 28 57 12 0 25 -10 32 -26z"/>
<path d="M3490 6015 c0 -37 4 -65 10 -65 6 0 10 28 10 65 0 37 -4 65 -10 65
-6 0 -10 -28 -10 -65z"/>
<path d="M3550 6014 c0 -77 18 -86 22 -12 2 42 7 54 22 56 25 5 36 -14 36 -65
0 -61 18 -53 22 10 3 45 6 52 26 55 21 3 22 0 22 -52 0 -31 5 -56 10 -56 6 0
10 27 10 60 0 55 -2 60 -25 66 -14 3 -31 1 -39 -5 -7 -6 -16 -8 -20 -4 -3 4
-24 8 -46 9 l-40 2 0 -64z"/>
<path d="M3760 6015 c0 -37 4 -65 10 -65 6 0 10 28 10 65 0 37 -4 65 -10 65
-6 0 -10 -28 -10 -65z"/>
<path d="M3810 6070 c0 -5 16 -10 35 -10 l36 0 -36 -46 c-19 -26 -35 -51 -35
-55 0 -5 23 -9 50 -9 57 0 68 17 14 22 l-36 3 36 47 c20 26 36 49 36 52 0 3
-22 6 -50 6 -27 0 -50 -4 -50 -10z"/>
<path d="M3947 6062 c-21 -23 -22 -76 -1 -96 19 -20 58 -21 73 -2 9 11 4 13
-26 12 -28 -1 -38 3 -41 17 -3 14 4 17 37 17 34 0 41 3 41 19 0 24 -26 51 -49
51 -10 0 -25 -8 -34 -18z m61 -19 c2 -9 -7 -13 -27 -13 -30 0 -39 9 -24 24 11
10 46 3 51 -11z"/>
<path d="M4126 6015 c24 -65 24 -65 4 -85 -24 -24 -25 -30 -5 -30 18 0 31 23
61 112 14 42 19 68 12 66 -7 -3 -18 -24 -27 -49 l-15 -44 -15 48 c-8 26 -20
47 -27 47 -8 0 -4 -21 12 -65z"/>
<path d="M4240 6060 c-52 -52 15 -142 72 -97 26 19 27 76 2 101 -21 22 -50 20
-74 -4z m70 -19 c7 -13 7 -28 0 -45 -16 -43 -70 -28 -70 19 0 43 50 62 70 26z"/>
<path d="M4360 6034 c0 -67 12 -83 60 -81 l40 1 0 63 c0 76 -18 84 -22 11 -3
-49 -5 -53 -28 -53 -23 0 -25 4 -28 53 -4 64 -22 70 -22 6z"/>
<path d="M4500 6013 c0 -35 4 -63 10 -63 6 0 10 23 10 51 0 42 3 52 20 56 30
8 24 22 -10 21 l-30 -1 0 -64z"/>
<path d="M4782 6068 c-7 -7 -12 -16 -12 -22 0 -6 5 -5 12 2 17 17 58 15 58 -3
0 -9 -9 -15 -23 -15 -30 0 -60 -32 -51 -54 6 -16 29 -24 74 -24 24 0 25 3 21
52 -1 28 -8 57 -13 64 -13 15 -50 16 -66 0z m56 -75 c-4 -20 -35 -30 -50 -15
-15 15 0 32 28 32 19 0 25 -5 22 -17z"/>
<path d="M4900 6015 c0 -37 4 -65 10 -65 6 0 10 28 10 65 0 37 -4 65 -10 65
-6 0 -10 -28 -10 -65z"/>
<path d="M5000 6078 c0 -1 9 -27 20 -56 25 -64 25 -88 3 -101 -10 -5 -15 -13
-11 -17 18 -18 61 59 84 151 11 45 -12 26 -27 -22 l-15 -48 -15 44 c-9 25 -21
47 -27 49 -7 2 -12 2 -12 0z"/>
<path d="M1621 5956 c-13 -33 -9 -43 8 -22 7 8 11 23 8 33 -3 14 -6 12 -16
-11z"/>
<path d="M2587 5957 c-11 -29 -9 -43 4 -30 6 6 9 19 7 29 -3 18 -4 18 -11 1z"/>
<path d="M12538 5955 c-2 -3 -3 -19 0 -36 3 -23 12 -33 33 -41 15 -5 35 -20
44 -34 10 -16 25 -24 43 -24 64 0 84 56 26 75 -17 6 -37 15 -45 22 -8 6 -28
15 -44 19 -17 4 -35 11 -41 15 -6 5 -13 7 -16 4z"/>
<path d="M2420 5680 c0 -96 17 -125 22 -37 3 45 6 52 26 55 19 3 22 -1 23 -30
1 -18 5 -44 9 -58 6 -18 8 -6 7 40 l-2 65 -32 0 c-29 0 -33 3 -33 27 0 16 -4
28 -10 28 -6 0 -10 -37 -10 -90z"/>
<path d="M2280 5750 c0 -5 5 -10 10 -10 6 0 10 5 10 10 0 6 -4 10 -10 10 -5 0
-10 -4 -10 -10z"/>
<path d="M12805 5751 c-3 -6 -1 -11 4 -11 6 0 11 -8 11 -17 0 -13 3 -14 11 -6
6 6 18 9 26 6 11 -4 14 0 11 13 -4 21 -52 32 -63 15z"/>
<path d="M2350 5735 c0 -8 -8 -15 -17 -15 -17 -1 -17 -1 0 -14 12 -9 17 -27
17 -60 0 -33 5 -48 15 -53 9 -3 19 -2 23 2 4 4 1 10 -5 12 -8 3 -13 22 -13 48
0 25 5 46 13 49 10 5 10 7 0 12 -7 3 -13 12 -13 20 0 8 -4 14 -10 14 -5 0 -10
-7 -10 -15z"/>
<path d="M1050 5700 c-48 -48 1 -128 64 -104 25 10 19 22 -9 16 -25 -4 -55 12
-55 29 0 5 20 9 45 9 49 0 56 10 29 48 -19 27 -48 28 -74 2z m68 -17 c2 -9 -8
-13 -33 -13 -33 0 -36 2 -25 15 15 18 51 16 58 -2z"/>
<path d="M1162 5713 c2 -5 10 -20 17 -35 12 -24 11 -30 -8 -57 -16 -22 -18
-31 -9 -31 7 0 20 11 29 25 l15 26 14 -26 c7 -14 17 -25 22 -25 12 0 10 8 -9
40 -15 27 -15 30 1 55 22 34 11 48 -14 16 l-18 -24 -13 21 c-13 20 -36 32 -27
15z"/>
<path d="M1280 5628 c0 -52 4 -88 10 -88 6 0 10 13 10 30 0 27 2 29 28 24 45
-9 74 48 49 96 -10 20 -20 25 -55 26 l-42 1 0 -89z m81 51 c16 -31 -4 -71 -34
-67 -39 5 -37 88 2 88 11 0 25 -10 32 -21z"/>
<path d="M1430 5700 c-50 -50 -1 -129 64 -104 26 10 18 25 -9 18 -25 -6 -55 9
-55 27 0 5 20 9 45 9 49 0 56 10 29 48 -19 27 -48 28 -74 2z m64 -15 c4 -12
-3 -15 -29 -15 -26 0 -33 3 -29 15 4 8 16 15 29 15 13 0 25 -7 29 -15z"/>
<path d="M1540 5653 c0 -76 18 -85 22 -10 3 48 5 52 28 52 23 0 25 -4 28 -52
4 -69 22 -68 22 1 0 62 -11 75 -62 73 l-38 -1 0 -63z"/>
<path d="M1685 5704 c-18 -19 -16 -34 8 -46 9 -4 25 -12 35 -17 25 -12 21 -26
-10 -29 -16 -2 -28 1 -28 7 0 6 -4 11 -10 11 -18 0 -11 -19 11 -30 42 -23 95
13 68 46 -5 7 -24 16 -40 19 -16 4 -29 11 -29 16 0 16 32 23 51 10 15 -9 19
-8 19 3 0 28 -50 34 -75 10z"/>
<path d="M1810 5700 c-48 -48 1 -128 64 -104 26 10 18 25 -9 18 -25 -6 -55 9
-55 27 0 5 20 9 45 9 49 0 56 10 29 48 -19 27 -48 28 -74 2z m64 -15 c4 -12
-3 -15 -29 -15 -26 0 -33 3 -29 15 4 8 16 15 29 15 13 0 25 -7 29 -15z"/>
<path d="M1929 5704 c-16 -19 -1 -47 27 -53 25 -4 45 -21 38 -32 -8 -14 -52
-11 -57 4 -2 6 -8 9 -12 5 -12 -12 15 -38 39 -38 57 1 64 58 9 74 -18 5 -33
15 -33 22 0 18 47 18 53 2 2 -7 8 -10 12 -6 12 12 -15 38 -40 38 -12 0 -28 -7
-36 -16z"/>
<path d="M2109 5658 c17 -60 41 -89 41 -51 1 10 7 32 14 48 l13 30 15 -45 c8
-25 18 -45 23 -45 4 0 16 28 26 63 9 34 14 62 9 62 -5 0 -15 -21 -22 -47 l-14
-48 -15 43 c-8 23 -18 43 -23 45 -5 1 -16 -18 -24 -43 l-15 -44 -14 47 c-7 26
-18 47 -23 47 -4 0 -1 -28 9 -62z"/>
<path d="M2280 5655 c0 -37 4 -65 10 -65 6 0 10 28 10 65 0 37 -4 65 -10 65
-6 0 -10 -28 -10 -65z"/>
<path d="M2616 5698 c-41 -58 6 -126 68 -102 26 10 18 25 -9 18 -25 -6 -55 9
-55 27 0 5 20 9 45 9 49 0 56 10 29 48 -8 12 -26 22 -39 22 -13 0 -31 -10 -39
-22z m68 -13 c4 -12 -3 -15 -29 -15 -26 0 -33 3 -29 15 4 8 16 15 29 15 13 0
25 -7 29 -15z"/>
<path d="M2744 5706 c-24 -18 -13 -31 14 -15 21 13 52 7 52 -11 0 -5 -9 -10
-21 -10 -31 0 -59 -18 -59 -39 0 -27 20 -39 63 -38 37 1 37 1 37 45 0 24 -5
52 -10 63 -13 22 -48 25 -76 5z m64 -73 c-2 -12 -12 -18 -28 -18 -16 0 -26 6
-28 18 -3 13 3 17 28 17 25 0 31 -4 28 -17z"/>
<path d="M2874 5706 c-15 -12 -17 -18 -8 -33 6 -10 20 -20 30 -22 25 -4 45
-21 38 -32 -8 -14 -52 -11 -57 4 -2 6 -8 9 -12 5 -13 -12 15 -38 41 -38 22 0
54 23 54 39 0 13 -23 29 -53 36 -15 4 -26 12 -24 19 5 14 47 21 47 7 0 -6 5
-11 10 -11 16 0 11 27 -6 34 -24 9 -38 7 -60 -8z"/>
<path d="M3000 5700 c-50 -50 -1 -129 64 -104 26 10 18 25 -9 18 -25 -6 -55 9
-55 27 0 5 20 9 45 9 49 0 56 10 29 48 -19 27 -48 28 -74 2z m64 -15 c4 -12
-3 -15 -29 -15 -26 0 -33 3 -29 15 4 8 16 15 29 15 13 0 25 -7 29 -15z"/>
<path d="M3110 5600 c0 -5 4 -10 9 -10 6 0 13 5 16 10 3 6 -1 10 -9 10 -9 0
-16 -4 -16 -10z"/>
<path d="M1648 5103 c199 -2 525 -2 725 0 199 1 36 2 -363 2 -399 0 -562 -1
-362 -2z"/>
<path d="M1214 4830 c0 -113 2 -159 3 -102 2 56 2 148 0 205 -1 56 -3 10 -3
-103z"/>
<path d="M2804 4830 c0 -113 2 -159 3 -102 2 56 2 148 0 205 -1 56 -3 10 -3
-103z"/>
<path d="M2570 4899 c0 -26 -3 -29 -21 -24 -29 10 -59 -21 -59 -60 0 -40 22
-60 67 -60 l33 0 0 88 c0 51 -4 87 -10 87 -5 0 -10 -14 -10 -31z m0 -84 c0
-41 -2 -45 -25 -45 -17 0 -29 8 -36 24 -15 32 4 66 36 66 23 0 25 -4 25 -45z"/>
<path d="M1450 4900 c-20 -20 -28 -93 -12 -116 14 -22 53 -35 83 -29 25 6 29
11 29 41 0 30 -3 34 -25 34 -14 0 -25 -4 -25 -10 0 -5 9 -10 21 -10 14 0 19
-5 17 -17 -4 -24 -60 -30 -78 -8 -18 21 -18 78 -1 99 17 20 55 21 71 1 7 -9
15 -13 18 -10 3 3 -3 14 -13 25 -23 26 -59 26 -85 0z"/>
<path d="M1870 4900 c-27 -27 -16 -48 37 -71 32 -14 44 -24 41 -36 -5 -25 -58
-30 -75 -7 -7 10 -16 14 -20 10 -11 -10 35 -46 58 -46 10 0 28 9 40 21 18 18
19 23 6 42 -7 11 -29 26 -48 32 -23 8 -34 18 -34 31 0 26 54 33 72 8 7 -10 15
-15 19 -12 10 10 -35 48 -56 48 -11 0 -29 -9 -40 -20z"/>
<path d="M1731 4898 c0 -9 -9 -19 -18 -21 -16 -4 -16 -5 -1 -6 14 -1 18 -13
20 -58 2 -46 7 -59 21 -61 9 -2 17 1 17 7 0 6 -7 11 -15 11 -23 0 -21 86 3 99
15 9 15 10 0 11 -9 0 -19 8 -21 18 -4 15 -5 15 -6 0z"/>
<path d="M2000 4896 c0 -8 -6 -17 -12 -19 -10 -4 -10 -6 0 -6 8 -1 12 -18 12
-50 0 -47 21 -84 38 -66 4 4 1 10 -5 12 -8 3 -13 23 -13 53 0 29 5 50 13 53
10 4 10 6 0 6 -7 1 -13 8 -13 16 0 8 -4 15 -10 15 -5 0 -10 -6 -10 -14z"/>
<path d="M2301 4898 c0 -9 -7 -19 -13 -21 -10 -4 -10 -6 0 -6 8 -1 12 -19 12
-56 0 -41 4 -57 15 -62 23 -8 33 7 12 18 -24 14 -24 84 1 98 15 9 15 10 0 11
-9 0 -19 8 -21 18 -4 15 -5 15 -6 0z"/>
<path d="M12230 4899 c0 -5 5 -7 10 -4 6 3 10 8 10 11 0 2 -4 4 -10 4 -5 0
-10 -5 -10 -11z"/>
<path d="M12311 4894 c0 -11 3 -14 6 -6 3 7 2 16 -1 19 -3 4 -6 -2 -5 -13z"/>
<path d="M1612 4864 c-30 -21 -30 -77 0 -98 28 -20 39 -20 64 -1 17 13 16 14
-18 8 -30 -4 -38 -2 -47 16 -11 20 -9 21 34 21 38 0 45 3 45 19 0 22 -25 51
-43 51 -7 0 -23 -7 -35 -16z m58 -19 c0 -10 -10 -15 -30 -15 -29 0 -38 9 -23
23 13 13 53 7 53 -8z"/>
<path d="M2093 4873 c-23 -9 -14 -18 19 -18 17 0 33 -6 35 -12 3 -8 -4 -13
-17 -13 -32 0 -60 -18 -60 -40 0 -24 16 -34 62 -36 l38 -2 0 42 c0 65 -32 98
-77 79z m55 -75 c-4 -31 -58 -40 -58 -9 0 20 12 29 43 30 14 1 18 -5 15 -21z"/>
<path d="M2200 4813 c0 -35 4 -63 10 -63 6 0 10 23 10 51 0 42 3 52 20 56 30
8 24 20 -10 20 l-30 0 0 -64z"/>
<path d="M2394 4873 c-58 -40 -25 -135 42 -119 32 8 31 25 -1 18 -25 -4 -55
12 -55 29 0 5 18 9 39 9 47 0 54 8 38 41 -13 24 -43 35 -63 22z m54 -30 c2 -9
-8 -13 -32 -13 -34 0 -44 8 -29 24 11 11 56 2 61 -11z"/>
<path d="M11896 4565 c7 -18 20 -18 59 0 l30 13 -47 1 c-38 1 -46 -2 -42 -14z"/>
<path d="M12112 4545 c9 -20 16 -23 37 -18 25 6 41 19 41 36 0 12 -45 8 -58
-5 -9 -9 -12 -9 -12 0 0 7 -4 12 -10 12 -6 0 -5 -10 2 -25z"/>
<path d="M1648 4553 c199 -2 525 -2 725 0 199 1 36 2 -363 2 -399 0 -562 -1
-362 -2z"/>
<path d="M15431 4513 c13 -16 44 -49 68 -76 l45 -47 -69 -70 c-38 -38 -66 -73
-62 -77 4 -4 42 28 85 70 l77 77 -75 75 c-71 72 -119 105 -69 48z"/>
<path d="M11551 4354 c0 -11 3 -14 6 -6 3 7 2 16 -1 19 -3 4 -6 -2 -5 -13z"/>
<path d="M11300 4215 c-11 -13 -10 -14 3 -10 18 8 32 -11 16 -21 -8 -5 -9 -3
-4 7 8 12 6 12 -8 0 -15 -12 -18 -10 -26 10 -9 23 -10 23 -10 2 -1 -30 33 -39
66 -18 24 16 28 16 55 1 27 -16 28 -16 35 1 3 10 8 21 9 24 2 4 -19 5 -46 4
-28 -2 -53 1 -56 6 -8 13 -20 11 -34 -6z"/>
<path d="M11640 4157 c-19 -5 -67 -12 -106 -14 -55 -3 -77 -10 -100 -28 l-29
-23 29 -11 c25 -10 28 -15 22 -45 -8 -40 2 -46 71 -46 36 0 51 6 73 28 58 56
67 62 98 62 17 0 43 5 57 12 68 31 -34 89 -115 65z"/>
<path d="M12168 3834 c-2 -11 -1 -84 3 -164 5 -80 9 -226 9 -325 0 -99 0 -201
1 -226 l0 -46 136 -6 c75 -4 169 -7 210 -7 40 0 73 -3 73 -7 0 -5 -31 -7 -70
-5 -75 4 -126 -11 -133 -38 -6 -23 -135 -12 -148 13 -6 10 -14 15 -20 12 -5
-4 -9 -2 -9 4 0 5 6 12 13 14 6 3 -7 6 -30 6 -36 1 -40 -1 -36 -18 3 -11 15
-22 27 -24 21 -4 21 -4 0 -11 -19 -7 -20 -14 -17 -94 5 -116 9 -132 33 -132
11 0 20 -4 20 -10 0 -5 -5 -9 -11 -7 -6 1 -12 -8 -14 -20 -1 -13 -4 -25 -7
-28 -3 -4 -2 -21 2 -40 6 -27 4 -37 -11 -51 -21 -19 -24 -58 -9 -99 8 -20 14
-25 23 -17 8 7 18 7 27 2 8 -6 11 -10 5 -10 -5 0 -5 -4 2 -8 10 -6 9 -14 -1
-34 -12 -23 -12 -27 0 -32 8 -3 14 -15 14 -26 0 -11 6 -20 13 -20 9 0 8 -3 -2
-9 -18 -12 -5 -17 59 -26 30 -4 58 -9 62 -11 14 -9 -6 -44 -31 -53 -22 -8 -23
-10 -5 -10 12 -1 31 -10 44 -21 l23 -20 -25 0 c-14 0 -60 7 -102 16 -42 8 -82
13 -89 11 -6 -3 4 -9 23 -13 33 -7 34 -8 10 -15 -23 -6 -24 -7 -5 -14 11 -4
35 -14 52 -22 18 -7 39 -13 45 -12 31 4 84 -2 98 -11 13 -9 13 -11 0 -20 -8
-5 -26 -10 -40 -11 -14 -1 0 -5 30 -9 85 -12 312 -12 305 0 -3 6 -16 10 -28
11 -12 0 -16 3 -9 6 21 8 13 23 -12 23 -38 0 -42 20 -4 21 18 1 80 5 138 9
l105 7 -130 1 c-98 0 -140 5 -170 18 -35 15 -38 18 -20 25 11 4 34 8 52 8 41
1 55 21 15 21 -16 0 -44 3 -61 6 l-32 7 28 15 c21 12 67 16 180 19 93 2 162 9
176 16 19 10 -10 12 -152 9 -97 -2 -172 0 -168 4 4 4 20 10 35 12 14 2 31 7
37 12 5 4 42 11 80 14 124 12 165 18 165 24 0 4 -53 4 -117 1 -138 -7 -193 -2
-193 17 0 8 8 14 18 15 11 1 9 4 -8 9 -22 7 -21 8 13 9 20 1 37 5 37 10 0 5
-13 9 -29 9 -34 -1 -51 8 -51 27 0 22 15 26 108 34 l87 8 -88 2 c-62 1 -86 4
-81 12 3 6 0 15 -7 20 -23 14 -5 19 97 27 l99 7 -70 5 c-44 3 -70 9 -70 17 0
6 -3 15 -7 19 -5 4 -8 -2 -8 -14 0 -28 -17 -28 -40 1 -18 21 -18 22 3 34 20
11 18 12 -20 13 -47 0 -93 15 -93 29 0 5 9 7 20 4 11 -3 20 -1 20 4 0 10 97
38 120 35 11 -2 9 2 -4 13 -11 8 -26 15 -33 15 -7 0 -13 4 -13 9 0 5 -8 12
-17 14 -10 3 -4 5 14 6 40 1 52 19 16 23 -20 2 -29 9 -31 25 -2 12 -11 24 -20
26 -9 3 8 5 39 6 31 0 58 4 62 7 12 12 -5 32 -24 27 -10 -3 -19 0 -19 6 0 6 8
11 18 12 11 1 9 4 -8 9 -25 8 -25 8 -2 9 20 1 23 6 20 33 -2 27 -8 34 -33 39
-16 4 49 7 145 8 107 1 170 5 161 10 -8 5 -24 7 -37 5 -27 -5 -43 14 -23 27 9
5 -20 9 -73 9 -52 0 -88 4 -88 10 0 6 41 10 102 10 56 0 99 2 96 5 -3 3 -58 6
-122 6 -75 0 -114 4 -110 10 9 15 -24 59 -46 59 -10 0 -22 5 -26 12 -5 8 0 9
15 5 19 -5 22 -2 18 14 -4 15 3 21 34 31 27 8 36 14 27 20 -10 6 -8 8 5 8 9 0
17 -4 17 -10 0 -6 37 -10 93 -9 75 1 87 3 65 12 -14 6 -32 20 -38 33 -7 12
-20 23 -29 23 -9 0 -36 2 -61 5 -25 2 -55 4 -67 5 -13 1 -23 6 -23 12 0 5 5 7
10 4 6 -3 10 3 10 14 0 21 25 27 135 34 35 2 27 4 -27 5 -85 2 -108 8 -108 27
0 8 -8 15 -17 18 -12 2 -7 7 17 14 l35 11 -35 2 c-19 1 -39 2 -44 1 -9 -2 -26
18 -26 32 0 4 13 6 28 5 15 -1 34 2 42 7 8 5 68 12 134 15 l121 7 -132 1 -132
2 4 35 c4 28 1 35 -13 36 -11 0 -12 2 -4 6 19 7 -5 33 -32 34 -15 0 -12 4 14
14 19 7 80 15 135 16 l100 3 -99 5 c-73 5 -101 10 -104 20 -4 10 0 12 14 6 29
-11 87 -14 109 -4 18 9 18 9 -2 5 -13 -2 -25 -1 -28 4 -3 4 -21 6 -41 3 -25
-3 -34 -1 -30 6 5 7 46 11 108 11 56 0 99 2 97 4 -6 6 -106 14 -177 15 -29 1
-51 5 -48 9 3 5 -3 15 -13 24 -15 12 -51 16 -192 17 -96 1 -206 4 -245 7 -64
6 -71 5 -76 -12z m228 -305 c9 -15 -11 -33 -30 -26 -9 4 -13 13 -10 22 7 17
30 20 40 4z m268 -144 c-6 -16 -24 -21 -24 -7 0 11 11 22 21 22 5 0 6 -7 3
-15z m133 -61 c-3 -3 -12 -4 -19 -1 -8 3 -5 6 6 6 11 1 17 -2 13 -5z m16 -231
c-13 -2 -23 -9 -23 -14 0 -15 -53 -7 -58 9 -3 9 11 12 50 11 29 -1 43 -4 31
-6z m-459 -188 c11 -8 16 -15 10 -15 -5 0 -18 7 -28 15 -11 8 -16 15 -10 15 5
0 18 -7 28 -15z m44 -169 c-3 -18 -10 -21 -56 -21 -53 0 -67 7 -74 34 -4 20
47 29 95 18 31 -8 37 -14 35 -31z m10 -219 c5 -26 -48 -35 -65 -12 -17 25 -17
33 5 37 25 6 57 -7 60 -25z m-27 -57 c20 -11 25 -35 9 -45 -8 -5 -41 11 -70
33 -5 4 21 22 33 22 5 0 17 -5 28 -10z m17 -83 c2 -10 -3 -17 -12 -17 -10 0
-16 9 -16 21 0 24 23 21 28 -4z m-48 3 c0 -5 -7 -10 -15 -10 -8 0 -15 5 -15
10 0 6 7 10 15 10 8 0 15 -4 15 -10z"/>
<path d="M9391 3704 c-6 -14 -25 -33 -41 -42 -19 -11 -28 -22 -24 -32 3 -8 2
-11 -3 -7 -9 9 -42 -112 -42 -157 -1 -23 2 -27 17 -21 16 6 64 14 105 18 9 1
17 5 17 10 0 4 3 6 8 4 9 -6 33 19 25 26 -3 4 2 13 10 22 14 14 16 13 19 -10
l3 -25 18 31 c14 26 15 30 2 25 -8 -3 -21 -3 -29 0 -17 7 -9 44 9 44 21 0 28
36 15 74 -10 32 -13 34 -46 29 -27 -4 -34 -2 -34 10 0 27 -17 28 -29 1z m46
-156 c-3 -8 -6 -5 -6 6 -1 11 2 17 5 13 3 -3 4 -12 1 -19z"/>
<path d="M9697 3662 c-20 -22 -22 -39 -3 -23 16 13 26 -4 26 -43 0 -26 18 -46
41 -46 9 0 38 23 63 52 42 47 45 54 30 68 -14 13 -17 13 -34 -7 -22 -28 -25
-28 -57 -3 -32 25 -45 25 -66 2z m33 -2 c0 -5 -2 -10 -4 -10 -3 0 -8 5 -11 10
-3 6 -1 10 4 10 6 0 11 -4 11 -10z"/>
<path d="M12758 3603 c7 -3 16 -2 19 1 4 3 -2 6 -13 5 -11 0 -14 -3 -6 -6z"/>
<path d="M12823 3603 c9 -2 23 -2 30 0 6 3 -1 5 -18 5 -16 0 -22 -2 -12 -5z"/>
<path d="M9630 3596 c0 -2 7 -7 16 -10 8 -3 12 -2 9 4 -6 10 -25 14 -25 6z"/>
<path d="M12913 3423 c9 -2 23 -2 30 0 6 3 -1 5 -18 5 -16 0 -22 -2 -12 -5z"/>
<path d="M12900 3346 c0 -9 39 -13 51 -5 10 6 4 9 -18 9 -18 0 -33 -2 -33 -4z"/>
<path d="M13930 3285 c0 -8 7 -15 16 -15 14 0 14 3 4 15 -7 8 -14 15 -16 15
-2 0 -4 -7 -4 -15z"/>
<path d="M13937 3239 c7 -7 15 -10 18 -7 3 3 -2 9 -12 12 -14 6 -15 5 -6 -5z"/>
<path d="M13908 3222 c11 -7 11 -10 -2 -15 -23 -9 -20 -26 9 -39 23 -10 24
-13 19 -92 -6 -105 1 -136 27 -129 10 3 20 13 20 22 3 35 -4 97 -13 121 -20
48 -16 69 14 75 31 7 46 23 26 29 -13 3 -53 16 -93 31 -14 5 -16 4 -7 -3z"/>
<path d="M12760 3173 c8 -2 22 -7 30 -10 8 -3 30 -7 48 -8 27 -3 31 -1 21 11
-7 9 -30 14 -63 13 -28 0 -44 -3 -36 -6z"/>
<path d="M15541 3060 c-1 -8 -4 -41 -8 -72 -3 -37 -2 -58 5 -58 15 0 23 69 13
110 -5 19 -10 28 -10 20z"/>
<path d="M13895 3041 c-3 -5 -1 -12 5 -16 5 -3 10 1 10 9 0 18 -6 21 -15 7z"/>
<path d="M12790 3008 c0 -4 16 -8 36 -8 21 0 33 4 29 10 -7 12 -65 10 -65 -2z"/>
<path d="M13897 2993 c-8 -16 5 -143 15 -137 5 3 6 29 2 62 -4 32 -7 63 -7 70
0 14 -4 16 -10 5z"/>
<path d="M13871 2964 c0 -11 3 -14 6 -6 3 7 2 16 -1 19 -3 4 -6 -2 -5 -13z"/>
<path d="M12775 2960 c4 -6 11 -8 16 -5 14 9 11 15 -7 15 -8 0 -12 -5 -9 -10z"/>
<path d="M8510 2925 c0 -19 5 -25 23 -25 21 1 21 1 4 14 -13 10 -14 15 -6 18
9 3 7 6 -4 11 -13 5 -17 1 -17 -18z"/>
<path d="M8502 2830 c0 -14 2 -19 5 -12 2 6 2 18 0 25 -3 6 -5 1 -5 -13z"/>
<path d="M13922 2775 c0 -16 2 -22 5 -12 2 9 2 23 0 30 -3 6 -5 -1 -5 -18z"/>
<path d="M7530 2731 c0 -7 -6 -11 -15 -8 -8 4 -17 1 -21 -5 -5 -7 -2 -8 6 -3
9 5 11 4 6 -4 -4 -6 -12 -9 -17 -6 -5 4 -22 -3 -37 -14 -47 -33 -78 -36 -93
-10 -12 23 -12 22 -23 -11 -8 -26 -19 -36 -45 -42 -31 -9 -33 -11 -26 -45 4
-20 2 -33 -3 -29 -5 3 -12 -23 -15 -57 -7 -63 -9 -65 -73 -116 -5 -4 -24 -11
-42 -15 -18 -3 -45 -9 -60 -12 -19 -4 -34 -1 -43 9 -8 7 -25 20 -38 26 -21 12
-26 10 -51 -19 -16 -19 -26 -40 -22 -48 3 -9 1 -13 -5 -9 -6 4 -20 -22 -33
-66 -13 -39 -28 -78 -33 -84 -15 -20 -46 -15 -94 13 -44 25 -44 25 -50 5 -7
-27 -40 -27 -69 0 -27 25 -53 15 -81 -31 -15 -26 -22 -30 -47 -24 -23 5 -33 2
-46 -16 -25 -33 -44 -20 -71 49 -22 56 -26 61 -54 61 -17 0 -36 5 -42 11 -7 7
-15 2 -26 -15 -21 -31 -102 -80 -122 -73 -8 4 -23 23 -33 44 l-20 37 -18 -57
c-16 -51 -17 -69 -6 -175 6 -64 16 -134 22 -156 10 -34 14 -37 38 -32 33 7
289 29 317 27 105 -7 166 -7 171 0 7 12 95 11 113 0 8 -5 24 -3 39 5 19 10 69
13 177 13 82 -1 161 2 175 6 14 3 38 2 52 -4 15 -5 39 -6 55 -2 22 6 27 13 25
32 -1 13 -6 26 -11 29 -13 8 -23 80 -11 80 5 0 10 20 10 45 0 27 5 45 11 45 8
0 8 4 -1 14 -6 8 -10 30 -8 48 3 33 3 33 -47 39 -27 3 -42 7 -32 7 9 1 17 7
17 12 0 6 -6 9 -12 8 -9 -2 -14 11 -15 37 -1 22 0 34 3 28 3 -7 14 -13 25 -13
16 0 23 -14 21 -40 0 -3 8 -7 19 -7 16 -2 18 1 9 12 -8 10 -8 14 1 17 7 2 12
24 13 49 l1 44 38 -4 c20 -1 37 -7 37 -12 0 -5 4 -9 10 -9 5 0 7 7 4 15 -8 21
23 30 57 18 16 -7 29 -7 29 -2 0 5 10 8 23 8 18 -1 18 -2 4 -6 -18 -5 -18 -5
0 -19 21 -16 47 -19 38 -4 -4 6 6 10 22 10 20 0 24 3 14 9 -8 5 -21 6 -30 3
-13 -5 -13 -3 2 12 14 14 15 21 6 32 -9 11 -9 14 0 14 7 0 11 8 10 18 -4 39
-1 41 44 27 23 -6 65 -15 92 -18 49 -6 49 -6 23 9 -31 16 -32 18 -19 42 11 21
-7 57 -28 57 -8 0 -16 7 -18 15 -4 13 -3 13 6 0 16 -22 29 2 22 43 l-5 32 -5
-27 c-5 -22 -9 -25 -21 -17 -11 8 -12 12 -2 16 20 8 14 20 -15 28 -21 5 -24 8
-13 15 9 6 19 5 24 0 17 -17 28 -11 24 12 -2 16 -10 23 -28 23 -63 3 -94 7
-82 12 6 2 10 9 6 14 -7 13 10 11 23 -2 17 -17 24 6 8 27 -10 13 -14 14 -15 5z
m10 -81 c0 -5 -4 -10 -10 -10 -5 0 -10 5 -10 10 0 6 5 10 10 10 6 0 10 -4 10
-10z m40 -49 c0 -6 -4 -13 -10 -16 -5 -3 -10 1 -10 9 0 9 5 16 10 16 6 0 10
-4 10 -9z m37 -137 c-3 -3 -12 -4 -19 -1 -8 3 -5 6 6 6 11 1 17 -2 13 -5z
m-697 -184 c0 -5 -2 -10 -4 -10 -3 0 -8 5 -11 10 -3 6 -1 10 4 10 6 0 11 -4
11 -10z"/>
<path d="M15530 2718 c0 -4 14 -8 30 -8 17 0 30 2 30 4 0 2 -13 6 -30 8 -16 3
-30 1 -30 -4z"/>
<path d="M12850 2638 c0 -10 14 -15 48 -16 30 -2 42 1 33 7 -7 5 -22 6 -32 4
-11 -3 -26 0 -34 7 -12 10 -15 10 -15 -2z"/>
<path d="M15534 2610 c4 -51 13 -61 21 -24 3 16 10 37 16 47 8 14 5 17 -16 17
-23 0 -25 -3 -21 -40z"/>
<path d="M13943 2585 c0 -27 2 -38 4 -22 2 15 2 37 0 50 -2 12 -4 0 -4 -28z"/>
<path d="M13960 2562 c0 -11 -3 -34 -6 -51 -5 -21 -3 -31 6 -31 7 0 10 7 6 15
-3 8 -1 15 5 15 6 0 7 5 4 10 -4 6 -2 17 4 24 8 10 7 17 -4 26 -13 10 -15 9
-15 -8z"/>
<path d="M13895 2454 c-4 -29 -3 -50 4 -57 8 -8 11 5 11 46 0 31 -2 57 -4 57
-2 0 -7 -21 -11 -46z"/>
<path d="M7670 2470 c0 -5 5 -10 11 -10 5 0 7 5 4 10 -3 6 -8 10 -11 10 -2 0
-4 -4 -4 -10z"/>
<path d="M13958 2463 c7 -3 16 -2 19 1 4 3 -2 6 -13 5 -11 0 -14 -3 -6 -6z"/>
<path d="M7867 2449 c7 -7 15 -10 18 -7 3 3 -2 9 -12 12 -14 6 -15 5 -6 -5z"/>
<path d="M7585 2400 c3 -5 16 -10 28 -10 18 0 19 2 7 10 -20 13 -43 13 -35 0z"/>
<path d="M7795 2380 c3 -5 10 -10 16 -10 5 0 9 5 9 10 0 6 -7 10 -16 10 -8 0
-12 -4 -9 -10z"/>
<path d="M13909 2333 c-1 -16 0 -32 1 -38 2 -5 3 -17 2 -26 -1 -19 52 -34 75
-21 12 7 12 10 -1 21 -9 8 -16 20 -16 27 0 8 -7 14 -15 14 -9 0 -20 11 -25 25
-12 33 -20 32 -21 -2z"/>
<path d="M12265 2320 c4 -6 11 -8 16 -5 14 9 11 15 -7 15 -8 0 -12 -5 -9 -10z"/>
<path d="M7290 2290 c0 -5 7 -10 15 -10 8 0 15 5 15 10 0 6 -7 10 -15 10 -8 0
-15 -4 -15 -10z"/>
<path d="M12893 2283 c9 -2 25 -2 35 0 9 3 1 5 -18 5 -19 0 -27 -2 -17 -5z"/>
<path d="M12737 2273 c18 -2 50 -2 70 0 21 2 7 4 -32 4 -38 0 -55 -2 -38 -4z"/>
<path d="M9370 2248 c0 -39 23 -71 52 -74 15 -1 30 2 34 7 3 5 9 7 14 4 5 -3
12 0 16 6 4 8 3 9 -4 5 -16 -10 -15 -1 3 34 14 26 13 29 -3 28 -9 -1 -38 2
-64 6 -46 7 -48 6 -48 -16z"/>
<path d="M9515 2250 c-3 -5 -1 -10 4 -10 6 0 11 5 11 10 0 6 -2 10 -4 10 -3 0
-8 -4 -11 -10z"/>
<path d="M13870 2233 c0 -4 9 -14 21 -21 16 -10 19 -19 14 -40 -6 -26 -6 -26
10 -7 16 19 16 19 10 -9 -14 -63 -14 -88 -1 -43 21 70 26 69 19 -5 -6 -65 6
-201 15 -163 2 11 8 22 13 25 4 3 8 21 7 40 0 19 -1 70 -1 113 0 42 -4 77 -9
77 -5 0 -6 5 -3 10 3 6 -2 13 -11 17 -10 4 -19 2 -22 -5 -2 -7 -8 -12 -13 -12
-6 0 -7 5 -4 10 3 6 2 10 -4 10 -5 0 -16 3 -25 6 -9 3 -16 2 -16 -3z"/>
<path d="M12918 2213 c6 -2 18 -2 25 0 6 3 1 5 -13 5 -14 0 -19 -2 -12 -5z"/>
<path d="M15548 2213 c7 -3 16 -2 19 1 4 3 -2 6 -13 5 -11 0 -14 -3 -6 -6z"/>
<path d="M7208 2193 c7 -3 16 -2 19 1 4 3 -2 6 -13 5 -11 0 -14 -3 -6 -6z"/>
<path d="M9402 2151 c-15 -9 -13 -73 3 -78 6 -1 20 13 33 32 24 37 28 50 13
40 -5 -3 -12 -1 -16 5 -7 12 -16 12 -33 1z"/>
<path d="M7256 2135 c4 -8 8 -15 10 -15 2 0 4 7 4 15 0 8 -4 15 -10 15 -5 0
-7 -7 -4 -15z"/>
<path d="M15538 2038 c4 -109 11 -133 37 -125 6 2 10 9 10 14 0 6 3 15 8 19
11 11 8 59 -4 71 -7 7 -10 35 -7 72 4 60 4 61 -21 61 l-26 0 3 -112z"/>
<path d="M12793 2133 c15 -2 39 -2 55 0 15 2 2 4 -28 4 -30 0 -43 -2 -27 -4z"/>
<path d="M9635 2119 c-5 -7 -2 -17 6 -23 18 -13 20 -56 3 -56 -18 0 -27 -36
-15 -57 6 -10 11 -12 11 -5 0 6 -1 13 -2 15 -1 1 5 13 12 27 8 14 15 32 16 40
2 8 7 16 13 18 5 2 7 11 4 20 -4 14 -3 15 5 2 7 -9 7 -19 2 -25 -6 -8 -5 -12
3 -12 7 0 14 13 15 29 1 17 -3 28 -10 28 -7 0 -23 3 -34 6 -12 3 -25 0 -29 -7z"/>
<path d="M9506 2094 c-3 -9 -6 -28 -7 -42 0 -15 -3 -22 -6 -15 -6 16 -43 -5
-43 -25 0 -7 -9 -26 -21 -41 -19 -26 -24 -53 -29 -163 -1 -10 -8 -18 -16 -18
-12 0 -12 -4 -2 -21 10 -17 10 -23 1 -26 -14 -5 -17 -31 -7 -57 3 -9 10 -13
15 -10 5 3 9 0 9 -5 0 -6 -5 -11 -11 -11 -8 0 -7 -6 2 -16 16 -19 20 -60 8
-91 -5 -13 -4 -25 1 -28 6 -4 10 -21 10 -38 0 -25 -2 -29 -11 -17 -8 12 -9 9
-4 -10 12 -42 17 -127 7 -111 -7 9 -9 -1 -8 -31 0 -25 7 -52 14 -61 11 -13 10
-16 -10 -19 -22 -3 -21 -4 9 -21 35 -19 172 -25 143 -7 -8 5 -28 10 -43 10
-51 0 -20 15 38 18 34 2 74 12 103 27 26 14 41 25 35 25 -7 0 -13 7 -13 16 0
10 5 14 15 10 8 -3 23 -9 32 -13 13 -5 15 -3 10 12 -7 16 -3 17 32 12 21 -2
45 -1 52 4 9 5 -13 9 -58 9 -40 0 -75 5 -78 11 -4 6 0 9 11 7 14 -2 20 4 22
23 3 27 -3 29 -72 20 -4 -1 -5 -8 -2 -17 4 -10 -3 -25 -19 -40 -28 -26 -31
-34 -12 -34 7 0 22 -7 33 -15 18 -13 16 -14 -23 -15 -38 0 -43 3 -49 26 -5 18
-9 22 -15 13 -4 -7 -5 -17 -3 -21 3 -4 -2 -5 -10 -2 -12 5 -13 10 -5 27 7 12
9 46 6 84 -4 49 -2 63 9 63 8 0 14 -4 14 -10 0 -5 7 -10 16 -10 8 0 13 -4 10
-8 -3 -5 6 -15 20 -23 23 -12 28 -11 38 3 7 9 29 19 49 23 41 8 41 8 26 37 -8
14 -8 23 0 31 25 25 10 34 -59 36 -41 1 -70 -2 -70 -8 0 -6 -11 -6 -27 -1 -69
20 -107 50 -65 50 16 1 16 2 -1 15 -17 12 -15 14 27 20 25 4 51 5 58 3 7 -3
22 -2 33 3 16 6 13 8 -15 9 -19 1 -43 1 -53 1 -9 -1 -20 5 -23 13 -3 9 -10 14
-14 11 -4 -3 -10 1 -13 9 -4 11 3 13 31 10 47 -5 70 -5 107 0 17 2 48 4 69 5
22 0 37 3 35 6 -8 7 -143 13 -154 6 -5 -4 -30 -4 -55 0 l-45 6 33 8 c35 8 44
25 12 25 -24 0 -26 13 -5 30 8 7 13 15 11 19 -2 3 2 12 10 19 13 12 18 8 15
-10 0 -5 13 -8 29 -8 19 0 30 -5 30 -14 0 -17 24 -27 45 -20 20 8 0 34 -26 34
-17 0 -49 34 -49 52 0 5 8 8 17 8 13 0 14 3 5 12 -7 7 -12 22 -12 34 0 17 -9
24 -45 33 -52 13 -58 29 -14 38 21 4 26 8 18 14 -7 4 -19 3 -25 -2 -8 -7 -14
-7 -18 0 -8 12 25 31 56 32 13 0 18 3 11 5 -7 3 -9 12 -6 20 3 10 -2 14 -18
13 -13 0 -18 -3 -11 -6 19 -8 14 -23 -9 -23 -16 0 -19 4 -14 20 4 13 2 20 -6
20 -10 0 -10 3 -1 12 14 14 16 38 3 38 -5 0 -12 -7 -15 -16z m96 -606 c20 -23
20 -23 -1 -26 -20 -3 -70 26 -71 41 0 17 54 5 72 -15z m68 -10 c0 -6 6 -6 14
1 8 7 17 8 20 3 12 -20 -39 -22 -58 -2 -19 19 -19 19 2 13 12 -3 22 -10 22
-15z m-77 -225 c-7 -2 -19 -2 -25 0 -7 3 -2 5 12 5 14 0 19 -2 13 -5z"/>
<path d="M9616 2083 c-12 -12 -6 -33 9 -33 8 0 15 6 15 14 0 17 -14 28 -24 19z"/>
<path d="M8288 2064 c-4 -3 -4 -12 -1 -20 7 -19 39 -18 47 1 3 8 1 15 -3 15
-5 0 -16 2 -23 5 -8 3 -17 3 -20 -1z"/>
<path d="M12371 2056 c9 -9 279 -14 285 -5 3 5 -56 9 -142 9 -81 0 -145 -2
-143 -4z"/>
<path d="M8354 2035 c-4 -8 -17 -15 -29 -15 -27 0 -45 -37 -25 -50 8 -5 7 -11
-4 -23 -9 -8 -16 -25 -16 -38 0 -20 3 -21 48 -16 149 19 152 20 152 7 0 -8 8
-10 23 -6 12 4 38 10 57 13 37 5 66 23 38 23 -9 0 -20 4 -23 10 -3 6 1 7 9 4
9 -3 16 -2 16 4 0 5 10 12 23 16 18 5 20 8 7 16 -8 5 -28 8 -45 6 -16 -2 -22
-1 -12 1 21 5 23 33 2 33 -8 0 -14 6 -12 13 2 14 -43 22 -78 13 -14 -4 -22
-13 -21 -23 2 -29 -39 -28 -62 1 -22 29 -40 33 -48 11z m186 -5 c0 -5 -7 -10
-15 -10 -8 0 -15 5 -15 10 0 6 7 10 15 10 8 0 15 -4 15 -10z m-50 -60 c3 -1
-13 -6 -35 -10 -47 -9 -84 0 -45 11 21 6 63 5 80 -1z m-27 -37 c-7 -2 -21 -2
-30 0 -10 3 -4 5 12 5 17 0 24 -2 18 -5z"/>
<path d="M8863 2043 c9 -2 23 -2 30 0 6 3 -1 5 -18 5 -16 0 -22 -2 -12 -5z"/>
<path d="M15498 2043 c7 -3 16 -2 19 1 4 3 -2 6 -13 5 -11 0 -14 -3 -6 -6z"/>
<path d="M8610 2029 c0 -5 5 -7 10 -4 6 3 10 8 10 11 0 2 -4 4 -10 4 -5 0 -10
-5 -10 -11z"/>
<path d="M13882 2020 c0 -14 2 -19 5 -12 2 6 2 18 0 25 -3 6 -5 1 -5 -13z"/>
<path d="M12500 2020 c-30 -3 -61 -9 -69 -14 -27 -17 19 -25 149 -24 75 0 115
3 99 7 -14 5 -35 14 -48 20 -17 10 -26 10 -37 0 -8 -7 -14 -7 -14 -1 0 15 -20
18 -80 12z"/>
<path d="M14750 2023 c-8 -3 -19 -12 -23 -19 -4 -8 -15 -14 -22 -14 -8 0 -15
-5 -15 -11 0 -5 -4 -8 -9 -4 -5 3 -12 1 -16 -5 -3 -5 -17 -10 -31 -10 -13 0
-24 -5 -24 -11 0 -7 -9 -9 -21 -6 -12 3 -18 3 -15 0 3 -3 -5 -14 -17 -24 l-22
-19 32 4 c18 1 41 13 52 25 11 12 21 22 23 21 2 -1 16 3 31 9 16 6 40 11 54
11 25 0 26 0 8 -20 -16 -17 -16 -20 -2 -20 9 0 19 9 22 20 3 11 13 20 21 20
11 0 9 -10 -8 -44 -13 -24 -26 -42 -29 -40 -3 1 -4 -10 -1 -25 2 -16 -1 -32
-7 -35 -12 -8 -15 -26 -3 -26 7 0 21 27 41 83 12 31 36 27 26 -4 -10 -29 9
-23 28 11 15 24 15 33 5 49 -15 24 -9 31 28 35 60 7 26 40 -51 50 -22 3 -47 2
-55 -1z"/>
<path d="M8873 2013 c9 -2 23 -2 30 0 6 3 -1 5 -18 5 -16 0 -22 -2 -12 -5z"/>
<path d="M13900 2004 c0 -8 5 -12 10 -9 6 4 8 11 5 16 -9 14 -15 11 -15 -7z"/>
<path d="M12245 1997 c-3 -7 -1 -26 4 -40 9 -22 8 -27 -4 -27 -18 0 -18 -1 -5
-34 8 -21 6 -25 -13 -29 -19 -3 -18 -4 8 -11 17 -4 39 -11 50 -16 18 -8 17 -9
-6 -9 -19 -1 -28 -8 -32 -23 -4 -12 -5 -23 -4 -24 20 -17 558 -24 707 -8 58 6
62 8 40 17 -14 7 -27 14 -30 17 -3 4 -30 3 -60 0 -30 -4 -43 -8 -27 -9 45 -2
30 -21 -17 -21 -48 0 -71 16 -34 23 13 2 -2 5 -33 6 -42 1 -58 -3 -63 -14 -7
-19 -66 -20 -66 -1 0 7 -10 16 -22 19 -49 13 1 21 181 28 107 4 198 12 208 18
14 9 -2 10 -67 7 -47 -3 -137 -8 -200 -11 -74 -4 -110 -3 -101 3 7 5 11 15 7
20 -6 10 3 13 84 25 14 3 1 5 -29 6 -30 0 -61 7 -70 15 -24 21 -140 30 -160
13 -21 -18 -99 -29 -137 -18 -22 6 -28 13 -27 29 2 12 -2 22 -8 22 -6 0 -24 9
-40 21 -23 16 -30 18 -34 6z m163 -115 c2 -7 -7 -10 -25 -8 -46 6 -49 8 -23
16 30 10 42 8 48 -8z m-28 -51 c0 -5 -6 -13 -13 -19 -10 -8 -16 -6 -25 9 -11
17 -9 19 13 19 14 0 25 -4 25 -9z"/>
<path d="M12878 1993 c6 -2 18 -2 25 0 6 3 1 5 -13 5 -14 0 -19 -2 -12 -5z"/>
<path d="M9595 1980 c-19 -8 -19 -9 3 -9 12 -1 22 4 22 9 0 6 -1 10 -2 9 -2 0
-12 -4 -23 -9z"/>
<path d="M15482 1970 c0 -14 2 -19 5 -12 2 6 2 18 0 25 -3 6 -5 1 -5 -13z"/>
<path d="M13895 1970 c-16 -26 -16 -74 1 -149 9 -40 14 -81 11 -91 -4 -16 3
-19 58 -22 60 -3 63 -2 48 15 -10 10 -12 17 -5 17 7 0 12 18 12 45 0 25 -3 44
-7 44 -34 -5 -44 2 -41 30 3 30 -16 61 -37 61 -7 0 -16 15 -21 32 -8 25 -12
30 -19 18z"/>
<path d="M15502 1935 c0 -16 2 -22 5 -12 2 9 2 23 0 30 -3 6 -5 -1 -5 -18z"/>
<path d="M12978 1923 c7 -3 16 -2 19 1 4 3 -2 6 -13 5 -11 0 -14 -3 -6 -6z"/>
<path d="M12908 1913 c6 -2 18 -2 25 0 6 3 1 5 -13 5 -14 0 -19 -2 -12 -5z"/>
<path d="M14699 1903 c-13 -16 -12 -17 4 -4 16 13 21 21 13 21 -2 0 -10 -8
-17 -17z"/>
<path d="M9630 1895 c5 -7 7 -15 3 -18 -3 -4 1 -7 10 -7 11 0 14 5 10 17 -5
12 -3 14 8 8 8 -4 11 -4 6 0 -4 5 -16 9 -27 10 -14 1 -17 -2 -10 -10z"/>
<path d="M14615 1860 c-16 -17 -26 -30 -23 -30 10 0 62 49 57 54 -3 3 -18 -8
-34 -24z"/>
<path d="M14554 1848 l-29 -31 38 28 c38 28 44 35 29 35 -5 0 -21 -14 -38 -32z"/>
<path d="M8301 1861 c-8 -5 -9 -11 -3 -15 13 -8 42 3 42 15 0 11 -21 11 -39 0z"/>
<path d="M14519 1853 c-13 -16 -12 -17 4 -4 16 13 21 21 13 21 -2 0 -10 -8
-17 -17z"/>
<path d="M8388 1853 c6 -2 18 -2 25 0 6 3 1 5 -13 5 -14 0 -19 -2 -12 -5z"/>
<path d="M14681 1826 c-12 -18 -21 -38 -21 -45 0 -6 -4 -11 -8 -11 -4 0 -8 -9
-8 -21 0 -21 0 -21 18 1 10 12 18 29 18 37 0 8 9 28 21 44 11 16 16 29 10 29
-5 0 -19 -15 -30 -34z"/>
<path d="M8478 1843 c7 -3 16 -2 19 1 4 3 -2 6 -13 5 -11 0 -14 -3 -6 -6z"/>
<path d="M14600 1785 c-13 -14 -19 -25 -14 -25 8 1 50 50 41 50 -2 0 -14 -11
-27 -25z"/>
<path d="M8302 1768 c1 -7 -3 -33 -9 -58 -18 -69 -24 -168 -12 -176 8 -5 8 -9
-1 -14 -20 -12 -1 -128 25 -156 24 -26 23 -62 -2 -77 -7 -4 -13 -14 -13 -20 0
-11 -41 -54 -47 -49 -2 1 -9 2 -15 1 -7 -1 3 -5 22 -10 19 -5 100 -8 180 -8
80 1 153 -2 163 -6 16 -7 140 -2 237 9 14 2 33 4 42 4 10 1 24 15 33 31 8 16
21 35 28 43 15 15 32 70 20 66 -5 -2 -8 1 -8 5 0 5 -8 13 -17 18 -10 6 -18 19
-18 29 0 12 -7 20 -17 20 -15 0 -15 2 -4 9 8 5 19 8 25 7 6 -2 8 -1 4 1 -5 3
-8 16 -8 30 0 24 -2 25 -37 18 -53 -10 -59 -16 -32 -32 l24 -14 -24 7 c-15 4
-21 2 -17 -4 4 -7 -14 -12 -51 -15 l-58 -3 60 -2 c56 -2 61 -4 60 -25 -1 -13
-5 -28 -9 -35 -5 -9 7 -12 44 -12 28 0 49 -4 46 -9 -3 -5 -15 -7 -26 -4 -11 3
-20 1 -20 -4 0 -17 -148 -13 -165 3 -13 13 -17 12 -32 -7 -46 -55 -73 -66 -73
-29 0 11 5 20 10 20 6 0 10 5 10 10 0 6 -30 10 -69 10 -37 0 -96 3 -130 6 -60
7 -62 8 -59 33 3 25 6 26 71 28 38 0 79 4 91 7 29 7 43 46 17 46 -26 0 -31 10
-19 34 6 11 14 28 18 36 4 8 31 20 61 26 l54 11 -42 8 -42 7 26 47 c15 25 33
54 42 64 15 18 14 19 -20 16 -21 -2 -44 3 -53 10 -9 7 -16 10 -16 6 0 -4 -6
-3 -13 3 -15 13 -47 -8 -47 -32 0 -9 -4 -16 -10 -16 -5 0 -10 5 -10 10 0 6 -5
10 -11 10 -5 0 -7 -5 -4 -10 8 -13 -18 -23 -42 -17 -15 3 -14 6 7 16 23 11 23
11 3 7 -13 -2 -23 0 -23 5 0 4 -6 6 -13 3 -17 -6 -57 32 -57 56 0 11 -7 20
-15 20 -9 0 -15 -6 -13 -12z m145 -180 c-3 -7 -5 -2 -5 12 0 14 2 19 5 13 2
-7 2 -19 0 -25z m-24 7 c1 -5 -10 -11 -26 -11 l-27 -1 27 4 c26 5 26 6 8 14
-17 7 -17 8 -2 6 10 -1 19 -6 20 -12z m503 -291 c-4 -9 -9 -15 -11 -12 -3 3
-3 13 1 22 4 9 9 15 11 12 3 -3 3 -13 -1 -22z m-366 -5 c0 -5 5 -7 10 -4 6 3
10 1 10 -4 0 -6 -9 -11 -20 -11 -11 0 -20 7 -20 15 0 8 5 15 10 15 6 0 10 -5
10 -11z m277 5 c-3 -3 -12 -4 -19 -1 -8 3 -5 6 6 6 11 1 17 -2 13 -5z m-312
-54 c4 -6 -12 -10 -42 -10 -35 0 -44 3 -33 10 20 13 67 13 75 0z m270 -20 c3
-5 1 -10 -4 -10 -6 0 -11 5 -11 10 0 6 2 10 4 10 3 0 8 -4 11 -10z"/>
<path d="M8350 1770 c20 -13 40 -13 40 0 0 6 -12 10 -27 10 -22 0 -25 -2 -13
-10z"/>
<path d="M15525 1750 c-3 -5 -3 -15 1 -22 5 -7 7 -25 6 -39 -2 -26 0 -27 34
-24 40 4 59 15 25 15 -18 0 -22 4 -19 18 3 12 -2 24 -14 31 -10 6 -16 16 -13
21 3 6 2 10 -4 10 -5 0 -13 -4 -16 -10z"/>
<path d="M13760 1719 c1 -22 42 -67 71 -78 21 -7 28 -18 31 -45 3 -26 0 -36
-10 -36 -10 0 -10 -4 3 -16 13 -13 14 -19 4 -25 -9 -5 -5 -10 13 -14 18 -5 29
-17 37 -43 7 -21 12 -42 11 -47 -7 -33 23 -50 67 -39 26 7 31 24 8 24 -9 0
-18 7 -21 15 -9 23 -24 18 -25 -7 -1 -18 -2 -19 -6 -5 -6 24 17 53 28 35 5 -7
30 -17 56 -23 39 -9 50 -8 59 4 10 12 15 11 34 -7 13 -12 29 -22 34 -22 6 0
17 -9 24 -20 11 -18 9 -20 -26 -19 -20 0 -94 -2 -164 -3 -117 -3 -144 1 -119
16 5 3 11 23 13 45 3 34 2 37 -14 27 -10 -6 -18 -14 -18 -18 0 -5 -5 -8 -11
-8 -6 0 -8 9 -4 21 5 15 4 19 -4 15 -13 -9 -14 -55 -1 -76 5 -9 5 -19 -1 -26
-6 -7 -5 -23 2 -44 9 -26 9 -34 -2 -41 -11 -7 -9 -9 6 -10 40 -2 -39 -28 -90
-30 l-50 -1 50 -9 c27 -4 59 -12 70 -17 43 -19 93 -32 127 -32 20 0 64 -7 97
-16 50 -12 140 -16 504 -17 546 -2 1038 2 1095 10 l44 6 -59 33 c-71 40 -90
60 -95 99 -2 18 -11 34 -24 40 -11 6 -19 16 -16 23 5 17 42 15 42 -3 0 -9 9
-15 24 -15 29 0 80 68 70 93 -4 12 -1 17 10 17 9 0 16 4 16 9 0 5 8 12 18 15
9 3 -21 3 -68 1 -47 -3 -101 -5 -121 -5 -36 0 -36 0 -49 -58 -16 -77 -2 -130
51 -187 21 -23 39 -45 39 -49 0 -3 -69 -6 -153 -6 -116 0 -158 3 -172 14 -11
8 -27 11 -35 8 -29 -13 -207 -5 -250 11 -8 3 -26 5 -40 4 -21 -2 -24 2 -22 21
2 15 -2 22 -12 22 -9 0 -18 0 -21 0 -3 0 -20 9 -39 20 -25 14 -49 18 -85 16
-28 -2 -51 -2 -51 -1 0 2 7 11 16 19 21 22 46 20 102 -6 82 -37 128 -36 213 7
107 55 107 55 124 55 8 0 15 6 15 14 0 8 31 29 69 47 39 18 68 35 65 38 -2 2
-88 5 -192 7 -103 1 -227 5 -277 8 -305 19 -458 27 -463 22 -3 -3 3 -6 12 -6
30 0 315 -128 316 -141 0 -4 -10 -7 -22 -7 -13 0 -63 -4 -113 -10 -49 -6 -137
-14 -194 -17 -57 -3 -107 -7 -110 -10 -4 -2 -7 31 -6 73 0 42 -4 87 -8 100 -8
21 -6 22 50 23 l58 1 -53 8 c-29 4 -55 10 -57 12 -3 2 7 21 21 41 16 24 20 37
12 37 -9 0 -9 3 2 10 19 12 33 13 26 1 -3 -5 3 -11 14 -14 16 -4 17 -2 7 15
-9 15 -19 18 -44 14 -24 -3 -33 -1 -33 10 0 8 5 14 11 14 5 0 7 5 4 11 -4 5
-19 8 -33 5 -15 -3 -50 0 -79 8 -28 8 -54 12 -57 9 -8 -8 -86 8 -86 17 0 5 8
11 18 13 15 4 15 5 0 6 -9 0 -19 -3 -22 -8 -6 -9 -53 -1 -96 16 -8 3 -24 7
-35 8 -11 1 -28 5 -37 10 -12 5 -18 3 -18 -6z"/>
<path d="M14048 1713 c7 -3 16 -2 19 1 4 3 -2 6 -13 5 -11 0 -14 -3 -6 -6z"/>
<path d="M12240 1700 c0 -5 6 -10 14 -10 8 0 18 5 21 10 3 6 -3 10 -14 10 -12
0 -21 -4 -21 -10z"/>
<path d="M12885 1698 c-34 -5 -164 -7 -297 -4 -206 5 -239 4 -252 -10 -9 -8
-16 -20 -16 -25 0 -5 -6 -16 -12 -23 -11 -12 -15 -10 -25 8 -11 20 -12 20 -19
2 -5 -13 -2 -23 9 -31 10 -7 20 -33 24 -61 3 -27 11 -52 17 -56 18 -13 67 -9
65 5 -5 42 33 53 63 18 16 -19 15 -20 -15 -27 -31 -7 -32 -8 -7 -14 39 -11
261 -11 295 -1 25 8 20 9 -37 10 -37 1 -69 5 -72 9 -8 13 13 39 22 27 9 -13
62 -16 62 -4 0 6 4 7 10 4 5 -3 15 3 22 15 9 14 23 20 50 20 32 0 38 3 38 21
0 17 -4 20 -24 15 -13 -3 -35 -2 -47 2 -19 7 -13 10 32 15 30 4 74 7 98 7 65
0 171 22 171 35 0 6 -11 18 -25 25 -14 7 -25 17 -25 22 0 10 -25 9 -105 -4z
m-485 -58 c0 -13 -52 -2 -62 13 -4 6 1 16 10 23 14 10 20 9 35 -6 9 -11 17
-24 17 -30z m520 20 c0 -22 -17 -28 -93 -29 -32 -1 -62 -2 -65 -2 -37 -5 -53
3 -50 24 3 20 9 22 78 25 41 1 82 4 90 5 25 5 40 -4 40 -23z m-230 -4 c0 -14
-5 -28 -10 -31 -18 -11 -50 6 -50 26 0 11 5 17 10 14 6 -3 10 -1 10 4 0 6 9
11 20 11 15 0 20 -7 20 -24z m-273 -52 c-3 -4 -14 -3 -24 0 -15 6 -15 8 -3 16
16 10 39 -4 27 -16z m223 -14 c0 -5 -7 -10 -15 -10 -8 0 -15 5 -15 10 0 6 7
10 15 10 8 0 15 -4 15 -10z"/>
<path d="M8893 1686 c-24 -28 -63 -117 -63 -145 0 -16 -6 -32 -12 -34 -7 -3 4
-6 24 -6 49 -1 71 8 59 23 -7 8 -6 20 2 37 7 13 10 37 6 54 -3 17 -4 42 -1 58
5 30 2 32 -15 13z"/>
<path d="M7240 1596 c0 -30 5 -67 11 -83 7 -15 14 -68 16 -118 2 -49 4 -103 6
-120 2 -30 2 -30 -63 -38 -36 -4 -82 -7 -103 -7 -49 1 -46 -24 4 -28 85 -7
545 -13 576 -7 29 5 32 9 23 21 -10 12 -8 14 15 14 16 0 25 3 21 7 -7 8 -12 9
-38 12 -8 1 -9 4 -1 12 11 11 129 16 140 6 8 -9 -16 -37 -42 -48 -13 -6 10 -8
68 -5 49 2 90 5 91 7 2 2 1 21 -1 41 -5 33 -7 36 -20 22 -19 -18 -31 -10 -14
10 9 11 9 15 -1 19 -10 3 -11 8 0 26 15 25 16 45 2 36 -6 -4 -8 -12 -4 -18 3
-7 -2 -3 -11 8 -9 11 -15 31 -14 45 3 60 0 70 -25 70 -37 0 -56 -10 -56 -31 0
-10 -6 -19 -12 -19 -8 0 -9 -3 -3 -8 6 -4 11 -19 12 -34 1 -23 -3 -27 -30 -31
l-32 -4 36 -1 c30 -2 35 -5 34 -24 -2 -34 -40 -48 -128 -48 -74 0 -117 11
-117 29 0 11 47 31 78 32 16 1 7 5 -22 9 -26 5 -55 11 -64 15 -21 8 -3 24 34
30 103 17 102 18 -16 35 -107 16 -111 17 -54 19 33 0 74 8 90 16 16 8 72 19
124 25 52 5 113 13 135 16 38 6 39 7 15 17 -21 8 -22 11 -7 14 15 4 16 7 6 20
-10 11 -10 16 0 22 10 6 9 10 -3 14 -9 4 -16 14 -16 23 0 22 -52 12 -81 -14
-25 -24 -131 -37 -162 -20 l-22 12 25 6 c23 7 23 7 -10 13 -19 3 -99 8 -178
10 -88 3 -148 9 -155 16 -6 6 -21 11 -34 11 -21 0 -23 -4 -23 -54z m563 -41
c-3 -11 -143 -24 -143 -13 0 10 79 27 115 25 17 -1 29 -6 28 -12z m-23 -40 c0
-11 -11 -15 -39 -15 -69 0 -62 28 7 29 22 1 32 -4 32 -14z m-320 -64 c0 -16
-19 -23 -40 -16 -30 10 -24 25 10 25 17 0 30 -4 30 -9z"/>
<path d="M9675 1640 c3 -5 8 -10 11 -10 2 0 4 5 4 10 0 6 -5 10 -11 10 -5 0
-7 -4 -4 -10z"/>
<path d="M14267 1628 c2 -5 17 -8 34 -8 19 0 29 -5 29 -15 0 -8 -5 -15 -12
-15 -6 0 -3 -9 7 -20 11 -13 25 -18 34 -14 9 3 43 8 76 10 33 2 70 6 82 9 12
3 25 1 28 -5 3 -5 27 -10 53 -10 26 0 67 -5 91 -11 48 -11 72 0 46 21 -8 7
-15 18 -15 25 0 15 -96 26 -119 14 -8 -3 -28 -3 -45 2 -27 8 -98 15 -253 22
-22 1 -39 -1 -36 -5z m388 -38 c3 -5 -1 -10 -9 -10 -9 0 -16 5 -16 10 0 6 4
10 9 10 6 0 13 -4 16 -10z"/>
<path d="M7690 1600 c0 -5 5 -10 10 -10 6 0 10 5 10 10 0 6 -4 10 -10 10 -5 0
-10 -4 -10 -10z"/>
<path d="M12929 1606 c-3 -3 -24 -6 -47 -7 -24 -2 -46 -7 -49 -12 -3 -5 12 -7
33 -6 26 2 38 -1 37 -9 -2 -7 4 -12 12 -12 14 0 18 9 13 28 -1 4 11 10 28 13
28 6 28 7 3 8 -14 0 -28 -1 -30 -3z"/>
<path d="M12990 1596 c0 -8 -8 -17 -17 -19 -10 -3 2 -5 27 -5 25 0 37 2 28 5
-21 5 -23 19 -5 26 6 3 2 6 -10 6 -14 1 -23 -5 -23 -13z"/>
<path d="M14741 1597 c-6 -8 -8 -17 -5 -20 10 -9 45 13 39 24 -9 13 -21 11
-34 -4z"/>
<path d="M14833 1585 c-9 -24 0 -25 26 -4 23 19 23 19 2 19 -12 0 -24 -7 -28
-15z"/>
<path d="M15050 1560 c6 -11 15 -18 20 -15 4 3 11 -1 13 -7 3 -7 6 -1 6 15 1
22 -3 27 -24 27 -23 0 -24 -2 -15 -20z"/>
<path d="M12858 1563 c7 -3 16 -2 19 1 4 3 -2 6 -13 5 -11 0 -14 -3 -6 -6z"/>
<path d="M12972 1543 c-6 -2 -10 -9 -6 -14 3 -5 0 -9 -5 -9 -6 0 -11 -7 -11
-15 0 -11 11 -15 36 -15 33 0 35 2 32 27 -3 27 -20 37 -46 26z"/>
<path d="M13038 1503 c7 -3 16 -2 19 1 4 3 -2 6 -13 5 -11 0 -14 -3 -6 -6z"/>
<path d="M13836 1475 c-3 -8 -1 -15 4 -15 6 0 10 7 10 15 0 8 -2 15 -4 15 -2
0 -6 -7 -10 -15z"/>
<path d="M12278 1463 c7 -3 16 -2 19 1 4 3 -2 6 -13 5 -11 0 -14 -3 -6 -6z"/>
<path d="M12975 1459 c-12 -4 -14 -8 -5 -8 10 -1 11 -4 3 -12 -5 -5 -48 -14
-94 -19 -77 -8 -74 -8 37 -4 67 3 134 9 150 15 25 8 23 8 -14 4 -35 -4 -44 -2
-50 13 -5 14 -12 17 -27 11z"/>
<path d="M12304 1443 c-16 -12 -16 -13 -1 -13 9 0 17 -2 17 -5 0 -12 -45 -55
-59 -56 -10 0 -8 -4 7 -9 12 -5 22 -13 22 -17 0 -13 -59 -36 -75 -29 -10 4
-15 -1 -15 -14 0 -11 5 -20 10 -20 6 0 10 -7 10 -15 0 -8 7 -15 15 -15 8 0 15
-4 15 -10 0 -5 -8 -10 -17 -10 -13 0 -14 -3 -6 -11 31 -31 554 -52 688 -29 28
5 66 12 85 15 75 13 79 15 77 36 -1 19 -6 20 -57 14 -103 -12 -175 -28 -183
-42 -11 -18 -87 -18 -87 1 0 7 -14 16 -32 20 -53 10 -23 19 94 26 75 5 105 10
90 15 -14 5 -21 13 -18 21 7 18 -14 18 -28 0 -6 -8 -39 -17 -73 -20 -55 -6
-64 -4 -82 15 -14 15 -27 20 -44 15 -14 -3 -53 -3 -88 1 -98 10 -44 20 115 22
77 1 142 4 145 6 2 3 -19 5 -47 5 -29 0 -52 5 -52 10 0 6 7 10 15 10 8 0 15 5
15 10 0 6 -24 10 -52 11 -47 1 -50 2 -23 10 17 4 47 11 69 14 21 4 36 8 35 10
-2 1 -52 5 -112 8 -78 4 -112 10 -123 21 -20 21 -221 20 -250 -1z m286 -63 c0
-5 -5 -10 -11 -10 -5 0 -7 5 -4 10 3 6 8 10 11 10 2 0 4 -4 4 -10z m-105 -10
c-3 -5 -13 -10 -21 -10 -8 0 -14 5 -14 10 0 6 9 10 21 10 11 0 17 -4 14 -10z
m175 -20 c18 -12 2 -12 -25 0 -13 6 -15 9 -5 9 8 0 22 -4 30 -9z m-197 -30
c10 -9 3 -11 -33 -7 -25 3 -65 10 -90 16 -41 9 -39 10 33 7 45 -2 83 -8 90
-16z m-49 -91 c-3 -5 -10 -7 -15 -3 -5 3 -7 10 -3 15 3 5 10 7 15 3 5 -3 7
-10 3 -15z m241 11 c3 -5 -1 -10 -9 -10 -8 0 -18 5 -21 10 -3 6 1 10 9 10 8 0
18 -4 21 -10z m240 -30 c-3 -5 -13 -10 -21 -10 -8 0 -14 5 -14 10 0 6 9 10 21
10 11 0 17 -4 14 -10z"/>
<path d="M7738 1423 c7 -3 16 -2 19 1 4 3 -2 6 -13 5 -11 0 -14 -3 -6 -6z"/>
<path d="M6309 1393 c11 -22 133 -139 182 -176 31 -24 45 -27 108 -27 54 0 72
3 68 13 -2 7 -16 11 -35 9 -33 -4 -45 14 -17 24 8 4 13 10 10 14 -3 4 11 11
30 14 43 8 55 26 18 27 -25 0 -24 2 12 13 22 7 46 11 53 8 6 -2 12 1 12 8 0 6
5 8 11 5 6 -4 8 -13 5 -21 -6 -15 45 -19 102 -8 28 6 30 8 16 22 -10 9 -12 18
-6 24 6 6 5 19 -2 34 -9 19 -19 24 -48 24 -30 0 -37 -4 -40 -22 -3 -25 -31
-36 -93 -37 -48 -1 -70 11 -62 33 4 10 1 18 -6 21 -6 2 -83 6 -170 9 -148 6
-157 5 -148 -11z"/>
<path d="M12957 1370 c-4 -14 -14 -20 -33 -20 -30 0 -23 -15 11 -22 20 -4 22
-10 10 -39 -5 -13 0 -15 24 -11 17 2 28 8 25 13 -3 5 4 9 15 9 10 0 21 -6 24
-12 2 -7 7 -10 11 -6 4 3 3 15 -3 26 -7 13 -7 22 2 31 9 9 7 13 -10 17 -13 4
-20 11 -16 20 4 10 -3 14 -25 14 -21 0 -31 -6 -35 -20z"/>
<path d="M7930 1330 c0 -5 5 -10 11 -10 5 0 7 5 4 10 -3 6 -8 10 -11 10 -2 0
-4 -4 -4 -10z"/>
<path d="M10550 1315 c0 -13 27 -15 180 -15 153 0 180 2 180 15 0 13 -27 15
-180 15 -153 0 -180 -2 -180 -15z"/>
<path d="M10980 1315 c0 -13 27 -15 180 -15 153 0 180 2 180 15 0 13 -27 15
-180 15 -153 0 -180 -2 -180 -15z"/>
<path d="M11410 1315 c0 -13 26 -15 175 -15 149 0 175 2 175 15 0 13 -26 15
-175 15 -149 0 -175 -2 -175 -15z"/>
<path d="M6804 1263 c-14 -3 -24 -14 -27 -30 l-5 -26 65 6 c75 6 99 21 69 43
-19 13 -56 16 -102 7z"/>
<path d="M7808 1253 c7 -3 16 -2 19 1 4 3 -2 6 -13 5 -11 0 -14 -3 -6 -6z"/>
<path d="M8170 1230 c0 -5 5 -10 11 -10 5 0 7 5 4 10 -3 6 -8 10 -11 10 -2 0
-4 -4 -4 -10z"/>
<path d="M8075 1220 c-4 -6 11 -10 37 -9 33 0 38 2 23 9 -28 12 -53 12 -60 0z"/>
<path d="M7758 1213 c7 -3 16 -2 19 1 4 3 -2 6 -13 5 -11 0 -14 -3 -6 -6z"/>
<path d="M9663 1193 c9 -2 23 -2 30 0 6 3 -1 5 -18 5 -16 0 -22 -2 -12 -5z"/>
</g>
</svg>
