<?xml version="1.0" standalone="no"?>
<!DOCTYPE svg PUBLIC "-//W3C//DTD SVG 20010904//EN"
 "http://www.w3.org/TR/2001/REC-SVG-20010904/DTD/svg10.dtd">
<svg version="1.0" xmlns="http://www.w3.org/2000/svg"
 width="1693.000000pt" height="728.000000pt" viewBox="0 0 1693.000000 728.000000"
 preserveAspectRatio="xMidYMid meet">

<g transform="translate(0.000000,728.000000) scale(0.100000,-0.100000)"
fill="#000000" stroke="none">
<path d="M0 3640 l0 -3640 8465 0 8465 0 0 3640 0 3640 -8465 0 -8465 0 0
-3640z m2217 3317 c7 -5 40 -24 75 -43 l63 -34 -199 0 c-110 0 -197 2 -195 5
3 2 47 27 99 54 96 51 111 52 157 18z m13421 -34 c2 -21 9 -33 18 -33 10 0 14
-11 12 -42 l-1 -43 -4 38 c-4 33 -7 37 -34 37 -25 0 -29 -4 -30 -27 l-1 -28
-7 25 c-5 19 -13 25 -36 25 -23 0 -31 -6 -36 -25 -7 -25 -7 -25 -8 3 -1 21 5
30 19 34 15 4 20 14 20 40 0 34 0 34 43 31 39 -3 42 -5 45 -35z m-14720 -25
c-3 -7 -23 -14 -46 -16 -37 -3 -42 -6 -42 -28 0 -21 5 -24 35 -24 24 0 35 -5
35 -15 0 -10 -11 -15 -35 -15 -31 0 -35 -3 -35 -25 0 -23 4 -25 44 -25 25 0
46 -5 48 -12 2 -6 16 9 30 33 l27 44 -25 42 c-29 50 -29 53 -5 53 10 0 28 -13
38 -30 l19 -30 17 30 c12 20 26 30 43 30 l24 0 -27 -42 c-14 -24 -26 -47 -26
-53 0 -6 12 -29 26 -53 l27 -42 -25 0 c-17 0 -29 9 -41 32 l-16 31 -20 -31
-20 -32 -94 0 -94 0 0 95 0 95 71 0 c52 0 70 -3 67 -12z m314 0 c9 -7 19 -23
23 -35 9 -31 -34 -73 -75 -73 -28 0 -30 -3 -30 -35 0 -31 -3 -35 -25 -35 -25
0 -25 0 -25 95 l0 95 58 0 c32 0 65 -6 74 -12z m178 -3 c0 -11 -12 -15 -45
-15 -41 0 -45 -2 -45 -25 0 -22 4 -25 35 -25 24 0 35 -5 35 -15 0 -10 -11 -15
-35 -15 -31 0 -35 -3 -35 -25 0 -23 4 -25 45 -25 33 0 45 -4 45 -15 0 -12 -14
-15 -70 -15 l-70 0 0 95 0 95 70 0 c56 0 70 -3 70 -15z m94 -42 l36 -57 0 57
c0 54 1 57 25 57 25 0 25 0 25 -95 0 -93 0 -95 -24 -95 -17 0 -32 14 -59 58
l-36 57 -1 -57 c0 -51 -2 -58 -20 -58 -19 0 -20 7 -20 95 0 87 2 95 19 95 13
0 32 -20 55 -57z m227 47 c22 -12 26 -50 5 -50 -7 0 -19 7 -26 15 -15 18 -51
16 -58 -2 -2 -8 15 -21 41 -32 92 -40 81 -111 -17 -111 -26 0 -40 7 -56 28
l-22 27 23 3 c13 2 26 -3 31 -12 13 -23 58 -21 58 3 0 13 -14 24 -45 35 -53
21 -69 54 -40 86 20 22 74 27 106 10z m179 -5 c0 -11 -12 -15 -45 -15 -41 0
-45 -2 -45 -25 0 -23 4 -25 41 -25 52 0 48 -24 -4 -28 -32 -3 -37 -7 -37 -28
0 -22 4 -24 45 -24 33 0 45 -4 45 -15 0 -12 -14 -15 -65 -15 l-65 0 0 95 0 95
65 0 c51 0 65 -3 65 -15z m640 0 c0 -10 -10 -15 -30 -15 l-30 0 0 -80 c0 -73
-2 -80 -20 -80 -18 0 -20 7 -20 80 l0 80 -30 0 c-20 0 -30 5 -30 15 0 12 16
15 80 15 64 0 80 -3 80 -15z m142 -2 c22 -20 23 -56 2 -78 -16 -15 -16 -19 1
-53 l17 -37 36 93 c29 76 38 92 56 92 17 0 27 -15 54 -89 17 -48 32 -91 32
-95 0 -16 -39 -4 -45 14 -5 15 -15 20 -42 20 -26 0 -36 -5 -40 -20 -4 -16 -14
-20 -49 -20 -41 0 -46 3 -61 35 -9 19 -23 35 -30 35 -8 0 -13 -13 -13 -35 0
-31 -3 -35 -25 -35 -25 0 -25 0 -25 95 l0 95 57 0 c38 0 62 -5 75 -17z m347
-9 c12 -15 21 -31 21 -35 0 -18 -40 -9 -50 11 -12 22 -40 26 -58 8 -16 -16
-16 -90 0 -106 18 -18 46 -14 58 8 10 20 50 29 50 11 0 -4 -9 -20 -21 -35 -16
-20 -29 -26 -59 -26 -52 0 -80 35 -80 98 0 60 28 92 81 92 29 0 42 -6 58 -26z
m81 -11 l1 -38 33 38 c19 22 42 37 55 37 l22 0 -23 -31 c-13 -17 -27 -37 -32
-44 -7 -9 2 -29 27 -64 36 -50 37 -51 13 -51 -15 0 -33 12 -50 35 -31 40 -46
38 -46 -6 0 -22 -5 -29 -20 -29 -19 0 -20 7 -20 95 0 88 1 95 20 95 16 0 20
-7 20 -37z m260 22 c0 -11 -12 -15 -45 -15 -41 0 -45 -2 -45 -25 0 -23 4 -25
41 -25 52 0 48 -24 -4 -28 -32 -3 -37 -7 -37 -28 0 -22 4 -24 45 -24 33 0 45
-4 45 -15 0 -12 -14 -15 -65 -15 l-65 0 0 95 0 95 65 0 c51 0 65 -3 65 -15z
m142 -2 c22 -20 23 -51 3 -80 -14 -20 -13 -25 6 -57 l21 -36 -24 0 c-18 0 -29
9 -41 35 -9 19 -23 35 -32 35 -10 0 -15 -10 -15 -35 0 -28 -4 -35 -20 -35 -19
0 -20 7 -20 95 l0 95 52 0 c34 0 58 -6 70 -17z m808 -17 c0 -30 2 -33 25 -28
41 7 55 -13 55 -79 0 -52 -2 -59 -20 -59 -18 0 -20 7 -20 55 0 48 -2 55 -20
55 -18 0 -20 -7 -20 -55 0 -48 -2 -55 -20 -55 -19 0 -20 7 -20 100 0 93 1 100
20 100 16 0 20 -7 20 -34z m150 0 c0 -29 3 -33 23 -29 34 7 57 -21 57 -67 0
-51 -19 -68 -75 -68 l-45 1 0 99 c0 91 1 98 20 98 16 0 20 -7 20 -34z m606
-18 c-3 -29 -6 -74 -6 -99 l0 -46 -45 -1 c-35 -1 -48 3 -60 21 -34 49 -5 122
46 115 27 -4 29 -2 29 29 0 27 4 33 21 33 20 0 21 -4 15 -52z m-1141 36 c22
-9 45 -57 45 -97 0 -53 -37 -87 -95 -87 l-45 0 0 95 0 95 39 0 c22 0 47 -3 56
-6z m10986 -21 c56 -33 63 -106 16 -163 -24 -28 -34 -33 -75 -33 -26 0 -48 5
-50 12 -2 6 -9 11 -16 11 -35 0 -52 94 -25 139 31 51 96 66 150 34z m-12678
-20 c-51 -2 -136 -2 -190 0 -54 1 -12 3 92 3 105 0 149 -2 98 -3z m13305 0
c-10 -2 -18 -8 -18 -13 0 -5 8 -11 18 -14 13 -4 13 -4 -3 -3 -30 3 -33 37 -3
36 17 -1 18 -3 6 -6z m92 -10 c0 -15 -2 -16 -10 -3 -9 13 -11 13 -20 0 -8 -13
-10 -12 -10 3 0 10 8 17 20 17 12 0 20 -7 20 -17z m-11536 -9 c11 -10 16 -34
16 -68 l0 -53 -42 0 c-49 -1 -78 11 -78 32 0 21 29 45 56 45 15 0 24 6 24 16
0 13 -7 15 -35 10 -36 -7 -44 1 -23 22 17 17 64 15 82 -4z m142 -5 l19 -21
-42 7 c-52 8 -58 -8 -9 -25 41 -13 52 -36 30 -61 -22 -25 -66 -24 -89 1 -22
24 -12 39 15 22 23 -14 50 -16 50 -3 0 5 -16 15 -35 21 -26 9 -35 17 -35 34 0
47 61 63 96 25z m434 1 c41 -41 12 -120 -43 -120 -41 0 -62 24 -62 70 0 30 6
46 20 56 27 20 62 17 85 -6z m138 8 c5 -7 12 -38 14 -70 l5 -56 -46 0 c-51 0
-71 11 -71 39 0 21 28 39 59 39 13 0 21 6 21 16 0 13 -7 15 -40 9 -44 -7 -48
-4 -24 19 19 19 68 21 82 4z m122 -9 c0 -12 -7 -19 -20 -19 -17 0 -20 -7 -20
-50 0 -38 -4 -50 -15 -50 -12 0 -15 14 -15 69 l0 69 35 0 c28 0 35 -4 35 -19z
m-2743 5 c-3 -3 -12 -4 -19 -1 -8 3 -5 6 6 6 11 1 17 -2 13 -5z m13805 -16
l-22 -22 -22 22 -22 22 44 0 44 0 -22 -22z m-13982 -73 c0 -36 -4 -65 -9 -65
-14 0 -18 21 -13 78 6 74 22 65 22 -13z m90 0 c0 -37 -4 -65 -10 -65 -6 0 -10
28 -10 65 0 37 4 65 10 65 6 0 10 -28 10 -65z m90 0 c0 -37 -4 -65 -10 -65 -6
0 -10 28 -10 65 0 37 4 65 10 65 6 0 10 -28 10 -65z m90 0 c0 -37 -4 -65 -10
-65 -6 0 -10 28 -10 65 0 37 4 65 10 65 6 0 10 -28 10 -65z m13109 9 c6 -15 9
-29 6 -32 -3 -3 -5 0 -5 6 0 8 -7 9 -25 2 -29 -11 -29 -10 -13 25 14 32 22 32
37 -1z m66 2 c0 -10 -10 -22 -22 -27 -21 -8 -23 -5 -23 22 0 26 3 30 23 27 14
-2 22 -10 22 -22z m83 11 c7 -8 29 -12 58 -10 44 3 46 2 28 -12 -16 -13 -16
-14 -1 -9 9 3 17 2 17 -2 0 -5 -29 -10 -65 -10 -54 -1 -62 1 -49 11 18 13 11
35 -11 35 -7 0 -16 -12 -18 -27 -4 -26 -4 -26 -6 5 -1 25 3 32 18 32 10 0 23
-6 29 -13z m119 -39 c-3 -7 -5 -2 -5 12 0 14 2 19 5 13 2 -7 2 -19 0 -25z
m112 10 c-1 -17 -2 -19 -6 -5 -2 9 -7 17 -10 17 -3 0 -12 -8 -19 -17 -13 -17
-15 -17 -25 0 -12 21 -33 23 -25 2 3 -8 1 -15 -4 -15 -6 0 -10 9 -10 20 0 17
7 20 50 20 46 0 50 -2 49 -22z m31 12 c-11 -7 -12 -10 -2 -10 8 0 12 -5 10
-11 -6 -19 -21 -14 -24 9 -3 16 1 22 14 22 14 0 15 -2 2 -10z m-13910 -90 l0
-30 -570 0 -570 0 0 30 0 30 570 0 570 0 0 -30z m1630 0 l0 -30 -575 0 -575 0
0 30 0 30 575 0 575 0 0 -30z m-1292 -27 c-54 -2 -142 -2 -195 0 -54 1 -10 3
97 3 107 0 151 -2 98 -3z m-15 -30 c-51 -2 -136 -2 -190 0 -54 1 -12 3 92 3
105 0 149 -2 98 -3z m7607 -646 c0 -7 10 -17 22 -22 12 -6 25 -22 29 -37 6
-25 4 -28 -16 -28 -15 0 -26 8 -30 21 -8 24 -38 22 -43 -3 -2 -11 10 -24 38
-38 53 -27 69 -60 46 -95 -9 -14 -23 -25 -31 -25 -8 0 -15 -7 -15 -15 0 -8 -7
-15 -15 -15 -8 0 -15 7 -15 15 0 8 -5 15 -12 15 -19 0 -48 31 -48 52 0 25 34
23 52 -4 9 -14 20 -19 31 -15 29 11 19 35 -25 59 -37 20 -43 28 -46 61 -3 31
1 39 22 49 14 6 26 17 26 25 0 7 7 13 15 13 8 0 15 -6 15 -13z m-3340 -116 l0
-109 -47 -1 c-68 0 -80 6 -93 44 -19 59 11 115 62 115 24 0 28 4 28 30 0 25 4
30 25 30 l25 0 0 -109z m581 57 c0 -51 1 -52 16 -30 10 14 26 22 45 22 l29 0
-26 -35 -27 -34 32 -46 31 -45 -28 0 c-22 0 -34 8 -48 33 l-20 32 -3 -32 c-3
-27 -7 -33 -28 -33 -24 0 -24 0 -24 110 l0 110 25 0 c23 0 25 -3 26 -52z m389
33 c0 -30 -11 -51 -26 -51 -9 0 -14 12 -14 35 0 28 4 35 20 35 13 0 20 -7 20
-19z m810 -91 c0 -103 -1 -110 -20 -110 -19 0 -20 7 -20 110 0 103 1 110 20
110 19 0 20 -7 20 -110z m-2220 27 c0 -84 14 -113 48 -103 20 7 22 14 22 92 0
83 0 84 25 84 25 0 25 -1 25 -85 0 -103 -15 -125 -82 -125 -67 0 -78 17 -78
122 0 81 2 88 20 88 18 0 20 -7 20 -73z m1780 58 c0 -10 -10 -15 -30 -15 l-30
0 0 -90 c0 -89 0 -90 -25 -90 -25 0 -25 1 -25 90 l0 90 -30 0 c-20 0 -30 5
-30 15 0 12 16 15 85 15 69 0 85 -3 85 -15z m690 0 c0 -11 -12 -15 -50 -15
-49 0 -50 -1 -50 -30 0 -29 2 -30 45 -30 33 0 45 -4 45 -15 0 -11 -12 -15 -45
-15 -43 0 -45 -1 -45 -30 0 -29 1 -30 49 -30 27 0 51 -5 53 -10 2 -6 12 6 23
26 l19 36 -22 39 -23 39 25 0 c16 0 30 -8 37 -22 l12 -23 10 23 c6 14 19 22
34 22 28 0 28 -4 3 -46 l-21 -32 21 -34 c26 -42 25 -48 -3 -48 -15 0 -28 8
-34 22 l-10 23 -12 -23 c-11 -20 -19 -22 -111 -22 l-100 0 0 105 0 105 75 0
c60 0 75 -3 75 -15z m1502 3 c33 -26 27 -66 -18 -120 l-37 -43 42 -3 c28 -2
41 -8 41 -18 0 -11 -16 -14 -75 -14 -48 0 -75 4 -75 11 0 6 23 36 51 66 33 37
49 63 47 77 -4 29 -38 34 -45 7 -3 -14 -13 -21 -29 -21 -28 0 -31 16 -8 48 17
25 79 31 106 10z m187 -5 c0 -10 -17 -56 -38 -103 -32 -72 -42 -85 -64 -88
l-26 -3 39 84 c22 47 40 88 40 91 0 3 -22 6 -50 6 -38 0 -50 4 -50 15 0 12 15
15 75 15 65 0 75 -2 74 -17z m151 -53 c0 -40 4 -70 10 -70 6 0 10 -7 10 -15 0
-8 -4 -15 -10 -15 -5 0 -10 -9 -10 -20 0 -15 -7 -20 -25 -20 -18 0 -25 5 -25
20 0 17 -7 20 -45 20 -60 0 -59 7 11 118 26 40 39 52 59 52 24 0 25 -2 25 -70z
m170 55 c0 -11 -11 -15 -40 -15 -33 0 -40 -3 -40 -20 0 -15 7 -20 29 -20 35 0
61 -31 61 -72 0 -39 -32 -68 -75 -68 -34 0 -75 27 -75 50 0 16 42 11 55 -7 20
-27 47 -9 43 29 -3 32 -4 33 -45 30 -40 -3 -43 -1 -43 21 0 14 3 39 6 56 6 30
7 31 65 31 46 0 59 -3 59 -15z m216 7 c21 -14 34 -51 34 -97 0 -46 -13 -83
-34 -97 -14 -10 -68 -10 -83 0 -30 19 -44 123 -22 165 16 29 28 37 64 37 17 0
35 -4 41 -8z m174 -12 c16 -16 20 -33 20 -85 0 -77 -20 -105 -73 -105 -52 0
-72 29 -72 105 0 48 5 68 19 84 25 27 79 28 106 1z m-4090 -10 c0 -11 5 -20
10 -20 6 0 10 -7 10 -15 0 -8 -4 -15 -10 -15 -5 0 -10 -22 -10 -50 0 -27 5
-50 10 -50 6 0 10 -7 10 -15 0 -18 -41 -20 -58 -3 -7 7 -12 36 -12 65 0 53 0
53 -27 47 -42 -10 -43 -11 -43 -70 0 -51 -1 -54 -25 -54 -25 0 -25 1 -25 80
l0 80 60 0 c53 0 60 2 60 20 0 15 7 20 25 20 18 0 25 -5 25 -20z m1200 0 c0
-11 7 -20 15 -20 8 0 15 -7 15 -15 0 -8 -7 -15 -15 -15 -11 0 -15 -12 -15 -50
0 -38 4 -50 15 -50 8 0 15 -7 15 -16 0 -11 -8 -14 -32 -12 -33 3 -33 3 -36 66
-2 46 -7 62 -17 62 -8 0 -15 7 -15 15 0 8 7 15 15 15 8 0 15 9 15 20 0 13 7
20 20 20 13 0 20 -7 20 -20z m-1710 -39 c5 -11 10 -47 10 -80 0 -58 -1 -61
-25 -61 -23 0 -24 4 -27 63 -2 47 -7 62 -18 62 -11 0 -16 -15 -18 -62 -3 -59
-4 -63 -27 -63 -24 0 -25 2 -25 80 l0 80 60 0 c48 0 61 -4 70 -19z m314 -3 c9
-12 16 -35 16 -50 0 -27 -2 -28 -52 -28 -49 0 -51 -1 -36 -17 15 -14 21 -15
44 -4 20 9 30 9 38 1 16 -16 -20 -40 -61 -40 -46 0 -73 30 -73 80 0 51 27 80
74 80 25 0 39 -7 50 -22z m350 6 c11 -11 16 -35 16 -79 l0 -63 -55 -1 c-57 0
-85 15 -85 46 0 27 31 53 62 53 18 0 28 5 28 15 0 17 -25 20 -35 5 -9 -15 -45
-12 -45 3 0 37 83 52 114 21z m292 8 c16 -11 34 -48 34 -71 0 -18 -6 -21 -50
-21 -51 0 -67 -13 -30 -25 12 -4 28 -1 36 6 11 9 18 9 26 1 19 -19 -10 -42
-52 -42 -30 0 -43 6 -59 26 -42 54 -11 134 52 134 18 0 37 -4 43 -8z m134 -12
c0 -13 -7 -20 -20 -20 -18 0 -20 -7 -20 -60 0 -57 -1 -60 -25 -60 -25 0 -25 1
-25 80 l0 80 45 0 c38 0 45 -3 45 -20z m164 4 c9 -8 16 -20 16 -25 0 -13 -48
-11 -52 3 -3 7 -12 9 -22 5 -23 -9 -13 -23 21 -32 38 -9 53 -23 53 -51 0 -48
-98 -61 -127 -17 -14 20 -14 23 1 29 10 4 25 -1 36 -11 11 -10 26 -15 35 -11
22 8 11 22 -22 31 -15 3 -34 11 -40 17 -19 15 -16 55 5 67 26 16 79 13 96 -5z
m366 -4 c13 -13 20 -33 20 -60 0 -51 -27 -80 -75 -80 -47 0 -75 29 -75 78 0
50 29 82 75 82 22 0 43 -8 55 -20z m248 8 c5 -7 12 -43 14 -80 l4 -68 -56 0
c-63 0 -80 11 -80 52 0 30 23 48 64 48 14 0 26 5 26 10 0 16 -33 26 -38 12 -4
-12 -52 -17 -52 -5 0 3 7 15 17 25 19 21 85 25 101 6z m616 -10 c9 -12 16 -38
16 -58 0 -51 -24 -80 -66 -80 -31 0 -34 -2 -34 -30 0 -25 -4 -30 -25 -30 l-25
0 0 110 0 110 59 0 c51 0 62 -3 75 -22z m149 4 c9 -10 20 -33 23 -50 l7 -32
-52 0 c-28 0 -51 -5 -51 -10 0 -18 31 -24 53 -11 26 17 46 -1 27 -24 -19 -22
-85 -20 -110 5 -26 26 -26 80 1 114 25 32 77 36 102 8z m167 -1 c5 -11 10 -47
10 -80 0 -58 -1 -61 -25 -61 -23 0 -24 4 -27 63 -2 47 -7 62 -18 62 -11 0 -16
-15 -18 -62 -3 -59 -4 -63 -27 -63 -24 0 -25 2 -25 80 l0 80 60 0 c48 0 61 -4
70 -19z m142 2 c25 -22 23 -33 -7 -33 -14 0 -25 5 -25 10 0 13 -27 13 -35 0
-3 -5 11 -16 32 -25 38 -16 53 -30 53 -52 0 -42 -92 -60 -124 -24 -10 11 -15
25 -11 30 9 16 35 13 41 -4 8 -19 44 -20 44 -1 0 8 -12 17 -27 21 -16 4 -34
11 -40 17 -16 13 -17 50 -1 66 17 17 78 15 100 -5z m151 -1 c9 -10 20 -33 23
-50 l7 -32 -52 0 c-28 0 -51 -5 -51 -10 0 -18 31 -24 53 -11 26 17 46 -1 27
-24 -19 -22 -85 -20 -110 5 -27 27 -27 89 0 118 26 27 80 29 103 4z m151 2 c9
-8 16 -20 16 -25 0 -13 -48 -11 -52 3 -3 7 -12 9 -22 5 -23 -9 -13 -23 21 -32
38 -9 53 -23 53 -51 0 -27 -26 -44 -69 -44 -36 0 -79 36 -63 52 11 11 24 7 54
-14 13 -9 20 -10 29 -1 8 8 -1 16 -35 31 -37 17 -46 26 -46 46 0 14 8 30 18
35 26 16 79 13 96 -5z m81 -4 c0 -8 -10 -16 -22 -18 -18 -3 -23 2 -23 18 0 16
5 21 23 18 12 -2 22 -10 22 -18z m0 -120 c0 -8 -10 -16 -22 -18 -18 -3 -23 2
-23 18 0 16 5 21 23 18 12 -2 22 -10 22 -18z m960 0 c0 -8 -10 -16 -22 -18
-18 -3 -23 2 -23 18 0 16 5 21 23 18 12 -2 22 -10 22 -18z m1558 -447 c-2031
-2 -5355 -2 -7385 0 -2031 1 -370 2 3692 2 4062 0 5723 -1 3693 -2z m585 -210
c-203 -2 -533 -2 -735 0 -203 1 -37 2 367 2 404 0 570 -1 368 -2z m-11302 -60
l19 -58 3 45 c2 24 8 50 13 57 7 8 52 12 140 12 l129 1 0 -70 c0 -63 -2 -70
-20 -70 -18 0 -20 7 -20 55 0 48 -2 55 -20 55 -18 0 -20 -7 -20 -55 0 -48 -2
-55 -20 -55 -18 0 -20 7 -20 55 0 48 -2 55 -20 55 -11 0 -20 -4 -20 -10 0 -14
-33 -13 -47 1 -17 17 -33 2 -33 -31 0 -33 16 -48 33 -31 11 11 47 15 47 5 0
-3 -5 -14 -10 -25 -12 -22 -78 -27 -98 -7 -9 9 -12 9 -12 0 0 -7 -9 -12 -20
-12 -11 0 -20 5 -20 10 0 6 -11 10 -25 10 -14 0 -25 -4 -25 -10 0 -5 -11 -10
-24 -10 l-23 0 25 70 c20 58 29 70 47 70 17 0 25 -11 41 -57z m428 35 c21 -29
20 -77 -1 -100 -23 -26 -78 -24 -97 4 -36 51 -8 118 49 118 24 0 39 -7 49 -22z
m86 -10 l20 -33 0 33 c0 25 4 32 20 32 18 0 20 -7 20 -70 0 -64 -2 -70 -20
-70 -12 0 -28 13 -40 33 l-20 32 0 -32 c0 -26 -4 -33 -20 -33 -18 0 -20 7 -20
70 0 64 2 70 20 70 12 0 28 -13 40 -32z m180 12 c9 -16 8 -22 -5 -26 -8 -4
-22 -1 -30 6 -8 6 -20 10 -27 7 -7 -2 3 -12 24 -22 42 -21 52 -38 38 -66 -12
-22 -78 -27 -98 -7 -18 18 -14 38 8 38 11 0 20 -4 20 -10 0 -5 7 -10 15 -10
25 0 17 17 -15 30 -60 25 -46 80 21 80 28 0 41 -5 49 -20z m9467 -162 c-2 -29
-3 -8 -3 47 0 55 1 79 3 53 2 -26 2 -71 0 -100z m1550 0 c-2 -29 -3 -8 -3 47
0 55 1 79 3 53 2 -26 2 -71 0 -100z m-1390 50 l28 -73 3 53 c2 37 7 52 18 52
10 0 14 -12 14 -45 0 -38 3 -45 20 -45 11 0 20 -4 20 -10 0 -6 -27 -10 -60
-10 -47 0 -60 3 -60 15 0 10 -10 15 -30 15 -20 0 -30 -5 -30 -15 0 -8 -9 -15
-20 -15 -11 0 -20 2 -20 4 0 3 12 37 26 75 35 96 53 95 91 -1z m355 55 c24
-21 23 -33 -2 -33 -11 0 -20 5 -20 11 0 6 -10 9 -22 7 -20 -3 -23 -9 -23 -43
0 -34 3 -40 23 -43 12 -2 22 1 22 7 0 6 9 11 20 11 24 0 25 -8 3 -32 -23 -26
-78 -24 -97 4 -37 52 -9 128 46 128 17 0 40 -7 50 -17z m-6790 -10 c23 -20 24
-80 1 -105 -11 -12 -30 -18 -60 -18 l-43 0 0 70 0 70 42 0 c24 0 49 -7 60 -17z
m239 1 c9 -11 13 -11 26 1 29 30 103 14 103 -22 0 -16 -37 -17 -42 -1 -8 24
-38 -1 -38 -32 0 -31 30 -56 38 -32 5 16 42 15 42 -1 0 -36 -74 -52 -103 -22
-13 12 -17 12 -26 1 -9 -10 -40 -14 -111 -15 l-100 0 0 69 0 69 100 0 c71 -1
102 -5 111 -15z m237 4 c15 -15 16 -50 1 -65 -8 -8 -7 -17 5 -34 15 -23 16
-21 16 44 0 60 2 67 20 67 18 0 20 -7 20 -70 l0 -70 -44 0 c-34 0 -47 5 -59
23 l-16 22 0 -22 c-1 -16 -7 -23 -21 -23 -18 0 -20 7 -20 70 l0 70 43 0 c24 0
48 -5 55 -12z m180 0 c9 -9 12 -9 12 0 0 8 20 12 60 12 47 0 60 -3 60 -15 0
-8 -9 -15 -20 -15 -18 0 -20 -7 -20 -55 0 -48 -2 -55 -20 -55 -18 0 -20 7 -20
55 0 48 -3 55 -19 55 -14 0 -21 -8 -23 -27 -2 -21 -10 -29 -35 -37 -22 -6 -33
-15 -33 -27 0 -14 -7 -19 -25 -19 -24 0 -25 2 -25 70 l0 70 48 0 c26 0 53 -5
60 -12z m182 -58 c0 -63 -2 -70 -20 -70 -18 0 -20 7 -20 70 0 63 2 70 20 70
18 0 20 -7 20 -70z m118 58 c5 -7 12 -22 15 -33 3 -13 5 -9 6 13 1 27 5 32 26
32 18 0 30 -10 44 -37 l20 -38 1 38 c0 30 4 37 20 37 18 0 20 -7 20 -70 0 -66
-1 -70 -23 -70 -14 0 -29 11 -39 28 l-17 27 -1 -27 c0 -23 -4 -28 -25 -28 -21
0 -25 5 -26 33 -1 21 -3 25 -6 12 -8 -33 -24 -45 -59 -45 -43 0 -64 23 -64 70
0 22 7 45 16 54 18 19 77 21 92 4z m2699 -53 l22 -60 0 63 c1 63 1 63 28 60
20 -2 29 -11 39 -38 l12 -35 11 28 c6 16 11 33 11 38 0 5 14 9 30 9 26 0 30
-4 30 -27 l0 -28 13 25 c9 19 22 26 48 28 47 4 69 -18 69 -68 0 -50 -22 -72
-69 -68 -26 2 -39 9 -48 28 l-13 25 0 -27 c0 -23 -4 -28 -25 -28 -17 0 -25 6
-26 18 -1 16 -2 16 -6 0 -7 -28 -40 -22 -51 10 l-10 27 -1 -27 c-1 -26 -4 -28
-40 -28 -22 0 -43 5 -46 10 -8 13 -42 13 -47 -1 -2 -6 -13 -9 -25 -7 l-21 3
25 68 c22 57 29 68 47 65 16 -2 27 -18 43 -63z m363 10 c0 -42 3 -55 15 -55
12 0 15 13 15 55 l0 55 50 0 c46 0 51 -3 67 -32 l18 -33 3 33 3 32 80 0 c64 0
79 -3 79 -15 0 -8 -9 -15 -20 -15 -18 0 -20 -7 -20 -55 0 -48 -2 -55 -20 -55
-18 0 -20 7 -20 55 0 48 -2 55 -20 55 -18 0 -20 -7 -20 -55 0 -51 -2 -55 -23
-55 -16 0 -28 9 -37 28 l-14 27 -4 -27 c-3 -22 -9 -28 -28 -28 -18 0 -24 5
-24 22 l0 22 -16 -22 c-17 -25 -71 -31 -92 -10 -7 7 -12 38 -12 70 0 51 2 58
20 58 18 0 20 -7 20 -55z m2560 -20 c0 -41 2 -45 25 -45 14 0 25 -4 25 -10 0
-5 -18 -10 -40 -10 l-40 0 0 55 c0 42 3 55 15 55 11 0 15 -12 15 -45z m317 -7
c18 -46 18 -53 5 -56 -8 -2 -18 2 -23 10 -7 10 -12 11 -29 1 -42 -27 -42 -18
-5 85 10 27 33 9 52 -40z m183 42 c0 -5 -11 -10 -25 -10 -14 0 -25 -4 -25 -10
0 -5 11 -10 25 -10 14 0 25 -4 25 -10 0 -5 -11 -10 -25 -10 -16 0 -25 -6 -25
-15 0 -9 9 -15 25 -15 14 0 25 -4 25 -10 0 -5 -18 -10 -40 -10 l-40 0 0 45 c0
33 -4 45 -15 45 -11 0 -15 -12 -15 -45 0 -33 -4 -45 -15 -45 -11 0 -15 12 -15
45 0 38 -3 45 -20 45 -11 0 -20 5 -20 10 0 6 37 10 90 10 53 0 90 -4 90 -10z
m88 -2 c16 -16 15 -28 -3 -28 -8 0 -15 5 -15 10 0 6 -7 10 -15 10 -10 0 -15
-11 -15 -35 0 -24 5 -35 15 -35 8 0 15 5 15 10 0 6 -4 10 -10 10 -5 0 -10 5
-10 10 0 6 12 10 26 10 22 0 25 -4 22 -27 -2 -22 -9 -29 -31 -31 -37 -5 -57
13 -57 52 0 37 15 56 45 56 12 0 26 -5 33 -12z m106 -10 l16 -22 0 22 c0 19 5
22 40 22 45 0 61 -20 42 -50 -6 -10 -7 -22 -1 -31 13 -20 11 -29 -5 -29 -8 0
-18 9 -21 20 -3 11 -11 20 -16 20 -5 0 -9 -9 -9 -20 0 -11 -7 -20 -15 -20 -9
0 -15 9 -15 22 l0 22 -16 -22 c-17 -24 -53 -29 -72 -10 -7 7 -12 26 -12 43 0
17 5 36 12 43 19 19 55 14 72 -10z m146 -33 c0 -42 -3 -55 -15 -55 -12 0 -15
13 -15 55 0 42 3 55 15 55 12 0 15 -13 15 -55z m90 45 c0 -5 -11 -10 -25 -10
-14 0 -25 -4 -25 -10 0 -5 11 -10 25 -10 14 0 25 -4 25 -10 0 -5 -11 -10 -25
-10 -16 0 -25 -6 -25 -15 0 -9 9 -15 25 -15 14 0 25 -4 25 -10 0 -5 -18 -10
-40 -10 l-40 0 0 55 0 55 40 0 c22 0 40 -4 40 -10z m87 -5 c7 -21 -4 -32 -19
-17 -14 14 -28 16 -28 4 0 -5 12 -14 26 -20 38 -18 30 -56 -14 -60 -22 -2 -34
2 -38 13 -8 21 3 32 18 17 14 -14 28 -16 28 -4 0 5 -11 14 -25 20 -23 11 -33
40 -18 55 13 13 64 7 70 -8z m163 3 c0 -7 -12 -21 -26 -32 -26 -18 -26 -18
-47 3 -25 25 -17 38 12 19 18 -11 23 -10 38 5 21 20 23 21 23 5z m-342 -165
c-203 -2 -533 -2 -735 0 -203 1 -37 2 367 2 404 0 570 -1 368 -2z m-585 -120
c-2031 -2 -5355 -2 -7385 0 -2031 1 -370 2 3692 2 4062 0 5723 -1 3693 -2z
m-3203 -163 c22 -22 27 -50 9 -50 -7 0 -17 7 -24 17 -8 10 -14 12 -19 5 -3 -6
7 -20 24 -32 35 -25 39 -58 10 -83 -26 -22 -28 -22 -57 9 -30 32 -16 59 16 30
13 -12 21 -14 26 -6 4 6 5 12 4 14 -2 1 -16 10 -31 19 -32 20 -36 48 -10 76
22 25 28 25 52 1z m-3662 -41 l18 -42 12 42 c11 34 17 41 37 41 24 0 25 -2 25
-70 0 -63 -2 -70 -20 -70 -15 0 -20 7 -21 28 l-1 27 -10 -27 c-13 -37 -35 -35
-52 5 l-14 32 -1 -32 c-1 -22 -6 -33 -16 -33 -12 0 -15 14 -15 70 0 64 2 70
20 70 15 0 26 -12 38 -41z m3780 29 c19 -19 14 -44 -14 -77 l-26 -31 26 0 c14
0 26 -4 26 -10 0 -5 -22 -10 -50 -10 -27 0 -50 3 -50 8 1 4 14 23 30 42 30 34
38 60 20 60 -5 0 -10 -4 -10 -10 0 -5 -9 -10 -20 -10 -11 0 -20 6 -20 13 0 21
22 37 50 37 14 0 31 -5 38 -12z m122 3 c0 -5 -12 -11 -27 -13 -30 -3 -44 -28
-16 -28 25 0 43 -19 43 -45 0 -28 -19 -45 -50 -45 -26 0 -50 16 -50 33 0 5 13
7 30 4 16 -4 31 -3 34 1 8 14 -8 29 -29 28 -23 -1 -25 3 -25 44 0 29 2 30 45
30 25 0 45 -4 45 -9z m100 -10 c5 -11 10 -34 10 -51 0 -46 -16 -70 -48 -70
-39 0 -52 17 -52 70 0 25 5 51 12 58 19 19 66 15 78 -7z m110 0 c5 -11 10 -34
10 -51 0 -46 -16 -70 -48 -70 -39 0 -52 17 -52 70 0 25 5 51 12 58 19 19 66
15 78 -7z m158 7 c7 -7 12 -33 12 -58 0 -51 -13 -70 -46 -70 -30 0 -49 26 -49
70 0 21 7 45 14 54 16 19 52 21 69 4z m110 0 c7 -7 12 -33 12 -58 0 -53 -13
-70 -52 -70 -21 0 -31 6 -38 26 -22 58 -4 114 38 114 15 0 33 -5 40 -12z
m1962 -37 c0 -28 6 -53 13 -60 21 -16 27 -3 27 56 0 46 3 53 20 53 15 0 20 -7
20 -25 0 -24 3 -25 60 -25 l60 0 0 -45 c0 -33 -4 -45 -15 -45 -10 0 -15 11
-15 35 0 24 -5 35 -15 35 -10 0 -15 -11 -15 -35 0 -24 -5 -35 -15 -35 -10 0
-15 11 -15 35 0 24 -5 35 -15 35 -8 0 -15 -9 -15 -19 0 -28 -27 -51 -59 -51
-40 0 -51 18 -51 82 0 45 3 58 15 58 11 0 15 -12 15 -49z m-9277 -9 c15 -15
27 -32 27 -38 0 -5 -39 -48 -87 -96 -73 -72 -97 -89 -141 -102 l-52 -15 6 27
c4 15 12 41 19 58 16 40 163 194 185 194 9 0 28 -13 43 -28z m3116 -9 c10 -17
10 -17 11 -1 0 15 12 17 117 15 89 -2 117 -5 121 -16 3 -10 -2 -12 -21 -7 -16
4 -27 1 -30 -7 -5 -15 3 -37 14 -37 4 0 6 7 3 15 -4 11 0 15 16 15 16 0 21 -5
18 -22 -2 -19 -9 -23 -38 -23 -32 0 -35 3 -38 33 -5 46 -32 43 -32 -3 0 -24
-5 -35 -15 -35 -10 0 -15 11 -15 35 0 19 -4 35 -9 35 -13 0 -22 -30 -16 -51 8
-24 -13 -25 -31 -1 -13 16 -13 16 -14 0 0 -10 -7 -18 -15 -18 -8 0 -15 8 -15
18 -1 16 -1 16 -11 0 -21 -36 -79 -16 -79 27 0 43 58 63 79 28z m326 -15 c11
-25 14 -28 15 -12 0 39 50 60 78 32 9 -9 12 -9 12 0 0 7 14 12 35 12 38 0 50
-20 13 -21 -22 0 -22 -1 2 -11 25 -11 25 -11 3 -15 -28 -5 -30 -23 -3 -23 11
0 20 -4 20 -10 0 -13 -132 -11 -149 3 -11 9 -13 9 -8 1 5 -8 -8 -11 -42 -11
l-49 1 16 43 c19 51 38 55 57 11z m6065 -2 c0 -28 4 -34 25 -38 23 -5 25 -2
25 33 l0 39 70 0 70 0 0 -45 c0 -25 -4 -45 -10 -45 -5 0 -10 16 -10 35 0 28
-4 35 -20 35 -16 0 -20 -7 -20 -35 0 -19 -4 -35 -10 -35 -5 0 -10 16 -10 35 0
24 -5 35 -15 35 -10 0 -15 -11 -15 -35 l0 -35 -50 0 -50 0 0 45 c0 25 5 45 10
45 6 0 10 -15 10 -34z m270 24 c0 -5 -10 -10 -22 -11 -22 0 -22 -1 2 -11 25
-11 25 -11 3 -15 -42 -8 -23 -21 28 -20 49 1 49 1 24 15 -35 18 -30 47 9 47
16 0 31 -6 34 -14 4 -11 -2 -12 -24 -7 l-29 6 28 -16 c17 -9 27 -22 25 -32 -3
-14 -17 -17 -76 -19 l-72 -3 0 45 c0 45 0 45 35 45 19 0 35 -4 35 -10z m-2672
-68 c2 -7 -6 -12 -17 -12 -21 0 -27 11 -14 24 9 9 26 2 31 -12z m2695 -369
c-2031 -2 -5355 -2 -7385 0 -2031 1 -370 2 3692 2 4062 0 5723 -1 3693 -2z
m-3202 -165 c10 -13 18 -29 19 -35 0 -18 -21 -16 -35 4 -8 10 -14 12 -19 5 -3
-6 7 -20 24 -32 35 -25 39 -58 10 -83 -26 -22 -28 -22 -57 9 -30 32 -16 59 16
30 13 -12 21 -14 26 -6 4 6 5 12 4 14 -2 1 -16 10 -31 19 -32 20 -35 39 -10
72 21 30 29 31 53 3z m-3621 -7 c0 -6 -15 -11 -32 -13 -46 -4 -53 -38 -9 -38
38 0 41 -18 4 -22 -40 -4 -36 -32 5 -36 31 -3 32 -2 32 32 0 25 4 36 15 36 10
0 15 -11 15 -35 0 -28 4 -35 20 -35 16 0 20 7 20 35 0 33 2 35 35 35 38 0 50
-20 13 -21 -22 0 -22 -1 -3 -8 14 -6 24 -3 32 10 11 14 30 17 120 18 76 1 109
-2 115 -11 6 -10 8 -10 8 0 0 6 7 12 15 12 11 0 15 -12 15 -45 0 -43 -1 -45
-30 -45 -17 0 -33 7 -39 18 -10 16 -10 16 -11 0 0 -10 -7 -18 -15 -18 -10 0
-15 11 -15 35 0 24 -5 35 -15 35 -10 0 -15 -11 -15 -35 0 -24 -5 -35 -15 -35
-10 0 -15 10 -15 34 0 32 -1 33 -40 33 -36 0 -40 -2 -40 -24 0 -22 3 -24 26
-19 19 5 25 3 22 -6 -8 -23 -56 -22 -70 1 -13 21 -48 29 -48 11 0 -5 9 -10 20
-10 11 0 20 -4 20 -10 0 -6 -47 -10 -120 -10 l-120 0 0 70 0 70 50 0 c28 0 50
-4 50 -9z m858 -3 c5 -7 10 -33 10 -58 0 -58 -11 -70 -64 -70 l-44 0 0 70 0
70 44 0 c24 0 48 -6 54 -12z m2872 -58 c0 -63 -2 -70 -20 -70 -17 0 -20 7 -20
50 0 38 -4 50 -15 50 -23 0 -18 19 8 30 44 18 47 14 47 -60z m122 18 c2 -29 2
-61 0 -70 -5 -22 -42 -24 -42 -3 0 9 -9 15 -25 15 -31 0 -31 12 0 67 37 62 62
59 67 -9z m118 43 c0 -5 -12 -11 -27 -13 -30 -3 -44 -28 -16 -28 25 0 43 -19
43 -45 0 -28 -19 -45 -50 -45 -26 0 -50 16 -50 33 0 5 13 7 30 4 16 -4 31 -3
34 1 8 14 -8 29 -29 28 -23 -1 -25 3 -25 44 0 29 2 30 45 30 25 0 45 -4 45 -9z
m148 -3 c7 -7 12 -33 12 -58 0 -51 -13 -70 -46 -70 -30 0 -49 26 -49 70 0 21
7 45 14 54 16 19 52 21 69 4z m110 0 c7 -7 12 -33 12 -58 0 -51 -13 -70 -46
-70 -30 0 -49 26 -49 70 0 21 7 45 14 54 16 19 52 21 69 4z m2072 -37 c0 -28
6 -53 13 -60 21 -16 27 -3 27 56 0 46 3 53 20 53 15 0 20 -7 20 -25 0 -24 3
-25 60 -25 l60 0 0 -45 c0 -33 -4 -45 -15 -45 -10 0 -15 11 -15 35 0 24 -5 35
-15 35 -10 0 -15 -11 -15 -35 0 -24 -5 -35 -15 -35 -10 0 -15 11 -15 35 0 24
-5 35 -15 35 -8 0 -15 -9 -15 -19 0 -28 -27 -51 -59 -51 -40 0 -51 18 -51 82
0 45 3 58 15 58 11 0 15 -12 15 -49z m-9277 -9 c15 -15 27 -32 27 -38 0 -5
-39 -48 -87 -96 -73 -72 -97 -89 -141 -102 l-52 -15 6 27 c4 15 11 38 16 51
12 34 168 201 188 201 9 0 28 -13 43 -28z m3481 -7 c4 -12 -1 -15 -22 -13 -21
2 -27 -1 -27 -17 0 -16 6 -19 27 -17 22 2 26 -1 22 -13 -5 -11 -16 -15 -38
-13 -26 2 -32 8 -34 31 -2 16 -1 35 2 43 7 19 62 18 70 -1z m160 3 c5 -10 7
-10 12 0 6 13 34 17 34 5 0 -5 -7 -17 -15 -27 -8 -11 -15 -28 -15 -38 0 -10
-7 -18 -15 -18 -8 0 -15 9 -15 19 0 33 -11 51 -31 51 -15 0 -19 -7 -19 -35 0
-24 -5 -35 -15 -35 -10 0 -15 11 -15 35 0 24 -5 35 -15 35 -10 0 -15 -11 -15
-35 0 -19 -4 -35 -10 -35 -5 0 -10 20 -10 45 l0 45 69 0 c46 0 71 -4 75 -12z
m246 -33 c0 -33 -4 -45 -15 -45 -11 0 -15 12 -15 45 0 33 4 45 15 45 11 0 15
-12 15 -45z m40 10 c0 -28 4 -35 20 -35 16 0 20 7 20 35 0 24 5 35 15 35 10 0
15 -11 15 -35 0 -28 4 -35 20 -35 11 0 20 -4 20 -10 0 -6 -30 -10 -70 -10
l-70 0 0 45 c0 33 4 45 15 45 10 0 15 -11 15 -35z m5580 0 c0 -31 3 -35 25
-35 22 0 25 4 25 35 l0 35 70 0 70 0 0 -45 c0 -25 -4 -45 -10 -45 -5 0 -10 16
-10 35 0 28 -4 35 -20 35 -16 0 -20 -7 -20 -35 0 -19 -4 -35 -10 -35 -5 0 -10
16 -10 35 0 24 -5 35 -15 35 -10 0 -15 -11 -15 -35 l0 -35 -50 0 -50 0 0 45
c0 25 5 45 10 45 6 0 10 -16 10 -35z m270 25 c0 -5 -10 -10 -22 -11 -22 0 -22
-1 2 -11 25 -11 25 -11 3 -15 -42 -8 -23 -21 28 -20 49 1 49 1 24 15 -35 18
-30 47 9 47 16 0 31 -6 34 -14 4 -11 -2 -12 -24 -7 l-29 6 28 -16 c17 -9 27
-22 25 -32 -3 -14 -17 -17 -76 -19 l-72 -3 0 45 c0 45 0 45 35 45 19 0 35 -4
35 -10z m-2780 -65 c0 -8 -9 -15 -20 -15 -20 0 -26 11 -13 23 12 13 33 7 33
-8z m2803 -372 c-2031 -2 -5355 -2 -7385 0 -2031 1 -370 2 3692 2 4062 0 5723
-1 3693 -2z m-3202 -165 c10 -13 18 -29 19 -35 0 -18 -21 -16 -35 4 -8 10 -14
12 -19 5 -3 -6 7 -20 24 -32 35 -25 39 -58 10 -83 -26 -22 -28 -22 -57 9 -30
32 -16 59 16 30 13 -12 21 -14 26 -6 4 6 5 12 4 14 -2 1 -16 10 -31 19 -32 20
-35 39 -10 72 21 30 29 31 53 3z m-3689 -50 c2 -41 7 -54 21 -56 14 -3 17 5
17 52 0 49 2 56 20 56 18 0 20 -7 20 -54 0 -62 -16 -86 -59 -86 -40 0 -51 18
-51 82 0 44 4 58 14 58 11 0 16 -15 18 -52z m3818 43 c0 -5 -12 -11 -27 -13
-36 -4 -41 -26 -6 -30 22 -2 29 -9 31 -31 6 -53 -46 -77 -84 -39 -17 16 -17
17 0 20 9 2 23 -2 31 -8 12 -10 16 -9 21 3 9 24 -5 38 -32 31 -22 -6 -24 -4
-24 35 l0 41 45 0 c25 0 45 -4 45 -9z m100 -10 c5 -11 10 -34 10 -51 0 -47
-16 -70 -50 -70 -34 0 -50 23 -50 70 0 47 16 70 50 70 19 0 33 -7 40 -19z
m158 7 c7 -7 12 -33 12 -58 0 -51 -13 -70 -46 -70 -30 0 -49 26 -49 70 0 21 7
45 14 54 16 19 52 21 69 4z m110 0 c7 -7 12 -33 12 -58 0 -51 -13 -70 -46 -70
-30 0 -49 26 -49 70 0 21 7 45 14 54 16 19 52 21 69 4z m2258 -13 c14 -22 24
-25 70 -25 47 0 54 -2 54 -20 0 -11 7 -20 15 -20 8 0 15 9 15 20 0 11 7 20 15
20 11 0 15 -12 15 -45 0 -33 -4 -45 -15 -45 -8 0 -15 7 -15 15 0 8 -7 15 -15
15 -8 0 -15 -7 -15 -15 0 -8 -4 -15 -10 -15 -5 0 -10 16 -10 35 0 24 -5 35
-15 35 -10 0 -15 -11 -15 -35 0 -24 -5 -35 -15 -35 -10 0 -15 11 -15 35 0 44
-20 46 -40 2 -17 -37 -61 -48 -95 -23 -27 20 -27 92 0 112 30 23 72 17 91 -11z
m-9354 -32 c15 -15 28 -32 28 -38 0 -6 -39 -49 -87 -97 -73 -72 -97 -89 -141
-102 l-52 -15 6 27 c4 15 12 39 18 54 13 32 170 198 188 198 6 0 25 -12 40
-27z m3069 -5 c0 -10 2 -10 6 0 8 20 39 14 51 -10 l11 -23 0 23 c1 13 7 22 16
22 11 0 15 -12 15 -45 0 -51 -18 -60 -44 -23 l-16 22 0 -22 c0 -18 -6 -22 -30
-22 -17 0 -33 7 -39 18 -10 16 -10 16 -11 0 0 -10 -7 -18 -15 -18 -11 0 -15
12 -15 45 0 45 0 45 35 45 21 0 35 -5 36 -12z m6625 -35 c0 -46 -10 -54 -32
-25 -13 16 -13 16 -14 0 0 -15 -9 -18 -50 -18 l-50 0 0 45 0 46 73 -3 72 -3 1
-42z m-2806 -28 c0 -8 -9 -15 -20 -15 -20 0 -26 11 -13 23 12 13 33 7 33 -8z
m2913 -372 c-2031 -2 -5355 -2 -7385 0 -2031 1 -370 2 3692 2 4062 0 5723 -1
3693 -2z m-3203 -163 c22 -22 27 -50 9 -50 -7 0 -17 7 -24 17 -8 10 -14 12
-19 5 -3 -6 7 -20 24 -32 35 -25 39 -58 10 -83 -26 -22 -28 -22 -57 9 -30 32
-16 59 16 30 13 -12 21 -14 26 -6 4 6 5 12 4 14 -2 1 -16 10 -31 19 -32 20
-35 39 -10 72 21 30 27 30 52 5z m-3626 -22 c9 -12 16 -34 16 -48 0 -44 -26
-70 -71 -70 l-39 0 0 70 0 70 39 0 c30 0 44 -6 55 -22z m3756 13 c0 -5 -12
-11 -27 -13 -36 -4 -41 -26 -6 -30 22 -2 29 -9 31 -31 6 -53 -46 -77 -84 -39
-17 16 -17 17 0 20 9 2 23 -2 31 -8 12 -10 16 -9 21 3 9 24 -5 38 -32 31 -22
-6 -24 -4 -24 35 l0 41 45 0 c25 0 45 -4 45 -9z m100 -10 c5 -11 10 -34 10
-51 0 -46 -16 -70 -48 -70 -39 0 -52 17 -52 70 0 25 5 51 12 58 19 19 66 15
78 -7z m158 7 c7 -7 12 -33 12 -58 0 -51 -13 -70 -46 -70 -30 0 -49 26 -49 70
0 21 7 45 14 54 16 19 52 21 69 4z m110 0 c7 -7 12 -33 12 -58 0 -51 -13 -70
-46 -70 -30 0 -49 26 -49 70 0 21 7 45 14 54 16 19 52 21 69 4z m2256 -10 c15
-24 0 -34 -29 -18 -32 17 -48 4 -43 -36 2 -21 9 -30 26 -32 12 -2 22 1 22 7 0
6 -7 11 -15 11 -8 0 -15 5 -15 10 0 6 14 10 31 10 28 0 30 -2 27 -32 -3 -30
-7 -33 -38 -36 -50 -4 -75 17 -75 66 0 22 7 47 14 56 18 22 80 18 95 -6z
m-9351 -36 c15 -15 27 -32 27 -38 0 -5 -39 -48 -87 -96 -73 -72 -97 -89 -140
-102 -29 -8 -53 -14 -53 -12 0 1 7 27 16 57 13 44 31 68 97 136 44 46 88 83
97 83 9 0 28 -13 43 -28z m3027 -37 c0 -33 -4 -45 -15 -45 -11 0 -15 12 -15
45 0 33 4 45 15 45 11 0 15 -12 15 -45z m49 28 c10 -17 10 -17 11 0 0 9 7 17
15 17 11 0 15 -12 15 -45 0 -51 -17 -60 -43 -22 l-16 22 0 -22 c-1 -44 -21
-23 -21 22 0 48 19 62 39 28z m94 -5 l16 -23 0 23 c1 43 21 22 21 -23 0 -48
-13 -58 -36 -27 -13 16 -13 16 -14 0 0 -10 -7 -18 -15 -18 -11 0 -15 12 -15
45 0 51 17 60 43 23z m193 -25 c0 -46 -10 -54 -32 -25 -13 16 -13 16 -14 0 0
-15 -9 -18 -50 -18 l-50 0 0 45 0 46 73 -3 72 -3 1 -42z m6082 31 c8 -15 10
-15 15 0 9 23 53 20 70 -4 l14 -21 6 21 c6 23 45 28 65 8 9 -9 12 -9 12 0 0 9
20 12 73 10 l72 -3 1 -42 c0 -46 -10 -54 -32 -25 -13 16 -13 16 -14 0 0 -15
-9 -18 -50 -18 -32 0 -50 4 -50 12 0 9 -3 9 -12 0 -20 -20 -59 -15 -65 8 l-6
21 -14 -21 c-21 -29 -59 -26 -78 8 l-16 27 6 -27 c6 -32 -10 -38 -31 -10 -13
16 -13 16 -14 0 0 -10 -7 -18 -15 -18 -11 0 -15 12 -15 45 0 45 0 45 35 45 21
0 37 -6 43 -16z m372 -29 c0 -33 -4 -45 -15 -45 -11 0 -15 12 -15 45 0 33 4
45 15 45 11 0 15 -12 15 -45z m148 26 c3 -10 -2 -11 -19 -6 l-24 6 24 -19 c41
-33 22 -50 -53 -51 l-66 0 0 44 0 45 67 -2 c45 -2 68 -7 71 -17z m-3078 -56
c0 -8 -6 -15 -14 -15 -17 0 -28 14 -19 24 12 12 33 6 33 -9z m2913 -382
c-2031 -2 -5355 -2 -7385 0 -2031 1 -370 2 3692 2 4062 0 5723 -1 3693 -2z
m-3198 -158 c19 -20 25 -22 35 -10 16 19 200 21 200 1 0 -7 -11 -39 -25 -70
-18 -41 -30 -56 -45 -56 -25 0 -25 2 0 50 26 52 25 57 -10 62 -25 4 -30 1 -30
-17 0 -12 -9 -30 -21 -41 l-21 -19 23 -5 c12 -3 24 -11 27 -18 2 -8 -13 -12
-52 -12 -31 0 -56 4 -56 8 0 4 13 23 30 42 30 36 38 60 20 60 -5 0 -10 -4 -10
-10 0 -12 -71 -10 -87 3 -9 6 -13 6 -13 -1 0 -6 10 -17 23 -23 43 -23 46 -39
13 -73 -28 -31 -30 -32 -61 -4 -30 26 -32 48 -5 48 11 0 20 -4 20 -10 0 -5 5
-10 10 -10 19 0 10 20 -14 31 -34 16 -39 44 -13 74 27 31 34 31 62 0z m335
-40 c0 -42 1 -44 37 -54 40 -11 48 -9 40 12 -3 10 -15 13 -31 10 -28 -6 -32 7
-20 55 5 19 13 22 51 22 50 0 57 -23 10 -28 -35 -4 -35 -20 1 -24 21 -2 28 -9
30 -31 2 -16 -2 -35 -9 -43 -16 -19 -58 -18 -81 2 -16 16 -18 16 -24 0 -6 -17
-44 -23 -44 -7 0 5 -12 11 -27 13 -35 4 -34 20 1 76 16 26 34 42 46 42 17 0
20 -7 20 -45z m279 28 c9 -17 11 -17 23 0 10 13 24 18 48 15 29 -2 36 -8 44
-35 5 -20 5 -46 0 -65 -8 -28 -15 -34 -44 -36 -24 -3 -38 2 -48 15 -12 17 -14
17 -23 1 -6 -12 -22 -18 -44 -18 -39 0 -55 20 -55 70 0 50 16 70 55 70 22 0
38 -6 44 -17z m-109 -108 c0 -8 -9 -15 -20 -15 -11 0 -20 7 -20 15 0 8 9 15
20 15 11 0 20 -7 20 -15z m2693 -202 c-2031 -2 -5355 -2 -7385 0 -2031 1 -370
2 3692 2 4062 0 5723 -1 3693 -2z"/>
<path d="M15560 6920 c0 -28 3 -30 35 -30 32 0 35 2 35 30 0 28 -3 30 -35 30
-32 0 -35 -2 -35 -30z m50 -12 c0 -5 -9 -8 -20 -8 -18 0 -19 3 -9 21 9 17 13
19 20 8 5 -8 9 -17 9 -21z"/>
<path d="M1150 6850 c0 -28 3 -31 28 -28 21 2 27 8 27 28 0 20 -6 26 -27 28
-25 3 -28 0 -28 -28z"/>
<path d="M2610 6850 c0 -23 5 -30 19 -30 10 0 24 6 30 14 17 20 3 46 -25 46
-20 0 -24 -5 -24 -30z"/>
<path d="M2792 6822 c-10 -29 -9 -32 9 -32 20 0 23 12 10 44 -7 18 -9 16 -19
-12z"/>
<path d="M3440 6850 c0 -23 5 -30 19 -30 24 0 45 25 37 45 -3 8 -17 15 -31 15
-21 0 -25 -5 -25 -30z"/>
<path d="M4480 6780 c0 -33 4 -40 19 -40 21 0 32 29 24 60 -3 11 -14 20 -24
20 -15 0 -19 -7 -19 -40z"/>
<path d="M5004 6806 c-11 -28 0 -61 21 -61 16 0 20 7 20 35 0 25 -5 36 -18 38
-9 2 -20 -3 -23 -12z"/>
<path d="M3890 6805 c0 -56 3 -65 18 -65 29 0 42 21 42 65 0 44 -13 65 -42 65
-15 0 -18 -9 -18 -65z"/>
<path d="M4057 6763 c-13 -12 -7 -23 13 -23 11 0 20 7 20 15 0 15 -21 21 -33
8z"/>
<path d="M4624 6806 c-10 -25 0 -61 18 -64 24 -5 42 32 28 58 -12 23 -38 26
-46 6z"/>
<path d="M4770 6755 c0 -8 9 -15 20 -15 11 0 20 7 20 15 0 8 -9 15 -20 15 -11
0 -20 -7 -20 -15z"/>
<path d="M15380 6750 c0 -5 5 -10 10 -10 6 0 10 5 10 10 0 6 -4 10 -10 10 -5
0 -10 -4 -10 -10z"/>
<path d="M15440 6754 c0 -9 5 -14 12 -12 18 6 21 28 4 28 -9 0 -16 -7 -16 -16z"/>
<path d="M6412 5848 c-17 -17 -15 -63 3 -78 23 -19 37 0 33 45 -3 41 -16 53
-36 33z"/>
<path d="M10295 5830 c-15 -29 -15 -30 5 -30 16 0 20 7 20 30 0 17 -2 30 -5
30 -2 0 -11 -13 -20 -30z"/>
<path d="M10695 5888 c-4 -14 -5 -47 -3 -74 3 -41 6 -49 23 -49 18 0 20 7 20
70 0 58 -3 70 -17 73 -11 2 -19 -5 -23 -20z"/>
<path d="M10856 5895 c-9 -24 -7 -108 3 -124 5 -8 16 -11 25 -8 24 10 19 140
-5 145 -9 2 -19 -4 -23 -13z"/>
<path d="M6570 5840 c-10 -18 -8 -20 20 -20 28 0 30 2 20 20 -6 11 -15 20 -20
20 -5 0 -14 -9 -20 -20z"/>
<path d="M6922 5783 c2 -10 10 -18 18 -18 8 0 16 8 18 18 2 12 -3 17 -18 17
-15 0 -20 -5 -18 -17z"/>
<path d="M7226 5845 c-9 -24 -8 -25 20 -25 19 0 25 5 22 17 -4 23 -34 28 -42
8z"/>
<path d="M7870 5835 c-12 -31 3 -75 25 -75 24 0 40 45 27 75 -6 14 -19 25 -27
25 -9 0 -20 -11 -25 -25z"/>
<path d="M8124 5789 c-9 -15 12 -33 30 -26 9 4 16 13 16 22 0 17 -35 21 -46 4z"/>
<path d="M8734 5847 c-3 -8 -4 -30 -2 -49 2 -25 8 -33 23 -33 17 0 20 7 20 45
0 35 -4 45 -18 48 -9 2 -20 -3 -23 -11z"/>
<path d="M8897 5853 c-16 -15 -5 -33 19 -33 20 0 25 4 20 16 -3 9 -6 18 -6 20
0 7 -26 5 -33 -3z"/>
<path d="M9357 5853 c-16 -15 -5 -33 19 -33 20 0 25 4 20 16 -3 9 -6 18 -6 20
0 7 -26 5 -33 -3z"/>
<path d="M1411 5014 c0 -11 3 -14 6 -6 3 7 2 16 -1 19 -3 4 -6 -2 -5 -13z"/>
<path d="M1815 5040 c-8 -26 3 -60 20 -60 8 0 17 9 20 20 8 26 -3 60 -20 60
-8 0 -17 -9 -20 -20z"/>
<path d="M11726 4961 c-4 -7 -5 -15 -2 -18 9 -9 19 4 14 18 -4 11 -6 11 -12 0z"/>
<path d="M5290 4950 c0 -29 4 -40 13 -37 6 2 12 19 12 37 0 18 -6 35 -12 38
-9 2 -13 -9 -13 -38z"/>
<path d="M5443 4992 c-44 -4 -45 -32 -2 -32 38 0 35 -24 -4 -28 -38 -5 -34
-19 7 -24 24 -3 32 0 29 9 -6 15 33 18 42 3 7 -12 35 -13 35 -2 0 5 -15 15
-32 23 -18 8 -35 23 -38 34 -4 16 -12 19 -37 17z"/>
<path d="M5520 4983 c1 -5 16 -15 35 -24 29 -13 35 -14 35 -3 0 8 -9 14 -20
14 -11 0 -20 5 -20 10 0 6 -7 10 -15 10 -8 0 -15 -3 -15 -7z"/>
<path d="M5760 4969 c0 -24 23 -21 28 4 2 10 -3 17 -12 17 -10 0 -16 -9 -16
-21z"/>
<path d="M5940 4969 c0 -24 23 -21 28 4 2 10 -3 17 -12 17 -10 0 -16 -9 -16
-21z"/>
<path d="M6234 4977 c-9 -25 0 -62 16 -62 10 0 15 10 15 34 0 36 -21 54 -31
28z"/>
<path d="M9232 4953 c4 -51 33 -54 33 -3 0 26 -5 36 -18 38 -16 3 -18 -2 -15
-35z"/>
<path d="M8945 4940 c-3 -5 -1 -10 4 -10 6 0 11 5 11 10 0 6 -2 10 -4 10 -3 0
-8 -4 -11 -10z"/>
<path d="M12564 4956 c-8 -21 -1 -49 13 -53 6 -2 14 5 17 15 12 36 -17 72 -30
38z"/>
<path d="M12660 4955 c0 -8 7 -15 15 -15 8 0 15 7 15 15 0 8 -7 15 -15 15 -8
0 -15 -7 -15 -15z"/>
<path d="M9255 4480 c-7 -23 2 -60 16 -60 5 0 9 18 9 40 0 42 -14 54 -25 20z"/>
<path d="M9365 4480 c-7 -23 2 -60 16 -60 5 0 9 18 9 40 0 42 -14 54 -25 20z"/>
<path d="M9535 4498 c-9 -23 -2 -83 10 -83 14 0 19 75 6 88 -7 7 -12 5 -16 -5z"/>
<path d="M9640 4460 c0 -29 4 -40 13 -37 6 2 12 19 12 37 0 18 -6 35 -12 38
-9 2 -13 -9 -13 -38z"/>
<path d="M2322 4467 c-9 -11 -7 -19 12 -36 19 -18 25 -19 34 -8 9 11 7 19 -12
36 -19 18 -25 19 -34 8z"/>
<path d="M2221 4365 c-39 -41 -61 -71 -59 -82 7 -33 51 -15 112 47 59 58 60
59 41 80 -10 11 -21 20 -25 20 -4 0 -35 -29 -69 -65z m79 27 c0 -14 -96 -103
-103 -95 -4 4 14 28 40 55 45 46 63 57 63 40z"/>
<path d="M5440 4435 c0 -17 5 -25 13 -22 6 2 12 12 12 22 0 10 -6 20 -12 23
-8 2 -13 -6 -13 -23z"/>
<path d="M5530 4450 c0 -5 5 -10 10 -10 6 0 10 5 10 10 0 6 -4 10 -10 10 -5 0
-10 -4 -10 -10z"/>
<path d="M5860 4435 c0 -17 5 -25 18 -24 10 0 12 3 5 6 -23 9 -14 23 15 24 24
0 25 1 7 9 -34 15 -45 11 -45 -15z"/>
<path d="M5690 3789 c0 -5 5 -7 10 -4 6 3 10 8 10 11 0 2 -4 4 -10 4 -5 0 -10
-5 -10 -11z"/>
<path d="M5726 3772 c-2 -4 -1 -14 5 -22 7 -12 9 -10 9 8 0 23 -5 28 -14 14z"/>
<path d="M6150 3830 c0 -13 5 -20 13 -17 6 2 12 10 12 17 0 7 -6 15 -12 18 -8
2 -13 -5 -13 -18z"/>
<path d="M6150 3769 c0 -24 23 -21 28 4 2 10 -3 17 -12 17 -10 0 -16 -9 -16
-21z"/>
<path d="M9145 3790 c-3 -5 -1 -10 4 -10 6 0 11 5 11 10 0 6 -2 10 -4 10 -3 0
-8 -4 -11 -10z"/>
<path d="M9425 3838 c-9 -23 -2 -83 10 -83 14 0 19 75 6 88 -7 7 -12 5 -16 -5z"/>
<path d="M9535 3838 c-9 -23 -2 -83 10 -83 14 0 19 75 6 88 -7 7 -12 5 -16 -5z"/>
<path d="M2322 3807 c-9 -11 -7 -19 12 -36 19 -18 25 -19 34 -8 9 11 7 19 -12
36 -19 18 -25 19 -34 8z"/>
<path d="M2221 3705 c-39 -41 -61 -71 -59 -82 7 -33 51 -15 112 47 59 58 60
59 41 80 -10 11 -21 20 -25 20 -4 0 -35 -29 -69 -65z m79 27 c0 -14 -96 -103
-103 -95 -4 4 14 28 40 55 45 46 63 57 63 40z"/>
<path d="M9145 3160 c-7 -23 2 -60 16 -60 5 0 9 18 9 40 0 42 -14 54 -25 20z"/>
<path d="M9315 3178 c-9 -23 -2 -83 10 -83 14 0 19 75 6 88 -7 7 -12 5 -16 -5z"/>
<path d="M9425 3178 c-9 -23 -2 -83 10 -83 14 0 19 75 6 88 -7 7 -12 5 -16 -5z"/>
<path d="M11654 3166 c-11 -28 0 -61 21 -61 16 0 20 7 20 35 0 25 -5 36 -18
38 -9 2 -20 -3 -23 -12z"/>
<path d="M2322 3148 c-7 -10 -5 -20 9 -37 18 -21 22 -23 35 -10 13 13 12 18
-9 37 -19 18 -26 20 -35 10z"/>
<path d="M2221 3045 c-39 -41 -61 -71 -59 -82 7 -33 51 -15 112 47 59 58 60
59 41 80 -10 11 -21 20 -25 20 -4 0 -35 -29 -69 -65z m79 27 c0 -14 -96 -103
-103 -95 -4 4 14 28 40 55 45 46 63 57 63 40z"/>
<path d="M5400 3129 c0 -5 5 -7 10 -4 6 3 10 8 10 11 0 2 -4 4 -10 4 -5 0 -10
-5 -10 -11z"/>
<path d="M5436 3112 c-2 -4 -1 -14 5 -22 7 -12 9 -10 9 8 0 23 -5 28 -14 14z"/>
<path d="M11958 3133 c24 -5 31 -23 8 -23 -8 0 -18 -4 -21 -10 -4 -6 5 -10 19
-10 21 0 26 5 26 25 0 21 -4 25 -27 24 -24 -2 -25 -2 -5 -6z"/>
<path d="M12020 3130 c0 -5 5 -10 10 -10 6 0 10 5 10 10 0 6 -4 10 -10 10 -5
0 -10 -4 -10 -10z"/>
<path d="M5280 2481 c0 -44 11 -58 30 -36 17 20 9 69 -12 73 -15 3 -18 -4 -18
-37z"/>
<path d="M9145 2500 c-7 -23 2 -60 16 -60 5 0 9 18 9 40 0 42 -14 54 -25 20z"/>
<path d="M9315 2518 c-9 -23 -2 -83 10 -83 14 0 19 75 6 88 -7 7 -12 5 -16 -5z"/>
<path d="M9425 2518 c-9 -23 -2 -83 10 -83 14 0 19 75 6 88 -7 7 -12 5 -16 -5z"/>
<path d="M2322 2487 c-9 -11 -7 -19 12 -36 19 -18 25 -19 34 -8 9 11 7 19 -12
36 -19 18 -25 19 -34 8z"/>
<path d="M2221 2385 c-39 -41 -61 -71 -59 -82 7 -33 51 -15 112 47 59 58 60
59 41 80 -10 11 -21 20 -25 20 -4 0 -35 -29 -69 -65z m79 27 c0 -14 -96 -103
-103 -95 -4 4 14 28 40 55 45 46 63 57 63 40z"/>
<path d="M5633 2473 c21 -5 23 -23 2 -23 -8 0 -15 -4 -15 -10 0 -5 9 -10 20
-10 15 0 20 7 20 25 0 20 -5 25 -22 24 -17 -1 -19 -2 -5 -6z"/>
<path d="M5690 2470 c0 -5 5 -10 10 -10 6 0 10 5 10 10 0 6 -4 10 -10 10 -5 0
-10 -4 -10 -10z"/>
<path d="M11770 2470 c0 -5 5 -10 10 -10 6 0 10 5 10 10 0 6 -4 10 -10 10 -5
0 -10 -4 -10 -10z"/>
<path d="M11854 2465 c-3 -8 -3 -19 1 -25 11 -18 25 -11 25 15 0 27 -17 34
-26 10z"/>
<path d="M11944 2465 c-9 -22 7 -36 34 -29 21 6 32 34 13 34 -5 0 -16 3 -25 6
-10 4 -18 0 -22 -11z"/>
<path d="M12030 2476 c0 -2 9 -6 20 -9 11 -3 20 -1 20 4 0 5 -9 9 -20 9 -11 0
-20 -2 -20 -4z"/>
<path d="M12100 2470 c0 -5 5 -10 10 -10 6 0 10 5 10 10 0 6 -4 10 -10 10 -5
0 -10 -4 -10 -10z"/>
<path d="M12030 2440 c0 -5 9 -10 20 -10 11 0 20 5 20 10 0 6 -9 10 -20 10
-11 0 -20 -4 -20 -10z"/>
<path d="M12238 2473 c24 -5 31 -23 8 -23 -8 0 -17 -4 -21 -9 -3 -6 16 -9 46
-9 49 1 50 2 25 15 -14 8 -26 18 -26 23 0 6 -12 9 -27 9 -24 -2 -25 -2 -5 -6z"/>
<path d="M9535 1847 c-9 -22 -2 -62 10 -60 6 1 11 14 13 29 4 32 -14 56 -23
31z"/>
<path d="M9640 1820 c0 -22 5 -40 10 -40 6 0 10 18 10 40 0 22 -4 40 -10 40
-5 0 -10 -18 -10 -40z"/>
</g>
</svg>
