<?xml version="1.0" standalone="no"?>
<!DOCTYPE svg PUBLIC "-//W3C//DTD SVG 20010904//EN"
 "http://www.w3.org/TR/2001/REC-SVG-20010904/DTD/svg10.dtd">
<svg version="1.0" xmlns="http://www.w3.org/2000/svg"
 width="1703.000000pt" height="887.000000pt" viewBox="0 0 1703.000000 887.000000"
 preserveAspectRatio="xMidYMid meet">

<g transform="translate(0.000000,887.000000) scale(0.100000,-0.100000)"
fill="#000000" stroke="none">
<path d="M0 4435 l0 -4435 8515 0 8515 0 0 4435 0 4435 -8515 0 -8515 0 0
-4435z m16681 4240 c88 -31 159 -131 159 -225 0 -95 -80 -205 -166 -229 -24
-7 -165 -11 -374 -11 -209 0 -350 4 -374 11 -86 24 -166 134 -166 229 0 92 70
193 155 224 61 22 704 23 766 1z m-15521 -38 c42 -32 50 -59 50 -165 0 -73 -4
-112 -15 -133 -18 -34 -70 -69 -100 -68 -13 1 -10 4 10 10 17 4 44 22 60 39
29 30 30 35 33 138 3 123 -9 156 -72 186 -20 9 -36 19 -36 21 0 6 54 -15 70
-28z m3119 -102 c36 -18 54 -65 40 -102 -8 -21 -6 -30 11 -48 26 -28 13 -41
-15 -15 -18 17 -27 19 -48 11 -81 -31 -154 85 -89 142 34 29 62 33 101 12z
m-2131 -7 c17 -17 15 -47 -3 -54 -13 -5 -12 -11 6 -35 11 -16 16 -29 11 -29
-5 0 -17 11 -26 24 -8 14 -26 26 -38 28 -37 5 -27 23 15 26 49 4 48 22 -3 22
-31 0 -38 3 -34 15 7 18 55 20 72 3z m98 -88 c24 0 34 -5 34 -15 0 -11 -11
-15 -40 -15 l-40 0 2 68 c2 63 2 64 5 15 4 -53 4 -53 39 -53z m146 83 c22 -20
24 -76 2 -97 -8 -9 -31 -16 -50 -16 l-34 0 0 65 0 65 32 0 c17 0 40 -7 50 -17z
m-1977 -3 c4 -6 -32 -10 -99 -10 -64 0 -106 4 -106 10 0 6 40 10 99 10 56 0
103 -4 106 -10z m740 -18 c0 -18 -20 -15 -23 4 -3 10 1 15 10 12 7 -3 13 -10
13 -16z m4085 -15 c0 -18 5 -23 28 -22 26 0 27 -2 28 -50 l2 -50 -7 45 c-5 36
-10 45 -26 45 -16 0 -21 -8 -23 -42 -5 -70 -22 -49 -22 27 0 40 4 70 10 70 6
0 10 -10 10 -23z m-422 6 c-40 -6 -42 -29 -2 -52 36 -21 42 -39 22 -59 -14
-14 -54 -16 -63 -2 -4 6 6 7 25 4 26 -6 30 -4 30 15 0 14 -9 25 -25 31 -50 19
-39 72 14 69 l26 -2 -27 -4z m10162 -48 c0 -52 1 -55 25 -55 14 0 25 -4 25
-10 0 -5 -16 -10 -35 -10 l-35 0 0 65 c0 37 4 65 10 65 6 0 10 -25 10 -55z
m158 39 c34 -23 27 -83 -10 -104 -25 -13 -31 -13 -55 0 -38 21 -45 81 -11 104
12 9 29 16 38 16 9 0 26 -7 38 -16z m142 6 c0 -5 -13 -10 -28 -10 -33 0 -52
-16 -52 -45 0 -12 5 -26 12 -33 17 -17 58 -15 58 3 0 8 -7 15 -15 15 -8 0 -15
5 -15 10 0 6 11 10 25 10 21 0 25 -5 25 -29 0 -44 -54 -57 -90 -21 -41 41 -10
110 50 110 17 0 30 -4 30 -10z m60 -55 c0 -37 -4 -65 -10 -65 -6 0 -10 28 -10
65 0 37 4 65 10 65 6 0 10 -28 10 -65z m92 18 l33 -48 3 48 c5 71 22 57 22
-18 0 -80 -13 -84 -55 -17 l-30 47 -3 -47 c-5 -72 -22 -58 -22 17 0 36 4 65
10 65 5 0 24 -21 42 -47z m-14312 11 c0 -17 -22 -14 -28 4 -2 7 3 12 12 12 9
0 16 -7 16 -16z m3818 -6 c23 -23 13 -38 -23 -38 -49 0 -42 -30 10 -43 16 -4
15 -5 -5 -6 -33 -1 -50 16 -50 49 0 29 16 50 40 50 9 0 21 -5 28 -12z m100
-39 l3 -46 -33 1 c-26 1 -34 6 -36 24 -3 18 2 23 28 28 35 8 35 25 -1 36 -22
6 -21 7 6 5 28 -2 30 -5 33 -48z m66 37 c-9 -7 -20 -30 -24 -52 l-8 -39 -1 50
c-1 47 1 50 25 51 22 2 23 1 8 -10z m78 7 c-52 -10 -51 -76 1 -86 19 -4 19 -4
-3 -6 -32 -1 -50 15 -50 45 0 29 26 54 53 53 21 -2 21 -2 -1 -6z m278 -53 c0
-31 -5 -61 -12 -68 -13 -13 -54 -16 -61 -4 -3 4 9 7 26 7 21 0 33 5 35 17 2
12 -2 15 -17 11 -28 -7 -51 14 -51 46 0 35 17 52 52 49 27 -2 28 -4 28 -58z
m98 10 c3 -44 2 -46 -28 -48 -20 -2 -33 3 -36 13 -8 20 13 45 38 45 11 0 18 5
15 13 -2 6 -14 12 -26 11 -11 0 -21 3 -21 8 0 5 12 8 28 6 24 -3 27 -7 30 -48z
m162 30 c13 -20 13 -80 0 -80 -5 0 -10 21 -10 46 0 38 -3 45 -17 42 -13 -2
-19 -15 -21 -46 -4 -57 -22 -54 -22 4 0 38 -3 45 -17 42 -13 -2 -19 -15 -21
-46 -4 -58 -22 -53 -22 7 l0 48 60 -1 c42 -1 64 -6 70 -16z m98 8 c23 -23 13
-38 -23 -38 -49 0 -42 -30 10 -43 16 -4 15 -5 -5 -6 -33 -1 -50 16 -50 49 0
29 16 50 40 50 9 0 21 -5 28 -12z m82 5 c-8 -2 -22 -7 -30 -9 -10 -4 -7 -11
15 -28 34 -27 29 -56 -10 -56 -14 0 -25 4 -25 9 0 5 8 7 19 4 30 -8 34 14 6
33 -40 26 -30 52 20 52 13 0 15 -1 5 -5z m-5485 -13 c4 -6 -32 -10 -99 -10
-64 0 -106 4 -106 10 0 6 40 10 99 10 56 0 103 -4 106 -10z m0 -70 c4 -6 -32
-10 -100 -10 -68 0 -104 4 -100 10 3 6 48 10 100 10 52 0 97 -4 100 -10z
m5535 0 c0 -5 -4 -10 -10 -10 -5 0 -10 5 -10 10 0 6 5 10 10 10 6 0 10 -4 10
-10z m522 -322 c-9 -9 -15 -9 -24 0 -9 9 -7 12 12 12 19 0 21 -3 12 -12z m225
-13 c-15 -13 -34 -22 -41 -19 -8 3 -26 -2 -40 -11 -24 -16 -26 -16 -51 11 -14
15 -25 31 -25 35 0 5 42 9 93 9 l92 -1 -28 -24z m3353 5 c0 -5 -4 -10 -10 -10
-5 0 -10 5 -10 10 0 6 5 10 10 10 6 0 10 -4 10 -10z m-3292 -82 c-3 -15 -37
-48 -49 -48 -4 0 -11 5 -14 10 -3 6 -1 10 4 10 6 0 11 6 11 14 0 14 14 24 38
25 6 1 11 -5 10 -11z m2632 -178 c0 -5 -4 -10 -9 -10 -6 0 -13 5 -16 10 -3 6
1 10 9 10 9 0 16 -4 16 -10z m3663 -56 c2 -14 -1 -31 -8 -37 -14 -15 -8 -37
11 -37 8 0 14 -7 14 -16 0 -23 -32 -13 -46 15 -11 22 -13 20 -25 -33 -9 -40
-17 -56 -29 -56 -9 0 -20 -4 -26 -10 -5 -5 -32 -11 -59 -12 -49 -3 -49 -3 -56
32 -3 19 -13 54 -21 76 -21 58 -11 71 51 67 28 -1 53 2 56 7 3 5 19 1 36 -8
30 -17 31 -17 52 10 28 34 43 35 50 2z m-12666 -16 c21 -18 41 -37 45 -43 12
-16 9 -110 -4 -123 -12 -12 -143 -17 -172 -6 -12 5 -16 21 -16 67 0 60 1 63
43 99 23 20 47 37 54 38 7 0 29 -15 50 -32z m6415 2 c-3 -23 3 -36 27 -61 18
-17 30 -33 27 -36 -2 -2 -23 1 -46 7 -23 6 -45 9 -48 5 -3 -3 -1 -20 6 -37 6
-18 9 -34 6 -37 -8 -9 -34 30 -34 51 0 20 -27 51 -53 61 -23 9 -21 27 3 27 11
0 20 3 20 8 0 12 53 41 76 42 17 0 20 -5 16 -30z m6713 -50 c-4 -12 -13 -20
-23 -18 -24 5 -27 28 -3 28 12 0 21 5 21 12 0 6 3 9 6 5 3 -3 3 -15 -1 -27z
m-12875 -10 c0 -27 3 -30 30 -30 27 0 30 3 30 30 0 17 5 30 10 30 6 0 10 -28
10 -65 0 -37 -4 -65 -10 -65 -5 0 -10 14 -10 30 0 27 -3 30 -30 30 -27 0 -30
-3 -30 -30 0 -20 -5 -30 -15 -30 -12 0 -15 14 -15 65 0 51 3 65 15 65 10 0 15
-10 15 -30z m3940 -104 l0 -134 -72 0 c-92 0 -118 18 -118 85 0 61 35 97 91
91 l39 -4 0 48 c0 47 1 48 30 48 l30 0 0 -134z m-1280 99 c0 -23 -4 -25 -45
-25 -43 0 -45 -1 -45 -30 0 -29 2 -30 46 -30 41 0 45 -2 42 -22 -2 -19 -10
-24 -45 -26 l-43 -3 0 -50 c0 -48 -1 -49 -30 -49 l-30 0 0 130 0 130 75 0 c73
0 75 -1 75 -25z m1628 -7 c3 -27 3 -27 -48 -21 -44 5 -54 3 -75 -17 -51 -48
-20 -145 43 -138 19 2 28 10 30 26 3 19 -1 22 -27 22 -26 0 -31 4 -31 25 0 24
3 25 60 25 l60 0 0 -65 c0 -61 -2 -66 -26 -75 -38 -15 -111 -12 -144 5 -81 42
-79 175 3 226 24 15 46 19 92 17 57 -3 60 -4 63 -30z m-4094 -10 c17 -28 -4
-72 -37 -76 -16 -2 -35 2 -43 9 -17 14 -18 61 -2 77 17 17 69 11 82 -10z m154
10 c18 -15 16 -88 -3 -88 -11 0 -15 12 -15 46 0 59 -24 55 -28 -4 -4 -49 -22
-57 -22 -9 0 17 -4 38 -9 46 -15 23 -31 2 -31 -40 0 -21 -4 -39 -10 -39 -5 0
-10 22 -10 50 l0 50 58 -1 c31 -1 63 -6 70 -11z m112 -7 c15 -29 13 -31 -26
-31 -28 0 -35 -3 -32 -17 3 -13 12 -17 31 -16 15 1 25 -2 22 -8 -7 -11 -45
-12 -61 -1 -20 14 -25 45 -9 68 19 29 60 32 75 5z m8140 9 c0 -5 -2 -10 -4
-10 -3 0 -8 5 -11 10 -3 6 -1 10 4 10 6 0 11 -4 11 -10z m4424 -21 c-2 -4 0
-10 6 -14 15 -9 40 -73 40 -101 0 -25 -16 -41 -22 -22 -3 7 -4 -7 -4 -30 0
-29 4 -42 14 -42 9 0 12 -9 10 -27 -3 -25 -7 -28 -41 -29 -26 -1 -46 6 -64 22
-15 13 -30 21 -35 18 -4 -3 -8 0 -8 6 0 6 -5 8 -12 4 -6 -4 -8 -3 -4 4 3 6 -3
17 -13 24 -48 34 -68 178 -25 178 8 0 14 5 14 11 0 6 6 9 13 6 6 -2 19 -1 28
4 24 12 69 -25 62 -51 -3 -11 -1 -20 5 -20 5 0 13 21 17 47 4 31 9 42 15 33 5
-8 7 -17 4 -21z m-9874 -4 c0 -18 5 -25 20 -25 13 0 20 -7 20 -20 0 -13 -7
-20 -20 -20 -17 0 -20 -7 -20 -45 0 -39 3 -45 21 -45 15 0 20 -5 17 -22 -2
-18 -11 -24 -36 -26 -49 -5 -62 11 -62 79 0 46 -3 59 -15 59 -8 0 -15 9 -15
20 0 11 7 20 15 20 8 0 15 9 15 19 0 18 14 27 48 30 6 0 12 -10 12 -24z m5646
-10 c4 -10 14 -14 28 -10 11 2 15 2 9 -1 -19 -8 -16 -22 6 -29 11 -3 26 -21
35 -39 15 -32 19 -34 64 -33 32 1 51 7 60 19 7 10 19 18 25 18 9 0 9 -2 0 -8
-7 -4 -9 -13 -4 -21 6 -9 10 -5 15 16 l8 28 19 -27 c22 -30 54 -28 64 3 4 12
16 19 31 19 13 0 24 4 24 8 0 18 41 9 52 -11 6 -12 10 -24 8 -27 -1 -3 7 -10
19 -16 11 -6 36 -25 55 -42 19 -17 51 -35 72 -41 60 -17 67 -15 60 15 -5 17
-3 23 4 19 5 -3 10 0 10 7 1 7 10 -6 22 -30 14 -29 26 -41 35 -38 8 3 12 2 8
-3 -9 -15 5 -39 26 -44 19 -5 27 -27 9 -27 -5 0 -10 5 -10 12 0 6 -3 8 -7 5
-3 -4 3 -16 14 -27 12 -10 28 -29 36 -41 16 -22 40 -18 31 5 -3 8 -1 17 5 21
6 3 12 1 12 -4 1 -6 3 -15 4 -21 1 -5 3 -14 4 -19 0 -5 10 -11 21 -14 15 -4
20 0 20 16 0 26 11 15 25 -25 5 -17 17 -33 25 -36 13 -3 13 -2 0 7 -20 15 -9
14 29 -2 l31 -13 -55 -47 c-30 -26 -84 -85 -119 -131 -36 -45 -73 -84 -83 -85
-43 -5 -98 1 -110 11 -11 8 -12 7 -7 -6 4 -11 1 -16 -10 -16 -9 0 -25 -9 -36
-20 -24 -24 -40 -26 -40 -5 0 7 -6 18 -13 22 -7 4 -21 25 -31 46 -16 35 -36
50 -36 26 0 -6 -7 -3 -16 5 -8 9 -24 16 -34 16 -10 0 -21 8 -24 18 -9 26 -49
40 -103 35 -43 -5 -49 -3 -59 18 -5 13 -9 18 -7 12 1 -7 -2 -13 -7 -13 -6 0
-10 7 -10 16 0 12 -6 15 -25 10 -28 -7 -35 8 -9 18 22 9 10 19 -24 21 -26 1
-62 -26 -62 -49 0 -6 -5 -3 -10 6 -16 26 -69 34 -86 11 -12 -16 -15 -16 -24
-3 -6 10 -10 11 -10 3 0 -7 -4 -13 -10 -13 -5 0 -10 8 -10 17 0 16 -1 16 -16
2 -12 -13 -24 -14 -62 -7 -35 7 -58 6 -90 -5 -23 -8 -45 -11 -48 -6 -3 5 -13
9 -22 9 -15 0 -15 -2 -2 -10 10 -7 11 -10 2 -10 -7 0 -20 9 -29 20 -10 11 -22
20 -27 20 -5 0 -7 -3 -3 -6 8 -9 -16 -32 -46 -43 -14 -6 -46 -8 -71 -5 -37 4
-46 2 -46 -10 0 -8 8 -20 18 -25 15 -9 14 -10 -6 -11 -13 0 -20 -4 -17 -10 3
-5 -3 -27 -15 -49 -11 -22 -20 -47 -20 -56 0 -13 -38 -22 -72 -16 -11 1 -10
-3 9 -51 9 -24 27 -59 41 -78 l25 -35 -36 34 c-29 27 -38 47 -52 105 -8 39
-23 93 -32 119 -9 28 -13 61 -9 80 l6 32 -25 -30 c-14 -16 -46 -56 -72 -88
-39 -48 -48 -55 -56 -42 -5 9 -7 25 -4 36 3 10 1 19 -3 19 -5 0 -2 23 5 52 8
28 12 55 9 60 -3 4 0 8 5 8 19 0 12 20 -6 21 -17 1 -17 2 0 6 9 2 17 10 17 17
0 7 9 21 20 31 13 12 18 25 14 40 -3 13 -1 26 4 29 6 3 8 15 5 26 -3 13 0 20
8 20 11 0 11 2 -1 10 -8 5 -11 12 -8 15 4 4 12 3 20 -1 19 -12 91 -4 109 12 8
8 28 14 43 14 16 0 25 4 21 10 -3 6 0 10 7 10 21 0 76 63 73 83 -2 9 1 15 6
11 5 -3 6 -11 2 -17 -4 -7 1 -5 11 3 10 8 25 15 34 16 8 2 19 9 23 16 7 11 12
11 29 0 20 -12 28 -10 109 35 2 1 0 10 -4 20 -15 34 -13 43 7 43 11 0 30 -10
41 -22 13 -16 21 -19 24 -10 3 6 9 12 14 12 6 0 8 -4 5 -9 -8 -12 42 -43 56
-35 12 8 44 13 93 17 48 4 60 19 45 57 -1 3 -2 8 -1 13 0 4 -3 7 -9 7 -5 0
-10 5 -10 10 0 16 20 12 26 -5z m-46 -10 c7 -8 8 -15 2 -15 -5 0 -15 7 -22 15
-7 8 -8 15 -2 15 5 0 15 -7 22 -15z m-5920 -23 c14 -11 22 -30 23 -52 l2 -35
-59 -5 c-52 -4 -57 -7 -43 -19 11 -9 30 -12 53 -8 32 5 35 4 32 -16 -3 -19
-10 -22 -55 -25 -45 -3 -56 1 -78 22 -35 35 -35 97 0 131 30 31 92 34 125 7z
m189 -8 c16 -21 21 -41 21 -90 l0 -64 -30 0 c-17 0 -30 5 -30 12 0 9 -3 9 -12
0 -7 -7 -26 -12 -43 -12 -38 0 -55 16 -55 51 0 37 20 55 70 63 25 4 38 10 34
17 -6 11 -44 8 -76 -6 -14 -5 -18 -2 -18 13 0 28 26 41 77 42 33 0 46 -5 62
-26z m251 -33 c0 -104 50 -106 58 -2 4 60 5 61 33 61 l29 0 0 -90 0 -90 -30 0
c-16 0 -30 5 -30 10 0 7 -6 7 -19 0 -29 -15 -62 -12 -83 7 -14 13 -18 31 -18
90 l0 73 30 0 c30 0 30 0 30 -59z m220 47 c0 -9 3 -9 12 0 23 23 48 14 48 -18
0 -23 -3 -28 -16 -23 -25 9 -44 -24 -44 -79 0 -47 -1 -48 -30 -48 l-30 0 0 90
0 90 30 0 c17 0 30 -5 30 -12z m220 -6 c14 -11 22 -30 23 -52 l2 -35 -59 -5
c-52 -4 -57 -7 -43 -19 11 -9 28 -11 53 -7 33 7 35 6 32 -16 -3 -20 -9 -23
-55 -26 -45 -3 -56 1 -78 22 -35 35 -35 97 0 131 30 31 92 34 125 7z m758 2
c19 -13 22 -24 22 -89 l0 -73 -70 0 c-77 0 -100 12 -100 53 0 28 29 50 78 60
18 4 29 11 26 17 -6 10 -33 7 -66 -7 -14 -6 -18 -2 -18 18 0 14 6 28 13 30 27
11 94 6 115 -9z m122 4 c0 -9 3 -9 12 0 7 7 26 12 43 12 17 0 36 -5 43 -12 9
-9 15 -9 24 0 17 17 74 15 92 -4 12 -11 16 -36 16 -90 l0 -74 -30 0 c-29 0
-29 1 -32 63 -3 54 -5 62 -23 62 -18 0 -20 -8 -23 -62 l-3 -63 -34 0 -35 0 0
66 c0 62 -1 65 -22 62 -21 -3 -23 -9 -26 -65 -3 -62 -3 -63 -32 -63 l-30 0 0
90 0 90 30 0 c17 0 30 -5 30 -12z m408 -8 c14 -14 22 -33 22 -55 l0 -35 -55 0
c-30 0 -55 -4 -55 -9 0 -15 37 -23 70 -16 25 6 30 4 30 -13 0 -24 -18 -32 -75
-32 -57 0 -85 23 -92 77 -5 37 -2 46 25 73 38 37 96 42 130 10z m172 -4 c0
-23 -3 -24 -35 -19 -39 6 -49 -11 -12 -23 57 -17 76 -70 35 -98 -13 -9 -43
-16 -70 -16 -44 0 -48 2 -48 24 0 22 3 24 40 19 22 -3 40 -1 40 4 0 5 -18 17
-40 27 -34 15 -40 22 -40 48 0 41 24 57 83 58 43 0 47 -2 47 -24z m3740 9 c0
-8 -4 -15 -10 -15 -5 0 -10 7 -10 15 0 8 5 15 10 15 6 0 10 -7 10 -15z m250
-5 c0 -5 -2 -10 -4 -10 -3 0 -8 5 -11 10 -3 6 -1 10 4 10 6 0 11 -4 11 -10z
m1170 -9 c0 -4 -3 -11 -7 -14 -8 -9 -34 13 -28 24 6 9 35 1 35 -10z m70 8 c0
-6 9 -9 19 -6 14 3 18 1 14 -9 -3 -8 -9 -14 -15 -14 -5 0 -2 -7 6 -16 18 -17
22 -74 6 -74 -5 0 -10 -7 -10 -15 0 -8 -4 -15 -10 -15 -14 0 -31 37 -24 54 3
9 2 16 -4 16 -14 0 -20 64 -7 78 13 14 25 15 25 1z m-122 -11 c-6 -18 -25 -20
-31 -3 -5 10 0 15 14 15 12 0 19 -5 17 -12z m-873 -108 c-5 -8 -11 -8 -17 -2
-6 6 -7 16 -3 22 5 8 11 8 17 2 6 -6 7 -16 3 -22z m1021 -74 c14 4 24 2 24 -5
0 -6 7 -8 15 -5 25 10 17 -15 -15 -46 -33 -32 -38 -61 -15 -80 8 -7 15 -25 15
-40 0 -23 -5 -29 -31 -34 -32 -6 -43 1 -67 43 -10 17 -10 26 -2 36 7 9 9 27 5
45 -5 21 -2 39 9 55 9 13 16 32 16 42 1 17 1 17 11 0 7 -12 17 -15 35 -11z
m-536 -26 c0 -5 -2 -10 -4 -10 -3 0 -8 5 -11 10 -3 6 -1 10 4 10 6 0 11 -4 11
-10z m-3976 -9 c3 -5 -1 -11 -9 -15 -9 -3 -15 0 -15 9 0 16 16 20 24 6z m186
0 c0 -5 -6 -11 -12 -13 -17 -6 -16 -114 1 -156 10 -25 11 -36 2 -45 -8 -8 -11
-8 -11 1 0 7 -7 12 -15 12 -10 0 -15 10 -15 34 0 19 -4 38 -10 41 -5 3 -10 24
-10 46 0 30 6 46 26 64 28 26 44 32 44 16z m3520 -25 c0 -3 -4 -8 -10 -11 -5
-3 -10 -1 -10 4 0 6 5 11 10 11 6 0 10 -2 10 -4z m37 -18 c-3 -8 -6 -5 -6 6
-1 11 2 17 5 13 3 -3 4 -12 1 -19z m2273 -27 c-5 -11 -15 -23 -20 -26 -14 -9
-12 19 2 33 19 19 30 14 18 -7z m1053 -13 c5 -16 3 -16 -19 -1 -29 19 -30 22
-5 20 11 -1 22 -9 24 -19z m-6767 -35 c-11 -11 -19 6 -11 24 8 17 8 17 12 0 3
-10 2 -21 -1 -24z m4309 8 c-4 -14 0 -23 15 -31 18 -10 19 -13 5 -26 -8 -9
-15 -26 -15 -40 0 -13 -5 -24 -11 -24 -6 0 -9 10 -7 23 1 13 -5 35 -15 50 -21
32 -21 37 -3 37 8 0 16 7 20 15 8 22 18 18 11 -4z m3146 -18 c-12 -20 -14 -14
-5 12 4 9 9 14 11 11 3 -2 0 -13 -6 -23z m-1789 -45 c-16 -50 -17 -51 -20 -21
-3 33 12 73 27 73 5 0 2 -24 -7 -52z m-12153 27 c36 -18 54 -65 40 -102 -8
-21 -6 -30 11 -48 26 -28 13 -41 -15 -15 -18 17 -27 19 -48 11 -81 -31 -154
85 -89 142 34 29 62 33 101 12z m10461 -35 c12 -8 11 -10 -7 -10 -13 0 -23 5
-23 10 0 13 11 13 30 0z m400 0 c0 -5 -2 -10 -4 -10 -3 0 -8 5 -11 10 -3 6 -1
10 4 10 6 0 11 -4 11 -10z m1345 0 c3 -5 1 -10 -4 -10 -6 0 -11 5 -11 10 0 6
2 10 4 10 3 0 8 -4 11 -10z m-11894 -16 c9 -11 10 -20 2 -32 -7 -13 -7 -21 3
-30 22 -20 0 -52 -36 -52 l-30 0 0 65 c0 62 1 65 24 65 13 0 29 -7 37 -16z
m76 -26 c-11 -6 -17 -22 -17 -48 0 -22 -4 -40 -10 -40 -5 0 -10 22 -10 49 0
46 1 49 27 49 21 0 23 -2 10 -10z m99 4 c20 -14 25 -45 9 -68 -20 -31 -50 -30
-71 1 -15 23 -15 27 0 50 16 25 41 32 62 17z m59 -34 l7 -33 18 40 c12 27 20
35 23 25 3 -8 10 -28 15 -45 6 -16 11 -22 11 -13 1 22 20 72 26 66 7 -7 -21
-89 -31 -88 -5 0 -14 15 -21 33 l-11 32 -7 -33 c-13 -59 -30 -49 -49 31 -4 17
-3 26 2 23 5 -3 13 -20 17 -38z m158 35 c-28 -5 -30 -29 -4 -38 44 -14 25 -61
-21 -52 -20 4 -20 4 5 6 17 0 27 7 27 16 0 8 -4 15 -9 15 -5 0 -17 7 -26 16
-20 20 -3 45 29 43 20 -2 20 -2 -1 -6z m115 -20 c3 -20 -1 -23 -28 -23 -25 0
-31 -4 -28 -17 2 -12 13 -18 30 -18 15 1 24 -3 22 -7 -10 -16 -53 -8 -64 11
-14 28 -13 47 6 66 23 22 58 15 62 -12z m9329 -17 c18 -4 33 -17 41 -34 9 -21
19 -28 39 -27 25 0 28 -3 26 -33 -1 -18 2 -30 8 -27 5 4 9 1 9 -4 0 -6 7 -11
16 -11 9 0 14 -6 11 -12 -22 -53 -22 -54 -4 -39 10 8 20 11 24 7 3 -3 1 -6 -6
-6 -8 0 -11 -7 -7 -15 3 -8 1 -15 -5 -15 -6 0 -7 -5 -3 -11 4 -7 15 -1 31 17
20 25 23 26 22 9 -4 -38 12 -74 32 -72 14 1 19 8 18 27 -1 17 -3 19 -6 7 -4
-16 -23 -15 -23 2 0 11 33 46 45 47 24 3 55 17 55 26 0 5 10 8 23 6 32 -4 32
-56 0 -69 -14 -5 -23 -17 -23 -29 0 -22 -53 -80 -73 -80 -7 0 -30 -16 -52 -36
-28 -24 -48 -34 -67 -32 -24 2 -57 -22 -58 -43 0 -8 61 -4 84 6 13 6 21 4 24
-3 2 -7 10 -12 19 -12 8 0 23 -10 33 -22 16 -20 16 -25 3 -45 -13 -20 -13 -23
6 -35 12 -7 21 -18 21 -24 0 -6 6 -11 13 -12 47 -4 52 -9 55 -55 3 -41 1 -47
-17 -47 -11 0 -25 -9 -31 -20 -9 -17 -8 -19 7 -13 10 4 21 11 25 17 5 8 11 7
20 -2 9 -9 9 -12 -5 -12 -12 0 -17 -8 -17 -30 0 -16 5 -30 10 -30 6 0 15 -12
21 -27 8 -22 7 -30 -5 -39 -9 -6 -16 -24 -16 -39 l0 -28 -21 27 c-11 14 -18
29 -15 34 8 14 -8 28 -51 45 -40 16 -47 15 -44 -5 3 -18 -21 -6 -26 12 -3 11
-9 20 -13 20 -5 0 -6 10 -3 23 4 18 3 19 -6 7 -9 -13 -11 -13 -11 2 0 14 -5
15 -29 8 -15 -4 -35 -4 -42 1 -11 7 -11 9 3 9 9 0 18 6 21 13 3 9 7 9 20 -2
14 -11 18 -11 23 4 4 10 1 21 -7 26 -16 10 -19 31 -5 41 5 4 4 19 -4 40 -15
37 -33 62 -28 38 2 -11 -4 -14 -22 -12 -15 2 -35 -6 -48 -18 -17 -17 -22 -18
-22 -5 0 8 -4 15 -10 15 -5 0 -12 11 -16 25 -3 14 -9 23 -13 21 -3 -2 -8 23
-9 57 -2 34 -6 65 -8 69 -3 4 1 5 9 2 9 -3 13 -14 11 -27 -3 -16 0 -13 10 8
18 35 20 55 7 55 -5 0 -13 9 -16 21 -5 15 -10 18 -18 10 -8 -8 -8 -14 1 -23
15 -15 16 -28 2 -28 -5 0 -10 8 -10 18 -1 16 -1 16 -11 0 -5 -10 -18 -18 -27
-18 -13 0 -12 3 6 16 18 13 21 19 11 30 -13 16 -44 19 -34 4 3 -5 2 -10 -4
-10 -5 0 -12 4 -15 9 -7 11 -88 -8 -98 -23 -17 -24 -2 41 22 99 4 11 16 40 25
65 21 58 90 186 123 229 24 32 26 33 33 14 4 -12 20 -24 36 -27z m2186 -3 c-3
-6 -11 -14 -19 -17 -8 -3 -14 -16 -14 -29 0 -27 -22 -51 -35 -39 -5 4 -5 -1
-2 -10 4 -10 2 -18 -4 -18 -6 0 -9 -9 -6 -20 3 -11 1 -23 -5 -26 -5 -3 -8 -15
-5 -25 3 -12 0 -19 -10 -19 -8 0 -12 -4 -9 -8 2 -4 1 -14 -5 -22 -7 -13 -9
-13 -10 0 -1 8 -1 19 0 23 1 5 -4 7 -11 5 -15 -5 -18 -54 -3 -51 6 1 10 -14
11 -32 0 -29 -5 -37 -34 -52 -18 -10 -40 -29 -47 -43 -8 -14 -14 -19 -15 -11
0 8 10 25 21 37 17 18 22 39 25 96 4 73 37 200 59 228 7 8 15 23 18 33 4 10
12 15 17 12 6 -4 22 0 35 9 18 12 25 12 28 3 3 -6 6 -3 7 8 l1 20 8 -20 c5
-11 6 -25 4 -32z m-5834 -14 c15 23 56 -1 76 -43 10 -20 21 -34 25 -31 5 3 13
-2 18 -11 6 -11 11 -13 16 -5 10 15 41 14 55 -3 9 -11 -3 -13 -74 -11 -47 1
-85 -2 -85 -7 0 -4 -8 -8 -19 -8 -22 0 -34 35 -20 61 19 36 8 32 -31 -11 -31
-34 -43 -41 -52 -32 -19 19 -37 14 -31 -8 3 -11 1 -20 -5 -20 -12 0 -24 54
-16 75 4 9 1 15 -7 15 -9 0 -7 5 4 11 14 8 22 8 30 0 16 -16 48 -14 41 2 -3 8
0 26 6 42 l11 29 24 -29 c20 -25 26 -27 34 -16z m2606 21 c8 -13 -5 -13 -25 0
-13 8 -13 10 2 10 9 0 20 -4 23 -10z m3050 0 c3 -5 1 -10 -4 -10 -6 0 -11 5
-11 10 0 6 2 10 4 10 3 0 8 -4 11 -10z m-1778 -16 c-3 -3 -12 -4 -19 -1 -8 3
-5 6 6 6 11 1 17 -2 13 -5z m3538 -11 c-11 -3 -23 -10 -27 -17 -5 -7 -8 -7 -8
0 0 16 11 24 34 23 20 -1 20 -1 1 -6z m-5765 -15 c0 -7 3 -31 6 -53 4 -27 2
-35 -4 -25 -15 24 -24 90 -12 90 5 0 10 -6 10 -12z m4174 -24 c3 -8 2 -12 -4
-9 -6 3 -10 10 -10 16 0 14 7 11 14 -7z m-2904 -9 l25 -14 -32 -1 c-23 0 -33
5 -33 15 0 18 8 18 40 0z m3120 -10 c0 -23 -47 -82 -57 -72 -7 8 20 67 29 61
5 -3 12 3 15 15 7 28 13 26 13 -4z m1470 12 c0 -22 -11 -27 -31 -14 -25 16
-24 22 6 25 15 1 25 -3 25 -11z m-5330 -1 c0 -3 -4 -8 -10 -11 -5 -3 -10 -1
-10 4 0 6 5 11 10 11 6 0 10 -2 10 -4z m-2380 -36 c0 -5 -4 -10 -10 -10 -5 0
-10 5 -10 10 0 6 5 10 10 10 6 0 10 -4 10 -10z m6865 -10 c3 -6 -4 -10 -17
-10 -13 0 -33 -3 -45 -6 -13 -4 -23 -2 -23 4 0 6 15 13 33 15 17 2 35 5 39 5
4 1 10 -2 13 -8z m-4982 -35 c-3 -9 -8 -14 -10 -11 -3 3 -2 9 2 15 9 16 15 13
8 -4z m-1386 -25 c6 -8 9 -26 6 -39 -4 -17 -2 -22 6 -17 6 4 8 12 5 18 -5 8
-1 9 12 4 10 -5 32 -10 49 -12 32 -4 60 -24 33 -24 -23 0 -39 -23 -28 -40 6
-9 5 -17 -3 -22 -8 -5 -4 -8 11 -8 12 0 22 6 22 13 0 8 3 8 9 -2 6 -9 5 -19
-3 -27 -18 -18 -28 -102 -16 -138 5 -17 12 -48 15 -68 4 -29 11 -38 25 -38 10
0 22 -4 25 -10 3 -5 19 -10 36 -10 16 0 29 5 29 10 0 6 7 10 15 10 13 0 12 -5
-5 -22 -14 -15 -30 -22 -48 -20 -18 2 -38 -6 -57 -22 -31 -27 -45 -32 -45 -17
0 5 -16 12 -35 15 -19 4 -35 11 -35 16 0 10 -40 1 -58 -13 -9 -7 -18 -6 -29 5
-14 14 -13 19 7 46 19 25 22 38 16 71 -7 45 -7 45 69 68 22 6 30 14 29 31 -1
12 2 22 6 22 14 0 4 59 -13 78 -9 10 -17 25 -17 33 0 8 -4 21 -10 29 -7 11
-11 9 -19 -13 -6 -15 -18 -27 -28 -27 -13 0 -14 3 -5 12 20 20 14 31 -14 24
-23 -6 -26 -4 -21 13 4 15 1 20 -13 18 -21 -2 -22 1 -14 43 6 26 10 29 43 27
20 -1 41 -9 48 -17z m5616 -59 c0 -30 4 -41 15 -41 12 0 12 -2 1 -16 -8 -9
-14 -22 -15 -28 0 -6 -2 -16 -2 -22 -1 -6 -14 -16 -28 -22 -14 -7 -23 -8 -19
-3 3 5 -4 12 -15 16 -16 5 -19 12 -14 27 4 14 2 18 -5 14 -19 -12 -12 19 10
42 11 12 18 26 15 31 -3 5 4 21 15 36 27 33 42 21 42 -34z m-4203 4 c0 -5 -5
-3 -10 5 -5 8 -10 20 -10 25 0 6 5 3 10 -5 5 -8 10 -19 10 -25z m464 8 c-9
-32 -10 -88 -1 -120 9 -35 -10 -27 -22 8 -14 39 -14 80 -1 113 13 36 35 34 24
-1z m1126 17 c0 -5 -5 -10 -11 -10 -5 0 -7 5 -4 10 3 6 8 10 11 10 2 0 4 -4 4
-10z m4861 -17 c-15 -29 -129 -150 -174 -185 -23 -18 7 19 68 84 61 64 111
117 113 117 1 1 -2 -7 -7 -16z m-4121 -97 c0 -3 -4 -8 -10 -11 -5 -3 -10 -1
-10 4 0 6 5 11 10 11 6 0 10 -2 10 -4z m1807 -78 c-3 -7 -5 -2 -5 12 0 14 2
19 5 13 2 -7 2 -19 0 -25z m778 8 c22 -19 26 -29 21 -50 -3 -14 -10 -26 -15
-26 -5 0 -7 9 -4 20 6 24 -19 27 -57 5 -35 -20 -45 -18 -58 10 -11 23 -9 27
14 35 14 6 31 10 39 10 8 0 17 5 20 10 8 13 8 13 40 -14z m-4405 -9 c0 -2 -8
-3 -18 -3 -10 0 -19 6 -19 13 0 8 6 9 19 2 10 -5 18 -11 18 -12z m4270 2 c0
-8 -13 -9 -40 -5 -23 4 -50 2 -63 -4 -21 -11 -21 -11 -3 4 23 18 106 22 106 5z
m-2570 -15 c0 -9 -5 -14 -12 -12 -18 6 -21 28 -4 28 9 0 16 -7 16 -16z m-3484
-31 c-10 -10 -19 5 -10 18 6 11 8 11 12 0 2 -7 1 -15 -2 -18z m1789 9 c-3 -3
-11 0 -18 7 -9 10 -8 11 6 5 10 -3 15 -9 12 -12z m1782 -14 c-3 -8 -6 -5 -6 6
-1 11 2 17 5 13 3 -3 4 -12 1 -19z m-427 -3 c0 -8 -4 -15 -10 -15 -5 0 -10 7
-10 15 0 8 5 15 10 15 6 0 10 -7 10 -15z m2079 -12 c0 -16 -4 -37 -9 -48 -6
-15 -9 -8 -9 28 -1 26 4 47 9 47 6 0 10 -12 9 -27z m-4734 -4 c5 -6 3 -9 -7
-9 -9 0 -53 -18 -97 -41 -68 -35 -82 -47 -95 -79 -8 -21 -21 -42 -27 -46 -9
-5 -10 -2 -5 12 4 10 12 37 18 59 10 37 15 41 72 60 36 12 61 26 62 35 1 8 2
18 2 22 2 9 64 -2 77 -13z m1400 11 c3 -6 -1 -7 -9 -4 -18 7 -21 14 -7 14 6 0
13 -4 16 -10z m3465 -8 c0 -5 -7 -9 -15 -9 -8 0 -12 4 -9 9 3 4 9 8 15 8 5 0
9 -4 9 -8z m1550 -22 c0 -18 -3 -19 -20 -8 -14 9 -16 14 -7 20 20 13 27 9 27
-12z m-5002 -21 c-3 -8 -7 -3 -11 10 -4 17 -3 21 5 13 5 -5 8 -16 6 -23z
m-454 -57 c-5 -7 -50 31 -69 57 -12 17 -3 12 26 -14 25 -22 44 -42 43 -43z
m4882 49 c0 -11 -5 -17 -13 -14 -7 3 -13 11 -13 19 0 8 6 14 13 14 7 0 13 -8
13 -19z m-2152 -68 c-40 -29 -46 -6 -11 44 l22 33 3 -32 c3 -22 -2 -36 -14
-45z m-3632 25 c10 -23 17 -42 15 -43 -11 -8 -66 19 -70 35 -3 13 -14 20 -29
21 -19 0 -17 2 12 13 52 20 54 19 72 -26z m3182 -3 c-4 -8 -10 -15 -15 -15 -5
0 -9 7 -9 15 0 8 7 15 15 15 9 0 12 -6 9 -15z m-10690 -11 c9 -8 16 -21 16
-27 0 -25 -32 -57 -56 -57 -22 0 -24 4 -24 50 0 46 2 50 24 50 14 0 32 -7 40
-16z m53 -61 c-2 -16 -4 -3 -4 27 0 30 2 43 4 28 2 -16 2 -40 0 -55z m76 67
c-28 -12 -29 -17 -1 -39 26 -22 18 -51 -14 -50 l-23 0 23 9 c22 9 31 30 13 30
-5 0 -17 7 -26 16 -20 20 -4 44 29 43 21 0 21 0 -1 -9z m98 1 c-49 -13 -54
-63 -9 -81 22 -8 22 -9 3 -9 -29 -1 -45 18 -45 51 0 29 22 48 55 47 17 -1 16
-2 -4 -8z m117 -3 c19 -19 15 -66 -7 -78 -11 -5 -24 -10 -30 -10 -16 0 -41 30
-41 50 0 39 52 64 78 38z m62 -30 l13 -43 15 45 c8 25 17 40 19 34 5 -14 -22
-87 -33 -91 -6 -2 -17 19 -26 47 -9 27 -13 50 -9 50 4 0 14 -19 21 -42z m118
35 c-10 -2 -18 -11 -18 -19 0 -8 8 -15 18 -15 16 -1 16 -2 0 -6 -26 -7 -22
-41 5 -46 16 -3 13 -5 -10 -6 l-33 -1 0 50 c0 48 1 50 28 49 16 -1 20 -3 10
-6z m100 -20 c2 -13 -2 -23 -8 -23 -6 0 -4 -11 6 -27 l16 -28 -20 23 c-25 27
-32 28 -32 2 0 -11 -4 -20 -10 -20 -5 0 -10 23 -10 51 0 49 1 50 28 47 19 -2
28 -9 30 -25z m13359 -15 c-3 -8 -6 -5 -6 6 -1 11 2 17 5 13 3 -3 4 -12 1 -19z
m-4847 -8 c44 -24 39 -24 -30 0 -36 13 -46 19 -30 19 14 0 41 -8 60 -19z
m3925 -20 c3 -5 -1 -10 -10 -10 -9 0 -13 5 -10 10 3 6 8 10 10 10 2 0 7 -4 10
-10z m262 -52 c-2 -13 -4 -5 -4 17 -1 22 1 32 4 23 2 -10 2 -28 0 -40z m-5689
17 c6 -29 32 -65 48 -65 7 0 18 -18 24 -40 7 -27 19 -44 33 -49 12 -5 37 -25
56 -45 19 -19 38 -33 43 -30 5 3 7 1 6 -4 -2 -6 1 -10 6 -10 5 0 12 -6 17 -13
6 -10 10 -9 15 5 4 10 10 14 13 9 3 -4 24 -17 46 -28 38 -19 57 -51 38 -64
-14 -9 -33 -69 -27 -85 6 -16 -28 -18 -38 -2 -5 7 -8 4 -8 -7 0 -10 -4 -15
-10 -12 -5 3 -10 1 -10 -4 0 -6 -19 -12 -42 -13 l-43 -1 43 -4 c49 -5 56 -21
12 -29 -16 -4 -30 -10 -30 -15 0 -16 -19 -10 -41 12 l-22 22 -13 -26 c-10 -19
-19 -24 -35 -20 -11 3 -23 12 -26 19 -2 7 -11 10 -19 7 -9 -3 -14 2 -14 17 0
12 -4 18 -10 15 -6 -4 -8 -11 -5 -16 9 -13 -9 -11 -22 2 -9 9 -8 19 3 40 13
27 13 29 -4 29 -12 0 -25 14 -36 38 -10 22 -33 48 -55 61 -23 15 -41 35 -47
57 -6 18 -7 31 -2 28 4 -3 8 2 8 10 0 21 17 29 39 16 20 -10 35 1 36 25 0 6
10 11 22 13 19 3 21 8 17 35 -4 18 -19 57 -34 87 l-28 56 46 -1 c38 0 47 -4
50 -20z m1587 -15 c21 -22 37 -40 34 -40 -3 0 -23 18 -44 40 -21 22 -37 40
-34 40 3 0 23 -18 44 -40z m917 25 c0 -5 -5 -11 -11 -13 -6 -2 -11 4 -11 13 0
9 5 15 11 13 6 -2 11 -8 11 -13z m3808 -26 c0 -11 -4 -17 -10 -14 -5 3 -10 13
-10 21 0 8 5 14 10 14 6 0 10 -9 10 -21z m-6743 -36 c-10 -22 -13 -24 -15 -9
-2 10 2 22 10 27 19 12 19 12 5 -18z m6563 -4 c0 -5 -4 -9 -10 -9 -5 0 -10 7
-10 16 0 8 5 12 10 9 6 -3 10 -10 10 -16z m-700 0 c11 -8 6 -9 -22 -7 -31 3
-38 1 -38 -14 0 -18 -35 -42 -49 -34 -14 9 0 55 18 59 31 9 76 7 91 -4z m730
-9 c0 -5 -4 -10 -10 -10 -5 0 -10 5 -10 10 0 6 5 10 10 10 6 0 10 -4 10 -10z
m-677 -7 c-7 -2 -19 -2 -25 0 -7 3 -2 5 12 5 14 0 19 -2 13 -5z m-2903 -12 c0
-6 -4 -12 -9 -16 -11 -6 -11 -45 0 -45 4 0 10 -8 13 -17 6 -15 5 -15 -13 1
-11 10 -18 22 -16 26 3 5 0 10 -6 12 -16 5 -1 48 17 48 8 0 14 -4 14 -9z
m3085 -119 c-10 -34 -21 -64 -25 -67 -4 -3 1 23 11 56 10 33 20 80 21 102 1
41 1 41 5 7 3 -19 -3 -63 -12 -98z m-6232 111 c-24 -2 -62 -2 -85 0 -24 2 -5
4 42 4 47 0 66 -2 43 -4z m6032 -13 c3 -5 2 -10 -4 -10 -5 0 -13 5 -16 10 -3
6 -2 10 4 10 5 0 13 -4 16 -10z m-2015 -36 c0 -8 -6 -14 -14 -14 -16 0 -66
-63 -66 -83 0 -8 7 -17 15 -21 11 -4 14 -13 9 -33 -9 -37 -11 -38 -29 -23 -15
12 -16 9 -13 -35 2 -32 -1 -49 -9 -52 -7 -3 -13 0 -13 7 0 6 5 8 10 5 14 -9
12 5 -5 35 -13 22 -14 23 -15 5 0 -14 -3 -16 -8 -7 -12 19 -40 4 -58 -30 -16
-32 -35 -30 -27 3 3 11 20 27 37 36 31 14 63 65 58 91 -2 6 2 12 9 12 6 0 9 7
5 15 -3 8 -1 15 4 15 6 0 10 12 10 26 0 38 18 64 43 63 14 0 17 -2 7 -6 -30
-11 -55 -63 -30 -63 6 0 10 5 10 11 0 14 53 68 63 62 4 -2 7 -11 7 -19z
m-4333 -30 c-20 -20 -42 -34 -49 -32 -7 3 7 18 31 36 58 42 64 40 18 -4z
m4383 32 c0 -2 -8 -10 -17 -17 -16 -13 -17 -12 -4 4 13 16 21 21 21 13z m-410
-16 c0 -5 -5 -10 -11 -10 -5 0 -7 5 -4 10 3 6 8 10 11 10 2 0 4 -4 4 -10z
m-1357 -7 c-7 -2 -19 -2 -25 0 -7 3 -2 5 12 5 14 0 19 -2 13 -5z m1027 -8 c0
-8 -4 -15 -10 -15 -5 0 -7 7 -4 15 4 8 8 15 10 15 2 0 4 -7 4 -15z m207 -11
c-23 -13 -27 -19 -23 -51 3 -20 1 -32 -4 -27 -7 8 -14 64 -11 85 1 3 16 6 34
7 l32 1 -28 -15z m3199 -55 c4 -8 9 -7 15 2 6 10 9 7 9 -11 0 -15 3 -30 8 -36
4 -5 0 -1 -10 8 -12 13 -18 15 -21 6 -3 -8 -6 -6 -6 5 -1 9 -5 17 -11 17 -5 0
-10 5 -10 10 0 13 17 13 26 -1z m-5806 -25 c0 -12 -4 -12 -20 -4 -11 6 -18 15
-15 20 8 13 35 0 35 -16z m5788 -29 c0 -28 -15 -29 -32 -2 -8 13 -7 20 4 27
19 12 28 5 28 -25z m-13744 -42 c52 -61 29 -133 -44 -133 -51 0 -91 50 -74 94
6 15 8 15 24 1 22 -20 32 -9 24 31 -3 18 0 42 7 55 12 22 13 23 23 5 6 -11 24
-34 40 -53z m7261 44 c4 5 5 -2 2 -14 -6 -28 9 -39 29 -22 28 23 44 19 44 -11
0 -16 -4 -31 -9 -34 -12 -8 -2 -46 13 -46 7 0 6 -4 -2 -9 -11 -6 -10 -11 3
-25 10 -9 15 -20 12 -23 -3 -3 0 -12 8 -20 8 -8 15 -22 15 -32 0 -9 9 -27 20
-39 26 -28 25 -32 -9 -32 -26 0 -30 4 -33 33 l-4 32 -11 -35 c-8 -25 -12 -29
-14 -15 -6 48 -17 75 -33 75 -6 0 -18 -21 -26 -47 -17 -52 -36 -66 -43 -31 -4
20 -4 19 -6 -5 -1 -28 -2 -29 -51 -25 -36 2 -50 -1 -50 -10 0 -7 -5 -10 -11
-7 -6 4 -8 14 -5 22 3 8 1 11 -4 8 -6 -3 -10 -1 -10 5 0 6 -5 8 -12 4 -10 -6
-10 -4 -2 7 6 8 11 34 10 59 -1 57 28 99 53 76 14 -13 19 -13 35 0 11 8 37 14
58 14 21 0 38 5 38 11 0 6 -9 8 -20 4 -15 -5 -20 -2 -20 10 0 11 5 15 15 11 8
-3 15 -1 15 4 0 6 -4 10 -10 10 -5 0 -9 3 -9 8 3 20 -2 33 -13 31 -27 -3 -37
2 -32 16 4 8 13 15 21 15 12 0 14 7 8 27 -6 26 -6 27 13 10 10 -9 22 -14 27
-10z m5945 -27 c-11 -16 -26 -33 -32 -36 -7 -4 1 9 16 29 34 44 46 50 16 7z
m-12540 -57 l0 -68 -35 -3 c-30 -2 -37 2 -46 24 -14 37 13 78 47 71 20 -3 24
0 24 19 0 13 2 24 5 24 3 0 5 -30 5 -67z m50 57 c0 -5 -4 -10 -10 -10 -5 0
-10 5 -10 10 0 6 5 10 10 10 6 0 10 -4 10 -10z m-427 -7 c-21 -4 -23 -11 -25
-66 l-2 -62 -3 62 c-3 54 -7 62 -26 66 -12 2 1 4 28 4 28 0 40 -2 28 -4z m65
-30 c-17 -4 -22 -17 -31 -73 -3 -14 -5 -2 -6 25 -1 49 0 51 27 52 15 0 19 -1
10 -4z m90 -5 c23 -23 13 -38 -23 -38 -49 0 -42 -30 10 -43 16 -4 15 -5 -6 -6
-32 -1 -49 16 -49 49 0 29 16 50 40 50 9 0 21 -5 28 -12z m108 -43 l2 -50 -7
45 c-5 36 -10 45 -26 45 -16 0 -21 -8 -23 -42 -4 -59 -22 -54 -22 6 l0 49 38
-1 37 -2 1 -50z m164 5 c0 -27 -4 -50 -10 -50 -5 0 -10 23 -10 50 0 28 5 50
10 50 6 0 10 -22 10 -50z m40 -10 l-7 -45 -2 55 c0 32 3 50 8 45 5 -6 5 -30 1
-55z m58 48 c14 -14 16 -88 2 -88 -5 0 -10 20 -10 44 0 34 -4 46 -17 49 -14 4
-14 5 -2 6 8 0 20 -4 27 -11z m122 -37 c0 -58 -22 -91 -58 -90 -27 1 -27 1 3
8 16 3 31 14 33 23 2 12 -2 15 -17 11 -28 -7 -51 14 -51 46 0 36 17 51 57 49
32 -1 33 -2 33 -47z m6268 1 c-6 -7 -20 -11 -31 -8 -10 2 -30 1 -43 -4 -15 -6
-24 -6 -24 0 0 6 7 10 15 10 8 0 16 5 16 10 1 9 5 25 8 34 0 2 17 -4 36 -12
27 -13 32 -19 23 -30z m5927 -21 c-18 -28 -41 -72 -51 -98 -9 -26 -21 -52 -26
-58 -5 -5 -2 10 7 34 8 24 12 47 9 52 -3 5 0 9 5 9 6 0 11 6 11 13 0 12 66 97
75 97 2 0 -11 -22 -30 -49z m-2101 12 c34 -17 34 -20 29 -63 -3 -25 -5 -53 -5
-62 0 -10 -8 -23 -19 -28 -10 -6 -19 -15 -19 -21 0 -6 -7 -26 -16 -45 -12 -24
-23 -34 -39 -34 -13 0 -26 -6 -29 -12 -7 -15 -2 37 14 137 6 39 12 79 14 90 4
28 17 55 27 55 4 0 24 -8 43 -17z m946 3 c0 -2 -7 -6 -15 -10 -8 -3 -15 -1
-15 4 0 6 7 10 15 10 8 0 15 -2 15 -4z m35 -26 c3 -5 0 -10 -9 -10 -8 0 -23
-3 -33 -7 -16 -6 -16 -5 -4 10 15 19 37 22 46 7z m-4135 -50 c0 -5 -5 -10 -11
-10 -5 0 -7 5 -4 10 3 6 8 10 11 10 2 0 4 -4 4 -10z m-360 -10 c0 -5 -4 -10
-10 -10 -5 0 -10 5 -10 10 0 6 5 10 10 10 6 0 10 -4 10 -10z m70 -5 c7 -8 16
-13 20 -10 5 3 11 1 15 -5 12 -19 -40 -10 -58 10 -13 15 -14 20 -3 20 7 0 19
-7 26 -15z m-55 -36 c-5 -16 -9 -18 -15 -9 -4 7 -3 19 3 25 16 17 20 11 12
-16z m3285 -22 c0 -16 -4 -26 -9 -22 -5 3 -12 -5 -14 -17 -2 -13 -2 -5 0 17 2
22 4 49 4 60 0 16 2 17 9 5 5 -8 10 -28 10 -43z m2940 39 c0 -2 -8 -10 -17
-17 -16 -13 -17 -12 -4 4 13 16 21 21 21 13z m-713 -118 c-3 -8 -6 -5 -6 6 -1
11 2 17 5 13 3 -3 4 -12 1 -19z m-5647 -3 c-46 -18 -50 -18 -44 0 4 10 19 15
43 14 l36 -1 -35 -13z m3390 -5 c0 -5 -5 -10 -11 -10 -5 0 -7 5 -4 10 3 6 8
10 11 10 2 0 4 -4 4 -10z m-320 -30 c0 -5 -7 -10 -15 -10 -7 0 -18 -7 -23 -16
-7 -13 -11 -14 -17 -4 -5 8 -1 18 10 27 22 15 45 17 45 3z m267 -22 c-3 -8 -6
-5 -6 6 -1 11 2 17 5 13 3 -3 4 -12 1 -19z m-695 -6 l-23 -18 26 -12 c34 -15
68 -15 84 1 11 10 11 8 0 -10 -7 -12 -20 -24 -28 -25 -12 -3 -12 -6 2 -20 21
-21 22 -35 2 -18 -9 8 -30 11 -55 7 -33 -4 -40 -2 -46 15 -3 11 -1 25 4 30 7
7 7 19 2 34 -10 24 -1 32 35 33 19 1 19 -1 -3 -17z m207 2 c17 -4 31 -10 31
-15 0 -14 -40 -31 -57 -25 -13 5 -13 9 -2 22 11 14 9 15 -26 8 -27 -5 -36 -4
-31 5 8 12 38 14 85 5z m2778 -26 c-3 -7 -5 -2 -5 12 0 14 2 19 5 13 2 -7 2
-19 0 -25z m-2712 12 c-3 -5 -11 -10 -16 -10 -6 0 -7 5 -4 10 3 6 11 10 16 10
6 0 7 -4 4 -10z m682 -56 c6 -14 9 -32 6 -40 -3 -8 0 -14 7 -14 8 0 10 -8 5
-22 -22 -76 -24 -93 -9 -109 14 -15 14 -21 1 -45 l-15 -28 -12 59 c-6 33 -18
79 -26 103 -13 39 -12 59 2 114 7 23 26 14 41 -18z m2563 11 c0 -2 -13 -11
-30 -20 -38 -19 -40 -11 -2 9 31 17 32 18 32 11z m-2836 -30 c3 -8 1 -15 -4
-15 -6 0 -10 7 -10 15 0 8 2 15 4 15 2 0 6 -7 10 -15z m307 -12 c-12 -20 -14
-14 -5 12 4 9 9 14 11 11 3 -2 0 -13 -6 -23z m-11026 2 c81 -39 76 -155 -8
-190 -41 -17 -80 -9 -111 22 -51 51 -38 140 26 168 42 18 53 18 93 0z m10702
-55 c-6 -16 -13 -27 -15 -25 -8 7 10 65 18 60 4 -3 3 -18 -3 -35z m-9817 -50
c0 -40 -4 -70 -10 -70 -6 0 -10 30 -10 70 0 40 4 70 10 70 6 0 10 -30 10 -70z
m-600 7 l35 -52 6 55 6 55 1 -67 c1 -38 -1 -68 -5 -68 -5 0 -24 24 -43 52
l-35 52 -6 -55 -6 -54 -1 68 c-1 37 1 67 6 67 4 0 23 -24 42 -53z m454 29 c9
-14 8 -20 -5 -29 -15 -9 -15 -13 3 -44 11 -18 16 -33 11 -33 -4 0 -16 14 -25
30 -23 40 -46 39 -51 -2 -2 -18 -5 -2 -5 35 l-2 68 31 -3 c18 -2 37 -11 43
-22z m-306 -18 c23 -23 13 -38 -23 -38 -49 0 -42 -30 10 -43 16 -4 15 -5 -6
-6 -32 -1 -49 16 -49 49 0 29 16 50 40 50 9 0 21 -5 28 -12z m48 -23 c3 -19
10 -35 14 -35 4 0 11 16 14 35 9 45 23 45 32 0 7 -40 20 -38 29 6 4 17 9 28
11 26 7 -7 -17 -97 -26 -97 -5 0 -11 13 -15 30 -9 43 -22 45 -29 5 -9 -47 -23
-44 -37 8 -6 23 -13 45 -16 50 -2 4 0 7 6 7 6 0 13 -16 17 -35z m352 23 c23
-23 13 -38 -23 -38 -49 0 -42 -30 10 -43 16 -4 15 -5 -5 -6 -33 -1 -50 16 -50
49 0 29 16 50 40 50 9 0 21 -5 28 -12z m152 -7 c15 -29 13 -31 -26 -31 -28 0
-35 -3 -32 -17 2 -12 13 -18 31 -18 16 1 23 -3 18 -8 -16 -16 -58 1 -64 25
-13 50 50 92 73 49z m90 0 c5 -11 10 -33 10 -49 0 -28 -2 -30 -37 -29 -50 3
-59 33 -14 50 38 14 43 42 6 35 -13 -3 -22 -1 -19 3 10 16 43 9 54 -10z m80
12 c-8 -2 -22 -7 -30 -9 -10 -4 -7 -11 15 -28 34 -27 29 -56 -10 -56 -14 0
-25 4 -25 9 0 5 8 7 19 4 30 -8 34 14 6 33 -40 26 -30 52 20 52 13 0 15 -1 5
-5z m108 -20 c3 -20 -1 -23 -28 -23 -25 0 -31 -4 -28 -17 2 -12 13 -18 30 -18
15 1 24 -3 22 -7 -10 -16 -53 -8 -64 11 -14 28 -13 47 6 66 23 22 58 15 62
-12z m72 20 c-8 -2 -22 -7 -30 -9 -10 -4 -7 -11 15 -28 34 -27 29 -56 -10 -56
-14 0 -25 4 -25 9 0 5 8 7 19 4 30 -8 34 14 6 33 -40 26 -30 52 20 52 13 0 15
-1 5 -5z m8840 -49 c0 -8 -4 -12 -10 -9 -5 3 -10 10 -10 16 0 5 5 9 10 9 6 0
10 -7 10 -16z m-1498 -23 c22 -26 8 -47 -21 -32 -23 13 -23 13 -15 35 8 21 16
20 36 -3z m1978 11 c0 -5 -14 -9 -32 -10 -23 -1 -28 2 -18 8 19 12 50 13 50 2z
m2552 -34 c-3 -13 -13 -18 -33 -16 -34 3 -33 2 -14 22 21 21 53 17 47 -6z
m-4997 2 c3 -5 1 -10 -4 -10 -6 0 -11 5 -11 10 0 6 2 10 4 10 3 0 8 -4 11 -10z
m2642 -16 c-3 -3 -12 -4 -19 -1 -8 3 -5 6 6 6 11 1 17 -2 13 -5z m-840 -20
c-3 -3 -12 -4 -19 -1 -8 3 -5 6 6 6 11 1 17 -2 13 -5z m-27 -14 c8 -5 11 -10
5 -10 -5 0 -17 5 -25 10 -8 5 -10 10 -5 10 6 0 17 -5 25 -10z m3346 -28 c-18
-16 -18 -16 -6 6 6 13 14 21 18 18 3 -4 -2 -14 -12 -24z m-3436 -32 c0 -5 -2
-10 -4 -10 -3 0 -8 5 -11 10 -3 6 -1 10 4 10 6 0 11 -4 11 -10z m-167 -62 c9
0 17 -3 17 -8 0 -14 -31 -20 -51 -10 -24 13 -26 35 -1 25 9 -4 25 -7 35 -7z
m-336 -40 c-3 -7 -5 -2 -5 12 0 14 2 19 5 13 2 -7 2 -19 0 -25z m-20 -120 c-3
-7 -5 -2 -5 12 0 14 2 19 5 13 2 -7 2 -19 0 -25z m797 13 c-10 -10 -24 -16
-30 -14 -6 2 -17 -3 -24 -12 -11 -13 -14 -13 -31 6 -9 11 -21 20 -26 20 -4 1
-10 3 -13 6 -3 3 18 3 47 2 28 -2 49 -1 46 4 -2 4 8 7 23 7 27 0 27 0 8 -19z
m-1551 2 c-7 -2 -19 -2 -25 0 -7 3 -2 5 12 5 14 0 19 -2 13 -5z m744 -55 c-3
-8 -6 -5 -6 6 -1 11 2 17 5 13 3 -3 4 -12 1 -19z m-9337 -79 c0 -46 -4 -79
-10 -79 -6 0 -10 35 -10 86 0 54 4 83 10 79 6 -3 10 -42 10 -86z m1020 3 l0
-69 -32 -1 c-41 -1 -58 13 -58 48 0 33 22 54 50 47 16 -4 20 0 20 19 0 13 5
24 10 24 6 0 10 -29 10 -68z m7750 58 c-18 -12 -30 -13 -30 -2 0 4 10 9 22 9
18 2 20 0 8 -7z m-8507 -7 c-21 -4 -23 -11 -25 -66 l-2 -62 -3 62 c-3 54 -7
62 -26 66 -12 2 1 4 28 4 28 0 40 -2 28 -4z m374 -9 c3 -9 1 -25 -6 -36 -10
-16 -8 -24 9 -48 12 -17 17 -30 11 -30 -5 0 -18 14 -28 30 -9 17 -23 30 -30
30 -8 0 -13 -12 -13 -30 0 -16 -4 -30 -10 -30 -6 0 -10 28 -10 65 l0 65 35 0
c24 0 38 -5 42 -16z m167 -16 c8 -5 7 -8 -1 -8 -16 0 -18 -76 -3 -83 6 -3 5
-4 -2 -3 -7 1 -14 20 -16 42 -2 21 -9 42 -15 46 -9 6 -9 8 1 8 6 0 12 8 13 18
0 13 2 14 6 2 3 -8 11 -18 17 -22z m-864 -59 c0 -27 -4 -49 -10 -49 -5 0 -10
25 -10 56 0 34 4 53 10 49 6 -3 10 -28 10 -56z m418 49 c15 -15 15 -61 0 -76
-7 -7 -21 -12 -33 -12 -28 0 -45 19 -45 50 0 31 17 50 45 50 12 0 26 -5 33
-12z m108 1 c19 -15 18 -63 -1 -79 -8 -7 -24 -10 -34 -7 -15 4 -21 -1 -24 -22
-2 -14 -5 6 -6 44 -1 70 -1 71 25 73 15 1 33 -3 40 -9z m272 -39 c3 -44 2 -46
-28 -48 -20 -2 -33 3 -36 13 -8 20 13 45 38 45 11 0 18 5 15 13 -2 6 -14 12
-26 11 -11 0 -21 3 -21 8 0 5 12 8 28 6 24 -3 27 -7 30 -48z m160 38 c23 -23
13 -38 -23 -38 -49 0 -42 -30 10 -43 16 -4 15 -5 -5 -6 -33 -1 -50 16 -50 49
0 29 16 50 40 50 9 0 21 -5 28 -12z m9025 -2 c1 -5 -10 -10 -25 -10 -31 -2
-38 10 -10 17 22 6 33 4 35 -7z m4084 -22 c-3 -3 -12 -4 -19 -1 -8 3 -5 6 6 6
11 1 17 -2 13 -5z m-4147 -14 c0 -5 -6 -10 -14 -10 -8 0 -22 -7 -30 -16 -13
-12 -16 -12 -16 -2 0 8 5 19 12 26 15 15 48 16 48 2z m-9980 -35 c0 -14 -4
-25 -10 -25 -5 0 -10 11 -10 25 0 14 5 25 10 25 6 0 10 -11 10 -25z m9437 3
c-3 -8 -6 -5 -6 6 -1 11 2 17 5 13 3 -3 4 -12 1 -19z m4681 -290 c9 -11 11
-18 4 -18 -13 0 -32 32 -31 52 0 9 2 8 6 -2 3 -8 12 -23 21 -32z m-1843 12 c3
-5 1 -10 -4 -10 -6 0 -11 5 -11 10 0 6 2 10 4 10 3 0 8 -4 11 -10z m378 -70
c3 -11 2 -22 -2 -24 -4 -3 -8 6 -9 20 -2 29 4 31 11 4z m149 -40 c14 0 9 -47
-7 -60 -8 -7 -15 -9 -15 -6 0 4 -9 2 -21 -4 -28 -15 -37 -4 -13 16 18 15 18
15 -8 9 -17 -3 -28 -1 -28 5 0 6 -4 8 -10 5 -5 -3 -10 -1 -10 5 0 6 8 9 18 6
13 -4 22 5 37 40 l20 45 14 -31 c8 -16 18 -30 23 -30z m-12677 14 c31 -20 34
-64 5 -71 -11 -3 -20 -12 -20 -19 0 -8 -7 -17 -15 -20 -8 -4 -15 -14 -15 -23
1 -20 24 -51 39 -51 6 0 11 -4 11 -10 0 -6 -33 -10 -79 -10 -44 0 -83 5 -86
10 -3 6 0 10 7 10 8 0 22 10 32 22 15 17 16 25 7 37 -6 9 -14 23 -17 33 -3 9
-14 18 -25 21 -31 8 -34 36 -8 62 19 19 35 24 82 24 37 1 66 -5 82 -15z m642
-141 c-2 -21 -4 -4 -4 37 0 41 2 58 4 38 2 -21 2 -55 0 -75z m-369 81 c15 -27
2 -55 -29 -61 -21 -4 -29 -12 -32 -32 -2 -14 -5 4 -6 42 l-1 67 30 0 c16 0 33
-7 38 -16z m106 -36 c26 -43 -31 -99 -70 -68 -17 15 -18 62 -2 78 17 17 58 11
72 -10z m102 11 c19 -15 18 -63 -1 -79 -8 -7 -24 -10 -34 -7 -15 4 -21 -1 -24
-22 -2 -14 -5 6 -6 44 -1 70 -1 71 25 73 15 1 33 -3 40 -9z m79 -74 c16 0 21
8 23 43 4 58 22 53 22 -7 l0 -49 -37 1 -38 2 -1 50 -2 50 7 -45 c5 -36 10 -45
26 -45z m173 73 c7 -7 12 -28 12 -48 0 -35 -2 -37 -34 -38 -21 -1 -36 4 -40
13 -6 17 19 45 40 45 8 0 14 7 14 16 0 12 -7 15 -25 12 -13 -3 -22 -1 -19 3 8
13 38 11 52 -3z m80 5 c-17 -4 -22 -17 -31 -73 -3 -14 -5 -2 -6 25 -1 49 0 51
27 52 15 0 19 -1 10 -4z m13222 -7 c0 -3 -4 -8 -10 -11 -5 -3 -10 -1 -10 4 0
6 5 11 10 11 6 0 10 -2 10 -4z m7 -48 c-3 -8 -6 -5 -6 6 -1 11 2 17 5 13 3 -3
4 -12 1 -19z m-2277 -39 c0 -5 -4 -9 -8 -9 -5 0 -9 7 -9 15 0 8 4 12 9 9 4 -3
8 -9 8 -15z m931 -3 c-9 -11 -9 -15 1 -18 9 -3 6 -9 -9 -16 -19 -11 -20 -10
-15 10 6 24 24 49 31 42 2 -2 -1 -10 -8 -18z m1356 -8 c-3 -7 -5 -2 -5 12 0
14 2 19 5 13 2 -7 2 -19 0 -25z m-70 -25 c-3 -10 -5 -2 -5 17 0 19 2 27 5 18
2 -10 2 -26 0 -35z m-1248 -16 c1 12 41 6 41 -7 0 -13 -48 -18 -59 -7 -8 8
-11 7 -11 -1 0 -7 -4 -12 -10 -12 -15 0 -12 17 7 36 16 15 17 15 24 -2 4 -11
8 -14 8 -7z m58 -9 c-3 -8 -6 -5 -6 6 -1 11 2 17 5 13 3 -3 4 -12 1 -19z
m-1170 -50 c-3 -8 -6 -5 -6 6 -1 11 2 17 5 13 3 -3 4 -12 1 -19z m1143 -2 c0
-3 -4 -8 -10 -11 -5 -3 -10 -1 -10 4 0 6 5 11 10 11 6 0 10 -2 10 -4z m1750
-5 c0 -14 -41 -41 -60 -40 -10 0 -7 4 8 11 12 6 22 17 22 25 0 7 7 13 15 13 8
0 15 -4 15 -9z m-1669 -53 c-11 -11 -13 -10 -7 0 4 7 2 21 -5 30 -12 15 -11
15 6 0 16 -15 17 -20 6 -30z m1936 -170 c-3 -8 -6 -5 -6 6 -1 11 2 17 5 13 3
-3 4 -12 1 -19z m-14778 -37 c14 -9 30 -91 23 -123 -4 -23 -36 -23 -73 -1 -28
17 -31 17 -60 0 -39 -22 -65 -22 -73 0 -10 26 4 107 22 121 18 14 140 16 161
3z m328 -108 c-2 -21 -4 -4 -4 37 0 41 2 58 4 38 2 -21 2 -55 0 -75z m53 37
c0 -40 -4 -70 -10 -70 -6 0 -10 30 -10 70 0 40 4 70 10 70 6 0 10 -30 10 -70z
m-108 -5 c15 -36 22 -65 18 -65 -5 0 -12 9 -15 20 -4 14 -15 20 -35 20 -20 0
-31 -6 -35 -20 -3 -11 -10 -20 -16 -20 -7 0 -1 21 38 118 10 23 20 12 45 -53z
m288 57 c0 -5 -13 -7 -28 -4 -36 5 -62 -19 -62 -57 0 -35 17 -51 52 -51 23 0
28 4 28 24 0 15 -7 26 -17 29 -13 3 -12 5 5 6 20 1 23 -3 20 -31 -3 -35 -21
-44 -62 -34 -47 12 -53 89 -9 115 22 12 73 14 73 3z m98 -73 l3 -46 -33 1
c-26 1 -34 6 -36 24 -3 18 2 23 28 28 35 8 35 25 -1 36 -22 6 -21 7 6 5 28 -2
30 -5 33 -48z m158 -4 l2 -50 -7 45 c-4 31 -11 46 -23 48 -17 3 -22 -7 -31
-68 -3 -14 -5 -7 -6 18 -1 28 -6 45 -16 49 -22 8 -28 -1 -36 -50 l-6 -42 -2
51 -1 51 63 -1 62 -1 1 -50z m102 43 c23 -23 13 -38 -23 -38 -49 0 -42 -30 10
-43 16 -4 15 -5 -5 -6 -33 -1 -50 16 -50 49 0 29 16 50 40 50 9 0 21 -5 28
-12z m82 5 c-8 -2 -22 -7 -30 -9 -10 -4 -7 -11 15 -28 35 -28 29 -56 -12 -55
-15 0 -21 3 -13 6 8 2 22 7 30 9 10 4 7 11 -15 28 -35 28 -29 56 12 55 15 0
21 -3 13 -6z m-1078 -453 c15 0 28 4 28 10 0 5 15 1 33 -9 31 -17 32 -20 35
-93 4 -98 -5 -108 -97 -108 -96 0 -103 7 -99 105 3 72 5 81 26 90 12 5 22 14
22 19 0 6 5 5 12 -2 7 -7 25 -12 40 -12z m898 -30 c0 -5 -4 -10 -10 -10 -5 0
-10 5 -10 10 0 6 5 10 10 10 6 0 10 -4 10 -10z m-610 -55 c0 -42 4 -57 16 -62
30 -11 49 12 55 68 l6 54 1 -56 c1 -39 -3 -60 -12 -69 -22 -18 -59 -8 -73 20
-15 30 -17 100 -3 100 6 0 10 -25 10 -55z m186 14 c19 -15 18 -63 -1 -79 -8
-7 -24 -10 -34 -7 -15 4 -21 -1 -24 -22 -2 -14 -5 6 -6 44 -1 70 -1 71 25 73
15 1 33 -3 40 -9z m86 4 c-52 -10 -51 -76 1 -86 19 -4 19 -4 -4 -6 -31 -1 -49
15 -49 45 0 29 26 54 53 53 21 -2 21 -2 -1 -6z m116 -5 c15 -15 15 -61 0 -76
-7 -7 -21 -12 -33 -12 -28 0 -45 19 -45 50 0 31 17 50 45 50 12 0 26 -5 33
-12z m160 -1 c14 -11 16 -87 2 -87 -5 0 -10 21 -10 46 0 38 -3 45 -17 42 -13
-2 -20 -16 -24 -48 -6 -41 -6 -42 -8 -10 -3 75 -47 82 -54 8 l-4 -43 -1 51 -2
51 53 0 c28 0 58 -4 65 -10z m49 -64 c-2 -16 -4 -3 -4 27 0 30 2 43 4 28 2
-16 2 -40 0 -55z m109 22 l2 -50 -7 45 c-5 36 -10 45 -26 45 -16 0 -21 -9 -26
-45 l-6 -45 -1 51 -2 51 33 -1 c32 -1 32 -2 33 -51z m114 -5 c0 -31 -5 -61
-12 -68 -13 -13 -54 -16 -61 -4 -3 4 9 7 26 7 21 0 33 5 35 17 2 12 -2 15 -17
11 -28 -7 -51 14 -51 46 0 35 17 52 52 49 27 -2 28 -4 28 -58z m2270 -2165 l0
-135 -30 0 -30 0 0 135 0 135 30 0 30 0 0 -135z m220 1 l0 -134 -75 0 c-68 -1
-76 2 -95 25 -29 38 -27 97 6 129 20 21 33 25 65 22 l39 -4 0 48 c0 47 1 48
30 48 l30 0 0 -134z m-530 104 c25 -25 26 -62 0 -85 -19 -17 -19 -18 5 -37 32
-25 32 -62 0 -93 -21 -22 -33 -25 -100 -25 l-75 0 0 130 0 130 75 0 c62 0 79
-4 95 -20z m990 -20 c0 -38 -2 -40 -30 -40 -28 0 -30 2 -30 40 0 38 2 40 30
40 28 0 30 -2 30 -40z m474 34 c9 -3 16 -17 16 -30 0 -22 -2 -23 -50 -17 -44
5 -54 3 -75 -17 -51 -48 -20 -145 43 -138 40 4 44 45 5 50 -20 2 -29 9 -31 26
-3 21 0 22 57 22 l61 0 0 -65 c0 -61 -2 -66 -26 -75 -38 -15 -111 -12 -144 5
-81 42 -79 175 3 225 31 20 107 27 141 14z m746 -124 l0 -130 -30 0 -30 0 0
130 0 130 30 0 30 0 0 -130z m120 0 l0 -130 -35 0 -35 0 0 130 0 130 35 0 35
0 0 -130z m110 0 l0 -130 -30 0 -30 0 0 130 0 130 30 0 30 0 0 -130z m-650 75
c0 -20 5 -25 25 -25 18 0 25 -5 25 -20 0 -15 -7 -20 -25 -20 -22 0 -25 -4 -25
-38 0 -42 15 -63 37 -55 11 4 14 0 11 -18 -2 -20 -10 -25 -39 -27 -52 -4 -69
17 -69 84 0 41 -4 54 -15 54 -8 0 -15 9 -15 20 0 11 7 20 15 20 8 0 15 9 15
19 0 18 14 27 48 30 6 0 12 -10 12 -24z m-1600 -45 c16 -16 20 -33 20 -89 l0
-69 -70 0 c-75 0 -100 12 -100 49 0 26 35 59 63 59 12 0 29 4 37 10 24 15 -18
25 -51 13 -27 -10 -29 -9 -29 12 0 26 14 32 73 34 25 1 43 -5 57 -19z m440
-39 c0 -67 17 -93 44 -66 11 11 16 34 16 71 0 53 0 54 30 54 l30 0 0 -90 0
-90 -30 0 c-16 0 -30 5 -30 10 0 7 -6 7 -19 0 -29 -15 -62 -12 -83 7 -14 13
-18 31 -18 90 l0 73 30 0 c30 0 30 0 30 -59z m280 33 c0 -16 -6 -24 -18 -24
-30 0 -42 -22 -42 -77 l0 -53 -35 0 -35 0 0 90 0 89 65 -1 c61 -1 65 -2 65
-24z m228 -1 c3 -20 0 -21 -32 -16 -48 7 -47 -10 2 -34 44 -22 53 -52 22 -83
-17 -17 -31 -20 -73 -18 -45 3 -52 6 -55 26 -3 21 -1 22 36 16 51 -8 64 11 17
26 -55 18 -69 56 -34 91 16 16 30 19 67 17 40 -3 47 -6 50 -25z m522 7 c16
-16 20 -33 20 -89 l0 -69 -70 0 c-75 0 -100 12 -100 49 0 26 35 59 63 59 12 0
29 4 37 10 24 15 -14 24 -50 12 -28 -10 -30 -9 -30 13 0 26 13 32 73 34 25 1
43 -5 57 -19z m338 0 c14 -14 22 -33 22 -55 l0 -35 -55 0 c-30 0 -55 -4 -55
-9 0 -15 37 -23 70 -16 25 6 30 4 30 -13 0 -24 -18 -32 -70 -32 -58 0 -95 35
-95 90 0 34 6 47 28 66 36 31 94 32 125 4z m-638 -575 c0 -65 0 -65 -28 -65
-33 0 -52 16 -52 45 0 26 18 45 42 45 11 0 18 7 18 20 0 11 5 20 10 20 6 0 10
-28 10 -65z m-1326 22 c8 -21 7 -35 -5 -55 -14 -27 -59 -44 -59 -23 0 6 9 11
19 11 10 0 21 6 24 13 3 8 -4 13 -22 12 -20 0 -27 6 -29 23 -8 54 55 70 72 19z
m94 26 c-2 -5 -12 -32 -23 -60 -11 -29 -23 -53 -27 -53 -12 0 -10 17 7 57 19
45 19 43 -10 43 -14 0 -25 5 -25 10 0 6 18 10 41 10 22 0 39 -3 37 -7z m412
-2 c0 -5 -8 -7 -19 -4 -34 9 -34 -18 0 -47 29 -24 32 -30 20 -44 -14 -16 -71
-23 -71 -8 0 5 14 7 30 4 40 -6 40 15 -2 49 -28 23 -30 29 -19 43 14 17 61 22
61 7z m54 -23 c8 -5 7 -8 -1 -8 -8 0 -13 -14 -13 -34 0 -19 6 -37 13 -39 7 -3
5 -6 -5 -6 -14 -1 -18 7 -18 39 0 25 -5 40 -12 41 -10 0 -10 2 0 6 6 2 12 12
13 21 0 14 2 14 6 2 3 -8 11 -18 17 -22z m200 0 c8 -5 7 -8 -1 -8 -8 0 -13
-14 -13 -34 0 -19 6 -37 13 -39 7 -3 5 -6 -5 -6 -14 -1 -18 7 -18 39 0 25 -5
40 -12 41 -10 0 -10 2 0 6 6 2 12 12 13 21 0 14 2 14 6 2 3 -8 11 -18 17 -22z
m456 -24 c21 -57 21 -84 0 -45 -14 27 -50 27 -57 1 -5 -17 -23 -29 -23 -15 0
16 43 115 50 115 5 0 18 -25 30 -56z m420 41 c0 -8 6 -15 13 -16 10 0 10 -2 0
-6 -7 -2 -13 -20 -13 -38 0 -18 6 -36 13 -39 6 -3 3 -5 -8 -3 -15 2 -21 12
-25 42 -3 22 -4 48 -2 58 5 21 22 23 22 2z m437 -1 c3 -9 1 -25 -5 -34 -8 -13
-7 -22 3 -36 16 -22 19 -34 7 -34 -5 0 -14 11 -20 25 -15 33 -40 32 -45 -2 -2
-16 -5 0 -6 35 l-1 62 30 0 c19 0 33 -6 37 -16z m100 0 c8 -22 -9 -48 -35 -52
-14 -2 -22 -12 -25 -30 -2 -15 -5 1 -6 36 l-1 62 30 0 c19 0 33 -6 37 -16z
m113 7 c0 -4 -11 -6 -25 -3 -33 6 -55 -14 -55 -48 0 -32 21 -53 47 -48 24 4
29 35 6 41 -14 4 -13 5 5 6 20 1 23 -3 20 -26 -2 -23 -8 -29 -35 -31 -54 -5
-83 58 -43 98 20 20 80 28 80 11z m-1669 -30 c-8 -5 -17 -26 -21 -47 l-8 -39
-1 45 c-1 41 2 46 21 47 16 2 19 0 9 -6z m87 -39 l3 -43 -33 3 c-25 2 -33 8
-33 23 0 11 10 24 23 30 27 12 29 29 2 22 -11 -3 -20 -1 -20 5 0 5 12 8 28 6
24 -3 27 -7 30 -46z m142 29 c15 -29 13 -31 -21 -31 -20 0 -29 -4 -26 -12 2
-7 14 -13 26 -12 11 0 21 -3 21 -8 0 -12 -44 -10 -58 4 -7 7 -12 21 -12 33 0
43 50 62 70 26z m100 -27 c0 -25 -5 -54 -10 -65 -11 -19 -54 -27 -64 -11 -2 4
7 8 22 7 16 0 28 6 30 15 2 11 -5 16 -25 15 -23 0 -29 5 -31 28 -4 37 13 57
49 57 28 0 29 -2 29 -46z m35 16 c4 -16 10 -30 15 -30 5 0 11 14 15 30 4 17
11 30 16 30 12 0 13 3 -14 -65 -16 -41 -29 -61 -43 -63 -19 -4 -19 -4 0 11 18
13 19 18 7 53 -7 22 -15 45 -17 52 -3 6 -1 12 4 12 6 0 13 -13 17 -30z m385
-2 l13 -33 10 33 c5 17 14 32 20 32 5 0 6 -8 2 -17 -4 -10 -12 -30 -17 -45
-14 -39 -24 -35 -41 17 -18 51 -5 62 13 13z m128 5 c3 -20 -1 -23 -27 -23 -24
0 -29 -4 -24 -16 4 -10 14 -14 29 -11 13 2 21 0 18 -4 -8 -13 -38 -11 -52 3
-16 16 -15 51 0 66 20 20 53 10 56 -15z m88 -23 l2 -45 -7 40 c-8 53 -35 55
-39 3 -5 -54 -22 -47 -22 8 0 45 0 45 33 42 31 -3 32 -5 33 -48z m100 -7 c2
-13 11 -23 19 -23 8 0 17 10 19 23 3 12 7 31 9 42 3 11 5 -2 6 -28 l1 -48 -32
3 c-32 3 -33 5 -35 48 -1 42 0 40 13 -17z m111 44 c-9 -7 -18 -28 -20 -47 -3
-31 -4 -30 -5 10 -2 40 1 46 19 47 19 2 19 0 6 -10z m91 -14 c3 -20 -1 -23
-27 -23 -24 0 -29 -4 -24 -16 4 -10 14 -14 29 -11 13 2 21 0 18 -4 -8 -13 -38
-11 -52 3 -16 16 -15 51 0 66 20 20 53 10 56 -15z m4196 -276 c28 -20 18 -69
-16 -81 -22 -8 -32 -6 -48 9 -24 22 -25 42 -3 67 19 21 42 23 67 5z m196 -17
c20 -37 -17 -75 -57 -59 -17 6 -23 16 -23 39 0 48 57 62 80 20z m190 0 c20
-37 -17 -75 -57 -59 -17 6 -23 16 -23 39 0 48 57 62 80 20z m190 0 c20 -37
-17 -75 -57 -59 -17 6 -23 16 -23 39 0 48 57 62 80 20z m190 0 c20 -37 -17
-75 -57 -59 -17 6 -23 16 -23 39 0 48 57 62 80 20z"/>
<path d="M15932 8649 c-19 -6 -53 -30 -77 -53 -86 -86 -87 -205 -2 -290 64
-63 82 -66 447 -66 366 0 383 3 447 66 95 96 77 244 -39 321 l-41 28 -351 2
c-206 1 -365 -2 -384 -8z m133 -149 c4 -6 -5 -10 -19 -10 -33 0 -33 -13 0 -34
17 -12 24 -25 22 -39 -2 -18 -10 -22 -40 -22 -21 0 -38 5 -38 10 1 6 12 9 25
7 32 -4 32 15 1 30 -30 13 -40 36 -25 54 13 16 65 19 74 4z m45 -50 c0 -47 -3
-60 -15 -60 -12 0 -15 13 -15 60 0 47 3 60 15 60 12 0 15 -13 15 -60z m120 45
c0 -11 -8 -13 -30 -9 -25 5 -31 2 -41 -20 -9 -20 -9 -29 1 -41 16 -19 40 -19
40 0 0 8 -4 15 -10 15 -5 0 -10 5 -10 10 0 6 11 10 25 10 22 0 25 -4 25 -35 0
-34 -1 -35 -39 -35 -30 0 -44 6 -55 22 -34 48 -6 98 55 98 28 0 39 -4 39 -15z
m77 -23 l22 -37 1 38 c0 26 4 37 15 37 12 0 15 -13 15 -60 0 -51 -3 -60 -18
-60 -10 0 -27 16 -40 38 l-22 37 0 -37 c0 -27 -4 -38 -15 -38 -12 0 -15 13
-15 60 0 51 3 60 18 60 9 0 27 -17 39 -38z m145 -9 c2 -35 7 -48 18 -48 11 0
16 13 18 48 2 33 7 47 18 47 10 0 14 -13 14 -48 0 -54 -12 -72 -50 -72 -38 0
-50 18 -50 72 0 35 4 48 14 48 11 0 16 -14 18 -47z m168 32 c17 -20 3 -54 -26
-61 -15 -4 -24 -13 -24 -25 0 -10 -7 -19 -15 -19 -12 0 -15 13 -15 60 l0 60
34 0 c18 0 39 -7 46 -15z"/>
<path d="M16570 8470 c0 -11 4 -20 9 -20 11 0 22 26 14 34 -12 12 -23 5 -23
-14z"/>
<path d="M4190 8510 c-43 -43 -11 -120 48 -120 36 0 72 37 72 73 0 36 -33 67
-70 67 -17 0 -39 -9 -50 -20z"/>
<path d="M2330 8475 c0 -34 2 -36 28 -33 23 3 27 8 27 33 0 25 -4 30 -27 33
-26 3 -28 1 -28 -33z"/>
<path d="M15070 8466 c-28 -35 11 -93 48 -70 21 14 28 64 10 75 -20 13 -44 11
-58 -5z"/>
<path d="M4886 8445 c-4 -11 2 -15 24 -15 22 0 28 4 24 15 -4 8 -14 15 -24 15
-10 0 -20 -7 -24 -15z"/>
<path d="M4985 8410 c-8 -13 3 -30 20 -30 11 0 25 20 25 36 0 9 -39 4 -45 -6z"/>
<path d="M5400 8446 c-7 -10 -10 -26 -6 -42 5 -19 12 -25 29 -22 18 2 22 9 22
38 0 39 -23 52 -45 26z"/>
<path d="M5510 8410 c-11 -7 -12 -12 -3 -21 15 -15 43 -5 43 16 0 17 -18 19
-40 5z"/>
<path d="M5770 8445 c-11 -13 -8 -15 18 -15 24 0 30 4 26 15 -4 8 -12 15 -19
15 -7 0 -18 -7 -25 -15z"/>
<path d="M297 7697 c-36 -31 -38 -36 -35 -82 2 -37 7 -51 20 -53 13 -3 17 6
20 40 3 42 4 43 38 43 34 0 35 -1 38 -43 3 -34 7 -43 20 -40 13 2 18 16 20 52
3 45 1 50 -35 82 -21 18 -40 33 -43 33 -3 0 -22 -14 -43 -32z"/>
<path d="M320 7595 c0 -28 4 -35 20 -35 16 0 20 7 20 35 0 28 -4 35 -20 35
-16 0 -20 -7 -20 -35z"/>
<path d="M4455 7531 c-11 -36 3 -63 33 -59 24 3 27 8 27 38 0 30 -3 35 -27 38
-19 2 -28 -2 -33 -17z"/>
<path d="M772 7638 c-21 -21 -7 -68 20 -68 17 0 29 40 18 60 -12 23 -21 25
-38 8z"/>
<path d="M1047 7644 c-13 -13 -7 -24 14 -24 11 0 19 5 17 12 -5 14 -22 21 -31
12z"/>
<path d="M9460 7562 c0 -12 19 -26 26 -19 2 2 -2 10 -11 17 -9 8 -15 8 -15 2z"/>
<path d="M10131 7363 c0 -12 2 -14 6 -4 5 11 7 11 15 0 8 -12 9 -12 6 0 -6 22
-28 25 -27 4z"/>
<path d="M3390 7545 c-11 -13 -8 -15 20 -15 21 0 30 4 28 13 -7 18 -33 20 -48
2z"/>
<path d="M3573 7485 c-3 -9 -2 -19 1 -23 8 -8 38 10 44 26 6 18 -38 14 -45 -3z"/>
<path d="M4270 7545 c-11 -13 -8 -15 20 -15 21 0 30 4 28 13 -7 18 -33 20 -48
2z"/>
<path d="M5024 7489 c-3 -6 -2 -15 3 -20 13 -13 43 -1 43 17 0 16 -36 19 -46
3z"/>
<path d="M5557 7554 c-14 -14 -6 -24 19 -24 16 0 24 5 22 13 -5 14 -31 21 -41
11z"/>
<path d="M280 7180 c-43 -43 -11 -120 48 -120 36 0 72 37 72 73 0 36 -33 67
-70 67 -17 0 -39 -9 -50 -20z"/>
<path d="M630 7135 c0 -18 5 -25 19 -25 20 0 31 17 24 38 -3 6 -13 12 -24 12
-14 0 -19 -7 -19 -25z"/>
<path d="M630 7075 c0 -22 4 -26 23 -23 14 2 22 10 22 23 0 13 -8 21 -22 23
-19 3 -23 -1 -23 -23z"/>
<path d="M804 7116 c-3 -8 -4 -25 -2 -38 2 -17 9 -23 28 -23 22 0 25 4 25 35
0 29 -4 36 -23 38 -13 2 -24 -3 -28 -12z"/>
<path d="M1137 7124 c-14 -14 -6 -24 19 -24 16 0 24 5 22 13 -5 14 -31 21 -41
11z"/>
<path d="M10605 7020 c-3 -5 -1 -10 4 -10 6 0 11 5 11 10 0 6 -2 10 -4 10 -3
0 -8 -4 -11 -10z"/>
<path d="M10476 6587 c3 -10 9 -15 12 -12 3 3 0 11 -7 18 -10 9 -11 8 -5 -6z"/>
<path d="M12610 7090 c0 -5 5 -10 11 -10 5 0 7 5 4 10 -3 6 -8 10 -11 10 -2 0
-4 -4 -4 -10z"/>
<path d="M290 6490 c0 -40 5 -45 34 -34 21 8 21 60 0 68 -29 11 -34 6 -34 -34z"/>
<path d="M636 6514 c-20 -19 -20 -25 -2 -50 12 -15 18 -17 33 -8 23 14 28 41
13 59 -16 19 -25 19 -44 -1z"/>
<path d="M930 6510 c0 -13 5 -20 13 -17 6 2 12 10 12 17 0 7 -6 15 -12 18 -8
2 -13 -5 -13 -18z"/>
<path d="M7992 6124 c2 -36 4 -40 18 -32 11 7 15 19 12 34 -2 13 -8 22 -12 19
-5 -3 -11 1 -14 7 -3 7 -4 -6 -4 -28z"/>
<path d="M8007 6063 c-4 -3 -7 -22 -7 -41 0 -28 3 -32 14 -23 7 6 21 8 31 5
13 -5 16 -2 13 16 -3 24 -40 55 -51 43z"/>
<path d="M8230 6039 c0 -5 5 -7 10 -4 6 3 10 8 10 11 0 2 -4 4 -10 4 -5 0 -10
-5 -10 -11z"/>
<path d="M8075 6000 c3 -5 8 -10 11 -10 2 0 4 5 4 10 0 6 -5 10 -11 10 -5 0
-7 -4 -4 -10z"/>
<path d="M8055 5980 c3 -5 8 -10 11 -10 2 0 4 5 4 10 0 6 -5 10 -11 10 -5 0
-7 -4 -4 -10z"/>
<path d="M326 6131 c-4 -5 -2 -21 4 -35 13 -35 3 -56 -26 -56 -14 0 -24 -6
-24 -14 0 -18 38 -46 62 -46 24 0 58 35 58 59 0 23 -66 105 -74 92z"/>
<path d="M987 6073 c-14 -13 -7 -64 9 -70 24 -9 48 21 40 51 -6 25 -33 35 -49
19z"/>
<path d="M776 6065 c-4 -11 2 -15 24 -15 22 0 28 4 24 15 -4 8 -14 15 -24 15
-10 0 -20 -7 -24 -15z"/>
<path d="M1252 6068 c-27 -27 0 -77 34 -64 10 4 14 16 12 38 -3 35 -25 47 -46
26z"/>
<path d="M10405 5690 c-3 -5 -1 -10 4 -10 6 0 11 5 11 10 0 6 -2 10 -4 10 -3
0 -8 -4 -11 -10z"/>
<path d="M275 5615 c-28 -27 -34 -88 -12 -116 36 -47 97 -51 138 -10 41 41 37
102 -10 138 -28 22 -89 16 -116 -12z m75 -32 c0 -14 8 -32 17 -39 26 -18 11
-26 -15 -8 -16 11 -22 25 -22 50 0 21 4 33 10 29 6 -3 10 -18 10 -32z"/>
<path d="M1060 5564 c0 -21 4 -25 23 -22 14 2 23 11 25 26 3 18 -1 22 -22 22
-21 0 -26 -5 -26 -26z"/>
<path d="M770 5545 c-11 -13 -8 -15 18 -15 24 0 30 4 26 15 -4 8 -12 15 -19
15 -7 0 -18 -7 -25 -15z"/>
<path d="M1166 5545 c-4 -11 2 -15 24 -15 22 0 28 4 24 15 -4 8 -14 15 -24 15
-10 0 -20 -7 -24 -15z"/>
<path d="M1317 5554 c-14 -14 -6 -24 19 -24 16 0 24 5 22 13 -5 14 -31 21 -41
11z"/>
<path d="M1413 5505 c-3 -9 -3 -18 0 -22 10 -10 37 6 37 22 0 20 -29 20 -37 0z"/>
<path d="M1597 5554 c-14 -14 -6 -24 19 -24 16 0 24 5 22 13 -5 14 -31 21 -41
11z"/>
<path d="M1362 5028 c-27 -27 0 -77 34 -64 10 4 14 16 12 38 -3 35 -25 47 -46
26z"/>
<path d="M990 5045 c0 -22 4 -26 23 -23 14 2 22 10 22 23 0 13 -8 21 -22 23
-19 3 -23 -1 -23 -23z"/>
<path d="M710 5025 c-26 -31 13 -82 44 -56 19 16 21 42 4 59 -16 16 -33 15
-48 -3z"/>
<path d="M827 5033 c-14 -13 -7 -64 9 -70 24 -9 48 21 40 51 -6 25 -33 35 -49
19z"/>
<path d="M1100 4990 c-11 -7 -12 -12 -3 -21 15 -15 43 -5 43 16 0 17 -18 19
-40 5z"/>
<path d="M1260 5025 c-11 -13 -8 -15 18 -15 24 0 30 4 26 15 -4 8 -12 15 -19
15 -7 0 -18 -7 -25 -15z"/>
<path d="M290 4545 c0 -34 5 -47 19 -55 47 -24 81 1 81 61 l0 39 -50 0 -50 0
0 -45z"/>
<path d="M250 4555 c0 -8 5 -15 10 -15 6 0 10 7 10 15 0 8 -4 15 -10 15 -5 0
-10 -7 -10 -15z"/>
<path d="M410 4555 c0 -8 5 -15 10 -15 6 0 10 7 10 15 0 8 -4 15 -10 15 -5 0
-10 -7 -10 -15z"/>
<path d="M318 4440 l-17 -30 41 0 c39 0 40 1 25 18 -10 10 -17 24 -17 30 0 21
-15 13 -32 -18z"/>
<path d="M630 4510 c0 -27 3 -31 23 -28 16 2 22 10 22 28 0 18 -6 26 -22 28
-20 3 -23 -1 -23 -28z"/>
<path d="M732 4498 c-23 -23 -7 -68 25 -68 21 0 35 37 23 60 -12 23 -30 26
-48 8z"/>
<path d="M847 4503 c-14 -13 -7 -64 9 -70 24 -9 48 21 40 51 -6 25 -33 35 -49
19z"/>
<path d="M1103 4455 c-3 -9 -3 -18 0 -22 10 -10 37 6 37 22 0 20 -29 20 -37 0z"/>
<path d="M262 4018 c-15 -15 -16 -94 -1 -103 5 -4 18 0 28 9 22 20 70 21 99 0
29 -20 42 -11 42 32 0 64 -12 74 -88 74 -40 0 -73 -5 -80 -12z m53 -22 c12
-12 12 -16 0 -26 -21 -18 -50 5 -32 25 15 18 16 18 32 1z"/>
<path d="M647 3989 c-10 -36 -9 -39 13 -39 23 0 26 18 7 45 -13 17 -14 17 -20
-6z"/>
<path d="M1025 3940 c-8 -13 3 -30 20 -30 11 0 25 20 25 36 0 9 -39 4 -45 -6z"/>
<path d="M1286 3975 c-4 -11 2 -15 24 -15 22 0 28 4 24 15 -4 8 -14 15 -24 15
-10 0 -20 -7 -24 -15z"/>
<path d="M260 3500 c0 -18 7 -20 80 -20 73 0 80 2 80 20 0 22 -20 26 -38 8 -9
-9 -12 -9 -12 0 0 16 -52 16 -68 0 -9 -9 -12 -9 -12 0 0 7 -7 12 -15 12 -8 0
-15 -9 -15 -20z"/>
<path d="M260 3410 l0 -50 80 0 80 0 0 50 0 50 -80 0 -80 0 0 -50z"/>
<path d="M767 3463 c-14 -13 -7 -64 9 -70 24 -9 48 21 40 51 -6 25 -33 35 -49
19z"/>
<path d="M960 3455 c-26 -31 13 -82 44 -56 19 16 21 42 4 59 -16 16 -33 15
-48 -3z"/>
<path d="M1390 3456 c-7 -10 -10 -26 -6 -42 5 -19 12 -25 29 -22 18 2 22 9 22
38 0 39 -23 52 -45 26z"/>
<path d="M3826 1244 c-33 -33 -4 -94 35 -74 12 7 19 21 19 40 0 38 -31 57 -54
34z"/>
<path d="M3310 1305 c0 -35 5 -40 34 -29 34 13 14 64 -25 64 -5 0 -9 -16 -9
-35z"/>
<path d="M3310 1195 c0 -24 5 -35 14 -35 29 0 46 13 46 35 0 22 -17 35 -46 35
-9 0 -14 -11 -14 -35z"/>
<path d="M3514 1189 c-9 -15 12 -33 30 -26 9 4 16 13 16 22 0 17 -35 21 -46 4z"/>
<path d="M4984 1189 c-9 -15 12 -33 30 -26 9 4 16 13 16 22 0 17 -35 21 -46 4z"/>
<path d="M5327 1253 c-14 -13 -6 -23 18 -23 16 0 25 6 25 15 0 15 -31 21 -43
8z"/>
<path d="M4714 706 c-9 -23 0 -51 16 -51 10 0 16 12 18 33 2 24 -1 32 -13 32
-8 0 -18 -6 -21 -14z"/>
<path d="M3390 720 c0 -15 5 -20 18 -18 9 2 17 10 17 18 0 8 -8 16 -17 18 -13
2 -18 -3 -18 -18z"/>
<path d="M4617 710 c-4 -15 0 -20 13 -20 13 0 17 5 13 20 -3 11 -9 20 -13 20
-4 0 -10 -9 -13 -20z"/>
<path d="M5460 725 c0 -29 34 -36 44 -9 8 21 -1 34 -25 34 -14 0 -19 -7 -19
-25z"/>
<path d="M5560 725 c0 -18 5 -25 19 -25 20 0 31 17 24 38 -3 6 -13 12 -24 12
-14 0 -19 -7 -19 -25z"/>
<path d="M4103 675 c-3 -9 -3 -18 0 -21 9 -9 27 6 27 22 0 19 -19 18 -27 -1z"/>
<path d="M4247 714 c-13 -13 -7 -24 14 -24 11 0 19 5 17 12 -5 14 -22 21 -31
12z"/>
<path d="M4326 702 c-9 -27 3 -54 23 -50 22 5 22 62 -1 66 -9 2 -19 -5 -22
-16z"/>
<path d="M4887 705 c-5 -11 0 -15 19 -15 16 0 24 5 22 13 -7 18 -35 20 -41 2z"/>
<path d="M5277 705 c-5 -11 0 -15 19 -15 16 0 24 5 22 13 -7 18 -35 20 -41 2z"/>
</g>
</svg>
